%TF.GenerationSoftware,KiCad,Pcbnew,8.0.0*%
%TF.CreationDate,2024-03-16T22:16:42+01:00*%
%TF.ProjectId,Dynamixel Interface Pro,44796e61-6d69-4786-956c-20496e746572,rev?*%
%TF.SameCoordinates,Original*%
%TF.FileFunction,Soldermask,Top*%
%TF.FilePolarity,Negative*%
%FSLAX46Y46*%
G04 Gerber Fmt 4.6, Leading zero omitted, Abs format (unit mm)*
G04 Created by KiCad (PCBNEW 8.0.0) date 2024-03-16 22:16:42*
%MOMM*%
%LPD*%
G01*
G04 APERTURE LIST*
G04 Aperture macros list*
%AMRoundRect*
0 Rectangle with rounded corners*
0 $1 Rounding radius*
0 $2 $3 $4 $5 $6 $7 $8 $9 X,Y pos of 4 corners*
0 Add a 4 corners polygon primitive as box body*
4,1,4,$2,$3,$4,$5,$6,$7,$8,$9,$2,$3,0*
0 Add four circle primitives for the rounded corners*
1,1,$1+$1,$2,$3*
1,1,$1+$1,$4,$5*
1,1,$1+$1,$6,$7*
1,1,$1+$1,$8,$9*
0 Add four rect primitives between the rounded corners*
20,1,$1+$1,$2,$3,$4,$5,0*
20,1,$1+$1,$4,$5,$6,$7,0*
20,1,$1+$1,$6,$7,$8,$9,0*
20,1,$1+$1,$8,$9,$2,$3,0*%
%AMFreePoly0*
4,1,13,-0.762000,0.747600,-0.750399,0.805921,-0.717363,0.855363,-0.667921,0.888399,-0.609600,0.900000,0.762000,0.900000,0.762000,-0.900000,-0.609600,-0.900000,-0.667921,-0.888399,-0.717363,-0.855363,-0.750399,-0.805921,-0.762000,-0.747600,-0.762000,0.747600,-0.762000,0.747600,$1*%
G04 Aperture macros list end*
%ADD10RoundRect,0.900000X0.000000X0.000000X0.000000X0.000000X0.000000X0.000000X0.000000X0.000000X0*%
%ADD11FreePoly0,270.000000*%
%ADD12FreePoly0,90.000000*%
%ADD13RoundRect,0.900000X0.000000X0.000000X0.000000X0.000000X0.000000X0.000000X0.000000X0.000000X0*%
%ADD14RoundRect,0.140000X-0.170000X0.140000X-0.170000X-0.140000X0.170000X-0.140000X0.170000X0.140000X0*%
%ADD15RoundRect,0.140000X0.170000X-0.140000X0.170000X0.140000X-0.170000X0.140000X-0.170000X-0.140000X0*%
%ADD16RoundRect,0.135000X0.135000X0.185000X-0.135000X0.185000X-0.135000X-0.185000X0.135000X-0.185000X0*%
%ADD17RoundRect,0.264706X-0.635294X0.635294X-0.635294X-0.635294X0.635294X-0.635294X0.635294X0.635294X0*%
%ADD18O,1.800000X1.800000*%
%ADD19RoundRect,0.225000X0.250000X-0.225000X0.250000X0.225000X-0.250000X0.225000X-0.250000X-0.225000X0*%
%ADD20RoundRect,0.135000X-0.185000X0.135000X-0.185000X-0.135000X0.185000X-0.135000X0.185000X0.135000X0*%
%ADD21RoundRect,0.147500X-0.147500X-0.172500X0.147500X-0.172500X0.147500X0.172500X-0.147500X0.172500X0*%
%ADD22RoundRect,0.225000X-0.250000X0.225000X-0.250000X-0.225000X0.250000X-0.225000X0.250000X0.225000X0*%
%ADD23RoundRect,0.075000X-0.075000X-0.325000X0.075000X-0.325000X0.075000X0.325000X-0.075000X0.325000X0*%
%ADD24RoundRect,0.100000X0.100000X-0.637500X0.100000X0.637500X-0.100000X0.637500X-0.100000X-0.637500X0*%
G04 APERTURE END LIST*
D10*
%TO.C,FP0*%
X115000000Y-87628400D03*
D11*
X115000000Y-88240000D03*
D10*
X117540000Y-87628400D03*
D11*
X117540000Y-88240000D03*
D10*
X120080000Y-87628400D03*
D11*
X120080000Y-88240000D03*
D10*
X122620000Y-87628400D03*
D11*
X122620000Y-88240000D03*
D12*
X122620000Y-71760000D03*
D13*
X122620000Y-72388400D03*
D12*
X120080000Y-71760000D03*
D13*
X120080000Y-72388400D03*
D12*
X117540000Y-71760000D03*
D13*
X117540000Y-72388400D03*
D12*
X115000000Y-71760000D03*
D13*
X115000000Y-72388400D03*
%TD*%
D14*
%TO.C,C2*%
X113400000Y-74520000D03*
X113400000Y-75480000D03*
%TD*%
D15*
%TO.C,C1*%
X118000000Y-77980000D03*
X118000000Y-77020000D03*
%TD*%
D16*
%TO.C,R1*%
X120510000Y-84250000D03*
X119490000Y-84250000D03*
%TD*%
%TO.C,R4*%
X120510000Y-74500000D03*
X119490000Y-74500000D03*
%TD*%
%TO.C,R3*%
X120510000Y-75750000D03*
X119490000Y-75750000D03*
%TD*%
%TO.C,R2*%
X120510000Y-85500000D03*
X119490000Y-85500000D03*
%TD*%
D17*
%TO.C,J1*%
X122900000Y-77500000D03*
D18*
X122900000Y-80000000D03*
X122900000Y-82500000D03*
%TD*%
D19*
%TO.C,C3*%
X120250000Y-79275000D03*
X120250000Y-77725000D03*
%TD*%
D20*
%TO.C,R5*%
X118000000Y-74490000D03*
X118000000Y-75510000D03*
%TD*%
D21*
%TO.C,D4*%
X125015000Y-72250000D03*
X125985000Y-72250000D03*
%TD*%
%TO.C,D1*%
X125015000Y-86250000D03*
X125985000Y-86250000D03*
%TD*%
%TO.C,D3*%
X125015000Y-73750000D03*
X125985000Y-73750000D03*
%TD*%
D22*
%TO.C,C4*%
X120250000Y-80725000D03*
X120250000Y-82275000D03*
%TD*%
D23*
%TO.C,U2*%
X115000000Y-77550000D03*
X115500000Y-77550000D03*
X116000000Y-77550000D03*
X116500000Y-77550000D03*
X116500000Y-74450000D03*
X116000000Y-74450000D03*
X115500000Y-74450000D03*
X115000000Y-74450000D03*
%TD*%
D15*
%TO.C,C5*%
X113400000Y-77980000D03*
X113400000Y-77020000D03*
%TD*%
D21*
%TO.C,D2*%
X125015000Y-87750000D03*
X125985000Y-87750000D03*
%TD*%
D24*
%TO.C,U1*%
X113800000Y-85362500D03*
X114450000Y-85362500D03*
X115100000Y-85362500D03*
X115750000Y-85362500D03*
X116400000Y-85362500D03*
X117050000Y-85362500D03*
X117700000Y-85362500D03*
X117700000Y-79637500D03*
X117050000Y-79637500D03*
X116400000Y-79637500D03*
X115750000Y-79637500D03*
X115100000Y-79637500D03*
X114450000Y-79637500D03*
X113800000Y-79637500D03*
%TD*%
M02*
