%TF.GenerationSoftware,KiCad,Pcbnew,8.0.0*%
%TF.CreationDate,2024-03-16T22:16:42+01:00*%
%TF.ProjectId,Dynamixel Interface Pro,44796e61-6d69-4786-956c-20496e746572,rev?*%
%TF.SameCoordinates,Original*%
%TF.FileFunction,Copper,L1,Top*%
%TF.FilePolarity,Positive*%
%FSLAX46Y46*%
G04 Gerber Fmt 4.6, Leading zero omitted, Abs format (unit mm)*
G04 Created by KiCad (PCBNEW 8.0.0) date 2024-03-16 22:16:42*
%MOMM*%
%LPD*%
G01*
G04 APERTURE LIST*
G04 Aperture macros list*
%AMRoundRect*
0 Rectangle with rounded corners*
0 $1 Rounding radius*
0 $2 $3 $4 $5 $6 $7 $8 $9 X,Y pos of 4 corners*
0 Add a 4 corners polygon primitive as box body*
4,1,4,$2,$3,$4,$5,$6,$7,$8,$9,$2,$3,0*
0 Add four circle primitives for the rounded corners*
1,1,$1+$1,$2,$3*
1,1,$1+$1,$4,$5*
1,1,$1+$1,$6,$7*
1,1,$1+$1,$8,$9*
0 Add four rect primitives between the rounded corners*
20,1,$1+$1,$2,$3,$4,$5,0*
20,1,$1+$1,$4,$5,$6,$7,0*
20,1,$1+$1,$6,$7,$8,$9,0*
20,1,$1+$1,$8,$9,$2,$3,0*%
%AMFreePoly0*
4,1,13,-0.762000,0.747600,-0.750399,0.805921,-0.717363,0.855363,-0.667921,0.888399,-0.609600,0.900000,0.762000,0.900000,0.762000,-0.900000,-0.609600,-0.900000,-0.667921,-0.888399,-0.717363,-0.855363,-0.750399,-0.805921,-0.762000,-0.747600,-0.762000,0.747600,-0.762000,0.747600,$1*%
G04 Aperture macros list end*
%TA.AperFunction,ComponentPad*%
%ADD10RoundRect,0.900000X0.000000X0.000000X0.000000X0.000000X0.000000X0.000000X0.000000X0.000000X0*%
%TD*%
%TA.AperFunction,CastellatedPad*%
%ADD11FreePoly0,270.000000*%
%TD*%
%TA.AperFunction,CastellatedPad*%
%ADD12FreePoly0,90.000000*%
%TD*%
%TA.AperFunction,ComponentPad*%
%ADD13RoundRect,0.900000X0.000000X0.000000X0.000000X0.000000X0.000000X0.000000X0.000000X0.000000X0*%
%TD*%
%TA.AperFunction,SMDPad,CuDef*%
%ADD14RoundRect,0.140000X-0.170000X0.140000X-0.170000X-0.140000X0.170000X-0.140000X0.170000X0.140000X0*%
%TD*%
%TA.AperFunction,SMDPad,CuDef*%
%ADD15RoundRect,0.140000X0.170000X-0.140000X0.170000X0.140000X-0.170000X0.140000X-0.170000X-0.140000X0*%
%TD*%
%TA.AperFunction,SMDPad,CuDef*%
%ADD16RoundRect,0.135000X0.135000X0.185000X-0.135000X0.185000X-0.135000X-0.185000X0.135000X-0.185000X0*%
%TD*%
%TA.AperFunction,ComponentPad*%
%ADD17RoundRect,0.264706X-0.635294X0.635294X-0.635294X-0.635294X0.635294X-0.635294X0.635294X0.635294X0*%
%TD*%
%TA.AperFunction,ComponentPad*%
%ADD18O,1.800000X1.800000*%
%TD*%
%TA.AperFunction,SMDPad,CuDef*%
%ADD19RoundRect,0.225000X0.250000X-0.225000X0.250000X0.225000X-0.250000X0.225000X-0.250000X-0.225000X0*%
%TD*%
%TA.AperFunction,SMDPad,CuDef*%
%ADD20RoundRect,0.135000X-0.185000X0.135000X-0.185000X-0.135000X0.185000X-0.135000X0.185000X0.135000X0*%
%TD*%
%TA.AperFunction,SMDPad,CuDef*%
%ADD21RoundRect,0.147500X-0.147500X-0.172500X0.147500X-0.172500X0.147500X0.172500X-0.147500X0.172500X0*%
%TD*%
%TA.AperFunction,SMDPad,CuDef*%
%ADD22RoundRect,0.225000X-0.250000X0.225000X-0.250000X-0.225000X0.250000X-0.225000X0.250000X0.225000X0*%
%TD*%
%TA.AperFunction,SMDPad,CuDef*%
%ADD23RoundRect,0.075000X-0.075000X-0.325000X0.075000X-0.325000X0.075000X0.325000X-0.075000X0.325000X0*%
%TD*%
%TA.AperFunction,SMDPad,CuDef*%
%ADD24RoundRect,0.100000X0.100000X-0.637500X0.100000X0.637500X-0.100000X0.637500X-0.100000X-0.637500X0*%
%TD*%
%TA.AperFunction,ViaPad*%
%ADD25C,0.600000*%
%TD*%
%TA.AperFunction,Conductor*%
%ADD26C,0.200000*%
%TD*%
%TA.AperFunction,Conductor*%
%ADD27C,0.600000*%
%TD*%
%ADD28C,0.300000*%
%ADD29C,0.350000*%
G04 APERTURE END LIST*
D10*
%TO.P,FP0,1,RXD*%
%TO.N,RXDL*%
X115000000Y-87628400D03*
D11*
X115000000Y-88240000D03*
D10*
%TO.P,FP0,2,TXD*%
%TO.N,TXDL*%
X117540000Y-87628400D03*
D11*
X117540000Y-88240000D03*
D10*
%TO.P,FP0,3,CTRL*%
%TO.N,CTRLL*%
X120080000Y-87628400D03*
D11*
X120080000Y-88240000D03*
D10*
%TO.P,FP0,4,DATAL*%
%TO.N,DATAL*%
X122620000Y-87628400D03*
D11*
X122620000Y-88240000D03*
D12*
%TO.P,FP0,5,DATA*%
%TO.N,VDC*%
X122620000Y-71760000D03*
D13*
X122620000Y-72388400D03*
D12*
%TO.P,FP0,6,VMOT*%
%TO.N,VDD*%
X120080000Y-71760000D03*
D13*
X120080000Y-72388400D03*
D12*
%TO.P,FP0,7,GND*%
%TO.N,GND*%
X117540000Y-71760000D03*
D13*
X117540000Y-72388400D03*
D12*
%TO.P,FP0,8,VDD*%
%TO.N,VCC*%
X115000000Y-71760000D03*
D13*
X115000000Y-72388400D03*
%TD*%
D14*
%TO.P,C2,1*%
%TO.N,VCC*%
X113400000Y-74520000D03*
%TO.P,C2,2*%
%TO.N,GND*%
X113400000Y-75480000D03*
%TD*%
D15*
%TO.P,C1,1*%
%TO.N,VDD*%
X118000000Y-77980000D03*
%TO.P,C1,2*%
%TO.N,GND*%
X118000000Y-77020000D03*
%TD*%
D16*
%TO.P,R1,1*%
%TO.N,Net-(D1-K)*%
X120510000Y-84250000D03*
%TO.P,R1,2*%
%TO.N,RXDL*%
X119490000Y-84250000D03*
%TD*%
%TO.P,R4,1*%
%TO.N,Net-(D4-K)*%
X120510000Y-74500000D03*
%TO.P,R4,2*%
%TO.N,GND*%
X119490000Y-74500000D03*
%TD*%
%TO.P,R3,1*%
%TO.N,Net-(D3-K)*%
X120510000Y-75750000D03*
%TO.P,R3,2*%
%TO.N,GND*%
X119490000Y-75750000D03*
%TD*%
%TO.P,R2,1*%
%TO.N,Net-(D2-K)*%
X120510000Y-85500000D03*
%TO.P,R2,2*%
%TO.N,TXDL*%
X119490000Y-85500000D03*
%TD*%
D17*
%TO.P,J1,1,Pin_1*%
%TO.N,GND*%
X122900000Y-77500000D03*
D18*
%TO.P,J1,2,Pin_2*%
%TO.N,VDC*%
X122900000Y-80000000D03*
%TO.P,J1,3,Pin_3*%
%TO.N,DATA*%
X122900000Y-82500000D03*
%TD*%
D19*
%TO.P,C3,1*%
%TO.N,VDC*%
X120250000Y-79275000D03*
%TO.P,C3,2*%
%TO.N,GND*%
X120250000Y-77725000D03*
%TD*%
D20*
%TO.P,R5,1*%
%TO.N,VCC*%
X118000000Y-74490000D03*
%TO.P,R5,2*%
%TO.N,DATA*%
X118000000Y-75510000D03*
%TD*%
D21*
%TO.P,D4,1,K*%
%TO.N,Net-(D4-K)*%
X125015000Y-72250000D03*
%TO.P,D4,2,A*%
%TO.N,VDD*%
X125985000Y-72250000D03*
%TD*%
%TO.P,D1,1,K*%
%TO.N,Net-(D1-K)*%
X125015000Y-86250000D03*
%TO.P,D1,2,A*%
%TO.N,VDD*%
X125985000Y-86250000D03*
%TD*%
%TO.P,D3,1,K*%
%TO.N,Net-(D3-K)*%
X125015000Y-73750000D03*
%TO.P,D3,2,A*%
%TO.N,CTRLL*%
X125985000Y-73750000D03*
%TD*%
D22*
%TO.P,C4,1*%
%TO.N,VDC*%
X120250000Y-80725000D03*
%TO.P,C4,2*%
%TO.N,GND*%
X120250000Y-82275000D03*
%TD*%
D23*
%TO.P,U2,1,1OE*%
%TO.N,CTRL*%
X115000000Y-77550000D03*
%TO.P,U2,2,1A*%
%TO.N,DATA*%
X115500000Y-77550000D03*
%TO.P,U2,3,2Y*%
X116000000Y-77550000D03*
%TO.P,U2,4,GND*%
%TO.N,GND*%
X116500000Y-77550000D03*
%TO.P,U2,5,2A*%
%TO.N,TXD*%
X116500000Y-74450000D03*
%TO.P,U2,6,1Y*%
%TO.N,RXD*%
X116000000Y-74450000D03*
%TO.P,U2,7,2OE*%
%TO.N,CTRL*%
X115500000Y-74450000D03*
%TO.P,U2,8,VCC*%
%TO.N,VCC*%
X115000000Y-74450000D03*
%TD*%
D15*
%TO.P,C5,1*%
%TO.N,VDD*%
X113400000Y-77980000D03*
%TO.P,C5,2*%
%TO.N,GND*%
X113400000Y-77020000D03*
%TD*%
D21*
%TO.P,D2,1,K*%
%TO.N,Net-(D2-K)*%
X125015000Y-87750000D03*
%TO.P,D2,2,A*%
%TO.N,VDD*%
X125985000Y-87750000D03*
%TD*%
D24*
%TO.P,U1,1,VCCA*%
%TO.N,VDD*%
X113800000Y-85362500D03*
%TO.P,U1,2,A1*%
%TO.N,CTRLL*%
X114450000Y-85362500D03*
%TO.P,U1,3,A2*%
%TO.N,RXDL*%
X115100000Y-85362500D03*
%TO.P,U1,4,A3*%
%TO.N,TXDL*%
X115750000Y-85362500D03*
%TO.P,U1,5,A4*%
%TO.N,DATAL*%
X116400000Y-85362500D03*
%TO.P,U1,6,NC*%
%TO.N,unconnected-(U1-NC-Pad6)*%
X117050000Y-85362500D03*
%TO.P,U1,7,GND*%
%TO.N,GND*%
X117700000Y-85362500D03*
%TO.P,U1,8,OE*%
%TO.N,VDD*%
X117700000Y-79637500D03*
%TO.P,U1,9,NC*%
%TO.N,unconnected-(U1-NC-Pad9)*%
X117050000Y-79637500D03*
%TO.P,U1,10,B4*%
%TO.N,DATA*%
X116400000Y-79637500D03*
%TO.P,U1,11,B3*%
%TO.N,TXD*%
X115750000Y-79637500D03*
%TO.P,U1,12,B2*%
%TO.N,RXD*%
X115100000Y-79637500D03*
%TO.P,U1,13,B1*%
%TO.N,CTRL*%
X114450000Y-79637500D03*
%TO.P,U1,14,VCCB*%
%TO.N,VCC*%
X113800000Y-79637500D03*
%TD*%
D25*
%TO.N,VDD*%
X118800000Y-77000000D03*
%TO.N,GND*%
X118500000Y-86250000D03*
X125500000Y-83750000D03*
X119000000Y-78700000D03*
X117150000Y-77000000D03*
X113000000Y-83100000D03*
X125750000Y-77250000D03*
X127500000Y-84250000D03*
X125750000Y-78250000D03*
X121250000Y-86250000D03*
X119000000Y-81250000D03*
X124692721Y-75388444D03*
X119000000Y-80000000D03*
X117150000Y-78200000D03*
X127500000Y-75500000D03*
X113000000Y-73000000D03*
X124750000Y-84500000D03*
X113000000Y-71750000D03*
X118079264Y-83883155D03*
X125750000Y-79250000D03*
X113000000Y-81800000D03*
%TO.N,VCC*%
X117051900Y-75073786D03*
%TO.N,CTRLL*%
X125948100Y-75359747D03*
X117750000Y-82198100D03*
%TO.N,RXDL*%
X115000000Y-84000000D03*
%TO.N,TXDL*%
X116145700Y-83301900D03*
%TO.N,DATAL*%
X117250000Y-83883155D03*
%TO.N,DATA*%
X118400000Y-80600000D03*
X116268904Y-80999655D03*
%TO.N,TXD*%
X116345455Y-76095455D03*
X115517127Y-81013378D03*
%TO.N,RXD*%
X114750000Y-81000000D03*
X115571567Y-76088838D03*
%TD*%
D26*
%TO.N,VDD*%
X125985000Y-87750000D02*
X125985000Y-84765000D01*
X117700000Y-80674006D02*
X116624006Y-81750000D01*
X117700000Y-79637500D02*
X117700000Y-78800000D01*
X118800000Y-77000000D02*
X118800000Y-77700000D01*
X118520000Y-77980000D02*
X118000000Y-77980000D01*
X126750000Y-73015000D02*
X125985000Y-72250000D01*
X118800000Y-77700000D02*
X118520000Y-77980000D01*
X113200000Y-80900000D02*
X114050000Y-81750000D01*
X126750000Y-84000000D02*
X126750000Y-73015000D01*
X125985000Y-84765000D02*
X126750000Y-84000000D01*
X118800000Y-77000000D02*
X119300000Y-76500000D01*
X113400000Y-77980000D02*
X113400000Y-78500000D01*
X124000000Y-76000000D02*
X126250000Y-76000000D01*
X126250000Y-76000000D02*
X126750000Y-75500000D01*
X113800000Y-83200000D02*
X113800000Y-85362500D01*
X113400000Y-78500000D02*
X113200000Y-78700000D01*
X121750000Y-75500000D02*
X123500000Y-75500000D01*
X113200000Y-78700000D02*
X113200000Y-80900000D01*
X123500000Y-75500000D02*
X124000000Y-76000000D01*
X119300000Y-76500000D02*
X120750000Y-76500000D01*
X115250000Y-81750000D02*
X113800000Y-83200000D01*
X116624006Y-81750000D02*
X115250000Y-81750000D01*
X117700000Y-79637500D02*
X117700000Y-80674006D01*
X118000000Y-78500000D02*
X118000000Y-77980000D01*
X114050000Y-81750000D02*
X115250000Y-81750000D01*
X120750000Y-76500000D02*
X121750000Y-75500000D01*
X117700000Y-78800000D02*
X118000000Y-78500000D01*
%TO.N,VCC*%
X113800000Y-79637500D02*
X113800000Y-78700000D01*
X114500000Y-75612420D02*
X115000000Y-75112420D01*
X114500000Y-78000000D02*
X114500000Y-75612420D01*
X115000000Y-74450000D02*
X115000000Y-72388400D01*
X117051900Y-75073786D02*
X117416214Y-75073786D01*
X113500000Y-74520000D02*
X114930000Y-74520000D01*
X115000000Y-75112420D02*
X115000000Y-74450000D01*
X117416214Y-75073786D02*
X118000000Y-74490000D01*
X114930000Y-74520000D02*
X115000000Y-74450000D01*
X113800000Y-78700000D02*
X114500000Y-78000000D01*
%TO.N,Net-(D1-K)*%
X121260000Y-85000000D02*
X120510000Y-84250000D01*
X123765000Y-85000000D02*
X121260000Y-85000000D01*
X125015000Y-86250000D02*
X123765000Y-85000000D01*
%TO.N,Net-(D2-K)*%
X124250000Y-86985000D02*
X124250000Y-86250000D01*
X123500000Y-85500000D02*
X120510000Y-85500000D01*
X124250000Y-86250000D02*
X123500000Y-85500000D01*
X125015000Y-87750000D02*
X124250000Y-86985000D01*
%TO.N,Net-(D3-K)*%
X121260000Y-75000000D02*
X123765000Y-75000000D01*
X120510000Y-75750000D02*
X121260000Y-75000000D01*
X123765000Y-75000000D02*
X125015000Y-73750000D01*
%TO.N,CTRLL*%
X115500000Y-82250000D02*
X114447600Y-83302400D01*
X125985000Y-75322847D02*
X125985000Y-73750000D01*
X114447600Y-85360100D02*
X114450000Y-85362500D01*
X117698100Y-82250000D02*
X115500000Y-82250000D01*
X117750000Y-82198100D02*
X117698100Y-82250000D01*
X125948100Y-75359747D02*
X125985000Y-75322847D01*
X114447600Y-83302400D02*
X114447600Y-85360100D01*
%TO.N,Net-(D4-K)*%
X124250000Y-73750000D02*
X123500000Y-74500000D01*
X123500000Y-74500000D02*
X120510000Y-74500000D01*
X124250000Y-73015000D02*
X124250000Y-73750000D01*
X125015000Y-72250000D02*
X124250000Y-73015000D01*
%TO.N,RXDL*%
X118625000Y-82750000D02*
X119490000Y-83615000D01*
X119490000Y-83615000D02*
X119490000Y-84250000D01*
X115100000Y-84100000D02*
X115100000Y-85362500D01*
X115000000Y-83500000D02*
X115750000Y-82750000D01*
X115000000Y-84000000D02*
X115100000Y-84100000D01*
X115000000Y-84000000D02*
X115000000Y-83500000D01*
X115750000Y-82750000D02*
X118625000Y-82750000D01*
%TO.N,TXDL*%
X116145700Y-83301900D02*
X115750000Y-83697600D01*
X118500000Y-83250000D02*
X118750000Y-83500000D01*
X116145700Y-83301900D02*
X116198100Y-83301900D01*
X118750000Y-83500000D02*
X118750000Y-84760000D01*
X116250000Y-83250000D02*
X118500000Y-83250000D01*
X116198100Y-83301900D02*
X116250000Y-83250000D01*
X115750000Y-83697600D02*
X115750000Y-85362500D01*
X118750000Y-84760000D02*
X119490000Y-85500000D01*
%TO.N,DATAL*%
X116616845Y-83883155D02*
X116400000Y-84100000D01*
X117250000Y-83883155D02*
X116616845Y-83883155D01*
X116400000Y-84100000D02*
X116400000Y-85362500D01*
%TO.N,DATA*%
X116000000Y-76750000D02*
X116000000Y-77550000D01*
X118400000Y-81931658D02*
X119968342Y-83500000D01*
X115500000Y-77550000D02*
X115500000Y-76880998D01*
X117390000Y-75510000D02*
X117100000Y-75800000D01*
X117100000Y-76121416D02*
X116563181Y-76658235D01*
X115500000Y-76880998D02*
X115722763Y-76658235D01*
X116400000Y-78650000D02*
X116250000Y-78500000D01*
X116268904Y-80999655D02*
X116400000Y-80868559D01*
X116400000Y-79637500D02*
X116400000Y-78650000D01*
X117100000Y-75800000D02*
X117100000Y-76121416D01*
X118400000Y-80600000D02*
X118400000Y-81931658D01*
X115722763Y-76658235D02*
X116091765Y-76658235D01*
X119968342Y-83500000D02*
X121900000Y-83500000D01*
X121900000Y-83500000D02*
X122900000Y-82500000D01*
X116250000Y-78500000D02*
X115700000Y-78500000D01*
X115500000Y-78300000D02*
X115500000Y-77550000D01*
X116091765Y-76658235D02*
X116000000Y-76750000D01*
X116563181Y-76658235D02*
X116091765Y-76658235D01*
X115700000Y-78500000D02*
X115500000Y-78300000D01*
X118000000Y-75510000D02*
X117390000Y-75510000D01*
X116400000Y-80868559D02*
X116400000Y-79637500D01*
%TO.N,TXD*%
X115750000Y-79637500D02*
X115750000Y-80780505D01*
X115750000Y-80780505D02*
X115517127Y-81013378D01*
X116345455Y-76095455D02*
X116500000Y-75940910D01*
X116500000Y-75940910D02*
X116500000Y-74450000D01*
%TO.N,RXD*%
X116000000Y-75660405D02*
X116000000Y-74450000D01*
X115571567Y-76088838D02*
X116000000Y-75660405D01*
X115100000Y-80650000D02*
X114750000Y-81000000D01*
X115100000Y-79637500D02*
X115100000Y-80650000D01*
%TO.N,CTRL*%
X115500000Y-75296622D02*
X115500000Y-74450000D01*
X115000000Y-78188918D02*
X115000000Y-77550000D01*
X114450000Y-79637500D02*
X114450000Y-78738918D01*
X115000000Y-75796622D02*
X115500000Y-75296622D01*
X114450000Y-78738918D02*
X115000000Y-78188918D01*
X115000000Y-77550000D02*
X115000000Y-75796622D01*
D27*
%TO.N,VDC*%
X120250000Y-80725000D02*
X120250000Y-79275000D01*
X122900000Y-80000000D02*
X121750000Y-80000000D01*
X121025000Y-80725000D02*
X120250000Y-80725000D01*
X121750000Y-80000000D02*
X121025000Y-80725000D01*
%TD*%
%TA.AperFunction,Conductor*%
%TO.N,GND*%
G36*
X113850000Y-71166163D02*
G01*
X113886237Y-71202400D01*
X113899500Y-71251900D01*
X113899500Y-72304362D01*
X113899500Y-72472438D01*
X113899585Y-72473869D01*
X113899586Y-72473894D01*
X113902081Y-72515762D01*
X113902312Y-72519645D01*
X113903125Y-72523386D01*
X113903126Y-72523387D01*
X113945985Y-72720410D01*
X113945987Y-72720418D01*
X113946987Y-72725012D01*
X113948837Y-72729333D01*
X113948840Y-72729341D01*
X114027865Y-72913881D01*
X114027869Y-72913888D01*
X114029721Y-72918213D01*
X114032361Y-72922114D01*
X114032363Y-72922117D01*
X114144662Y-73088039D01*
X114147523Y-73092265D01*
X114296135Y-73240877D01*
X114470187Y-73358679D01*
X114474519Y-73360534D01*
X114639472Y-73431172D01*
X114683141Y-73467668D01*
X114699500Y-73522179D01*
X114699500Y-73936568D01*
X114682815Y-73991567D01*
X114665485Y-74017505D01*
X114663583Y-74027062D01*
X114663582Y-74027067D01*
X114650447Y-74093103D01*
X114650446Y-74093109D01*
X114649500Y-74097867D01*
X114649500Y-74102725D01*
X114649500Y-74120500D01*
X114636237Y-74170000D01*
X114600000Y-74206237D01*
X114550500Y-74219500D01*
X113929403Y-74219500D01*
X113883687Y-74208313D01*
X113853271Y-74181636D01*
X113853224Y-74181684D01*
X113768316Y-74096776D01*
X113715772Y-74072274D01*
X113666355Y-74049230D01*
X113666351Y-74049228D01*
X113659487Y-74046028D01*
X113651979Y-74045039D01*
X113651974Y-74045038D01*
X113613114Y-74039923D01*
X113609901Y-74039500D01*
X113606660Y-74039500D01*
X113193342Y-74039500D01*
X113193326Y-74039500D01*
X113190100Y-74039501D01*
X113186890Y-74039923D01*
X113186882Y-74039924D01*
X113148025Y-74045039D01*
X113148023Y-74045039D01*
X113140513Y-74046028D01*
X113133648Y-74049228D01*
X113133645Y-74049230D01*
X113039534Y-74093115D01*
X113039531Y-74093116D01*
X113031684Y-74096776D01*
X113025564Y-74102895D01*
X113025561Y-74102898D01*
X112952898Y-74175561D01*
X112952895Y-74175564D01*
X112946776Y-74181684D01*
X112943116Y-74189531D01*
X112943115Y-74189534D01*
X112899230Y-74283644D01*
X112899228Y-74283650D01*
X112896028Y-74290513D01*
X112895039Y-74298018D01*
X112895038Y-74298025D01*
X112889923Y-74336885D01*
X112889500Y-74340099D01*
X112889500Y-74343338D01*
X112889500Y-74343339D01*
X112889500Y-74696657D01*
X112889500Y-74696672D01*
X112889501Y-74699900D01*
X112896028Y-74749487D01*
X112946776Y-74858316D01*
X112952898Y-74864438D01*
X113018810Y-74930350D01*
X113044433Y-74974731D01*
X113044433Y-75025977D01*
X113018810Y-75070358D01*
X112953314Y-75135853D01*
X112943531Y-75149826D01*
X112899721Y-75243775D01*
X112895529Y-75258156D01*
X112890423Y-75296946D01*
X112890000Y-75303401D01*
X112890000Y-75366967D01*
X112892754Y-75377245D01*
X112903033Y-75380000D01*
X113896967Y-75380000D01*
X113907245Y-75377245D01*
X113910000Y-75366967D01*
X113910000Y-75303401D01*
X113909576Y-75296946D01*
X113904470Y-75258156D01*
X113900278Y-75243775D01*
X113856468Y-75149826D01*
X113846685Y-75135853D01*
X113781190Y-75070358D01*
X113755567Y-75025977D01*
X113755567Y-74974731D01*
X113781190Y-74930350D01*
X113813598Y-74897942D01*
X113853224Y-74858316D01*
X113853271Y-74858363D01*
X113883687Y-74831687D01*
X113929403Y-74820500D01*
X114575716Y-74820500D01*
X114630718Y-74837185D01*
X114664711Y-74878607D01*
X114665485Y-74882495D01*
X114676210Y-74898547D01*
X114692047Y-74940625D01*
X114687640Y-74985369D01*
X114663898Y-75023550D01*
X114325136Y-75362312D01*
X114321141Y-75365787D01*
X114315772Y-75368462D01*
X114309596Y-75375236D01*
X114309594Y-75375238D01*
X114284141Y-75403157D01*
X114280990Y-75406457D01*
X114271063Y-75416384D01*
X114271054Y-75416394D01*
X114267826Y-75419623D01*
X114265240Y-75423395D01*
X114262321Y-75426912D01*
X114262178Y-75426793D01*
X114259257Y-75430453D01*
X114246261Y-75444710D01*
X114246259Y-75444712D01*
X114240084Y-75451487D01*
X114236772Y-75460033D01*
X114236770Y-75460038D01*
X114236529Y-75460661D01*
X114225898Y-75480829D01*
X114225530Y-75481366D01*
X114225527Y-75481370D01*
X114220344Y-75488939D01*
X114218244Y-75497866D01*
X114218242Y-75497871D01*
X114213830Y-75516627D01*
X114209777Y-75529715D01*
X114202813Y-75547691D01*
X114202811Y-75547698D01*
X114199500Y-75556247D01*
X114199500Y-75565419D01*
X114199500Y-75566072D01*
X114196870Y-75588738D01*
X114196721Y-75589370D01*
X114196720Y-75589373D01*
X114194621Y-75598301D01*
X114195887Y-75607383D01*
X114195888Y-75607383D01*
X114198551Y-75626473D01*
X114199500Y-75640151D01*
X114199500Y-77834520D01*
X114191964Y-77872406D01*
X114170503Y-77904524D01*
X114079502Y-77995524D01*
X114028813Y-78022618D01*
X113971613Y-78016984D01*
X113927183Y-77980521D01*
X113910499Y-77925520D01*
X113910499Y-77803342D01*
X113910499Y-77803339D01*
X113910499Y-77800100D01*
X113903972Y-77750513D01*
X113853224Y-77641684D01*
X113781190Y-77569650D01*
X113755567Y-77525269D01*
X113755567Y-77474023D01*
X113781190Y-77429642D01*
X113846685Y-77364146D01*
X113856468Y-77350173D01*
X113900278Y-77256224D01*
X113904470Y-77241843D01*
X113909576Y-77203053D01*
X113910000Y-77196599D01*
X113910000Y-77133033D01*
X113907245Y-77122754D01*
X113896967Y-77120000D01*
X112903033Y-77120000D01*
X112892754Y-77122754D01*
X112890000Y-77133033D01*
X112890000Y-77196599D01*
X112890423Y-77203053D01*
X112895529Y-77241843D01*
X112899721Y-77256224D01*
X112943531Y-77350173D01*
X112953314Y-77364146D01*
X113018810Y-77429642D01*
X113044433Y-77474023D01*
X113044433Y-77525269D01*
X113018810Y-77569650D01*
X112952898Y-77635561D01*
X112952895Y-77635564D01*
X112946776Y-77641684D01*
X112943116Y-77649531D01*
X112943115Y-77649534D01*
X112899230Y-77743644D01*
X112899228Y-77743650D01*
X112896028Y-77750513D01*
X112895039Y-77758018D01*
X112895038Y-77758025D01*
X112889923Y-77796885D01*
X112889500Y-77800099D01*
X112889500Y-77803338D01*
X112889500Y-77803339D01*
X112889500Y-78156657D01*
X112889500Y-78156672D01*
X112889501Y-78159900D01*
X112889923Y-78163110D01*
X112889924Y-78163117D01*
X112894595Y-78198601D01*
X112896028Y-78209487D01*
X112899229Y-78216353D01*
X112899230Y-78216354D01*
X112939006Y-78301653D01*
X112946776Y-78318316D01*
X112952898Y-78324438D01*
X112981705Y-78353245D01*
X113006921Y-78396152D01*
X113008073Y-78445907D01*
X112984871Y-78489936D01*
X112984151Y-78490726D01*
X112980990Y-78494037D01*
X112971063Y-78503964D01*
X112971054Y-78503974D01*
X112967826Y-78507203D01*
X112965240Y-78510975D01*
X112962321Y-78514492D01*
X112962178Y-78514373D01*
X112959257Y-78518033D01*
X112946261Y-78532290D01*
X112946259Y-78532292D01*
X112940084Y-78539067D01*
X112936772Y-78547613D01*
X112936770Y-78547618D01*
X112936529Y-78548241D01*
X112925898Y-78568409D01*
X112925530Y-78568946D01*
X112925527Y-78568950D01*
X112920344Y-78576519D01*
X112918244Y-78585446D01*
X112918242Y-78585451D01*
X112913830Y-78604207D01*
X112909777Y-78617295D01*
X112902813Y-78635271D01*
X112902811Y-78635278D01*
X112899500Y-78643827D01*
X112899500Y-78652999D01*
X112899500Y-78653652D01*
X112896870Y-78676318D01*
X112896721Y-78676950D01*
X112896720Y-78676953D01*
X112894621Y-78685881D01*
X112897564Y-78706978D01*
X112898551Y-78714053D01*
X112899500Y-78727731D01*
X112899500Y-80846802D01*
X112899134Y-80852074D01*
X112897227Y-80857765D01*
X112897650Y-80866927D01*
X112897650Y-80866932D01*
X112899394Y-80904642D01*
X112899500Y-80909214D01*
X112899500Y-80927844D01*
X112900342Y-80932351D01*
X112900764Y-80936899D01*
X112900566Y-80936917D01*
X112901101Y-80941576D01*
X112902415Y-80969992D01*
X112906385Y-80978984D01*
X112913132Y-81000772D01*
X112914939Y-81010433D01*
X112919766Y-81018230D01*
X112919767Y-81018231D01*
X112929911Y-81034615D01*
X112936300Y-81046736D01*
X112947794Y-81072765D01*
X112954278Y-81079249D01*
X112954743Y-81079714D01*
X112968908Y-81097598D01*
X112974081Y-81105952D01*
X112981403Y-81111481D01*
X112996772Y-81123087D01*
X113007116Y-81132087D01*
X113799899Y-81924871D01*
X113803367Y-81928857D01*
X113806042Y-81934228D01*
X113840713Y-81965835D01*
X113844020Y-81968992D01*
X113857203Y-81982175D01*
X113860976Y-81984759D01*
X113864501Y-81987686D01*
X113864370Y-81987843D01*
X113868051Y-81990757D01*
X113882286Y-82003735D01*
X113882288Y-82003736D01*
X113889067Y-82009916D01*
X113898228Y-82013464D01*
X113918418Y-82024107D01*
X113918949Y-82024471D01*
X113918950Y-82024471D01*
X113926520Y-82029657D01*
X113954204Y-82036167D01*
X113967295Y-82040220D01*
X113993827Y-82050500D01*
X114003654Y-82050500D01*
X114026319Y-82053129D01*
X114035882Y-82055379D01*
X114064055Y-82051449D01*
X114077733Y-82050500D01*
X114285521Y-82050500D01*
X114340522Y-82067185D01*
X114376985Y-82111614D01*
X114382619Y-82168814D01*
X114355524Y-82219504D01*
X113625130Y-82949896D01*
X113621139Y-82953368D01*
X113615772Y-82956042D01*
X113609595Y-82962817D01*
X113609593Y-82962819D01*
X113584141Y-82990737D01*
X113580990Y-82994037D01*
X113571063Y-83003964D01*
X113571054Y-83003974D01*
X113567826Y-83007203D01*
X113565240Y-83010975D01*
X113562321Y-83014492D01*
X113562178Y-83014373D01*
X113559257Y-83018033D01*
X113546261Y-83032290D01*
X113546259Y-83032292D01*
X113540084Y-83039067D01*
X113536772Y-83047613D01*
X113536770Y-83047618D01*
X113536529Y-83048241D01*
X113525898Y-83068409D01*
X113525530Y-83068946D01*
X113525527Y-83068950D01*
X113520344Y-83076519D01*
X113518244Y-83085446D01*
X113518242Y-83085451D01*
X113513830Y-83104207D01*
X113509777Y-83117295D01*
X113502813Y-83135271D01*
X113502811Y-83135278D01*
X113499500Y-83143827D01*
X113499500Y-83152999D01*
X113499500Y-83153652D01*
X113496870Y-83176318D01*
X113496721Y-83176950D01*
X113496720Y-83176953D01*
X113494621Y-83185881D01*
X113495887Y-83194963D01*
X113495888Y-83194963D01*
X113498551Y-83214053D01*
X113499500Y-83227731D01*
X113499500Y-84459521D01*
X113491964Y-84497407D01*
X113470504Y-84529525D01*
X113454278Y-84545750D01*
X113454275Y-84545753D01*
X113447794Y-84552235D01*
X113444091Y-84560620D01*
X113444089Y-84560624D01*
X113405422Y-84648197D01*
X113405420Y-84648201D01*
X113402415Y-84655009D01*
X113401557Y-84662404D01*
X113401556Y-84662408D01*
X113399830Y-84677285D01*
X113399829Y-84677296D01*
X113399500Y-84680135D01*
X113399500Y-84682998D01*
X113399500Y-84682999D01*
X113399500Y-86042008D01*
X113399500Y-86042025D01*
X113399501Y-86044864D01*
X113399828Y-86047685D01*
X113399829Y-86047699D01*
X113399870Y-86048050D01*
X113402415Y-86069991D01*
X113405422Y-86076801D01*
X113443962Y-86164088D01*
X113447794Y-86172765D01*
X113527235Y-86252206D01*
X113630009Y-86297585D01*
X113655135Y-86300500D01*
X113944864Y-86300499D01*
X113969991Y-86297585D01*
X114072765Y-86252206D01*
X114073704Y-86251266D01*
X114125000Y-86235381D01*
X114176295Y-86251266D01*
X114177235Y-86252206D01*
X114280009Y-86297585D01*
X114305135Y-86300500D01*
X114594864Y-86300499D01*
X114619991Y-86297585D01*
X114722765Y-86252206D01*
X114723704Y-86251266D01*
X114775000Y-86235381D01*
X114826295Y-86251266D01*
X114827235Y-86252206D01*
X114930009Y-86297585D01*
X114955135Y-86300500D01*
X115244864Y-86300499D01*
X115269991Y-86297585D01*
X115372765Y-86252206D01*
X115373704Y-86251266D01*
X115425000Y-86235381D01*
X115476295Y-86251266D01*
X115477235Y-86252206D01*
X115580009Y-86297585D01*
X115605135Y-86300500D01*
X115894864Y-86300499D01*
X115919991Y-86297585D01*
X116022765Y-86252206D01*
X116023704Y-86251266D01*
X116075000Y-86235381D01*
X116126295Y-86251266D01*
X116127235Y-86252206D01*
X116230009Y-86297585D01*
X116255135Y-86300500D01*
X116544864Y-86300499D01*
X116569991Y-86297585D01*
X116672765Y-86252206D01*
X116673704Y-86251266D01*
X116725000Y-86235381D01*
X116776295Y-86251266D01*
X116777235Y-86252206D01*
X116880009Y-86297585D01*
X116905135Y-86300500D01*
X117194864Y-86300499D01*
X117219991Y-86297585D01*
X117322765Y-86252206D01*
X117323949Y-86251021D01*
X117375448Y-86235073D01*
X117431400Y-86252400D01*
X117435913Y-86255492D01*
X117523312Y-86294082D01*
X117537524Y-86297948D01*
X117552358Y-86299669D01*
X117558072Y-86300000D01*
X117586967Y-86300000D01*
X117597245Y-86297245D01*
X117600000Y-86286967D01*
X117600000Y-86286966D01*
X117800000Y-86286966D01*
X117802754Y-86297244D01*
X117813033Y-86299999D01*
X117841937Y-86299999D01*
X117847627Y-86299670D01*
X117862479Y-86297947D01*
X117876685Y-86294082D01*
X117964088Y-86255491D01*
X117978962Y-86245302D01*
X118045302Y-86178962D01*
X118055491Y-86164088D01*
X118094082Y-86076687D01*
X118097948Y-86062475D01*
X118099669Y-86047641D01*
X118100000Y-86041928D01*
X118100000Y-85475533D01*
X118097245Y-85465254D01*
X118086967Y-85462500D01*
X117813033Y-85462500D01*
X117802754Y-85465254D01*
X117800000Y-85475533D01*
X117800000Y-86286966D01*
X117600000Y-86286966D01*
X117600000Y-85249467D01*
X117800000Y-85249467D01*
X117802754Y-85259745D01*
X117813033Y-85262500D01*
X118086966Y-85262500D01*
X118097244Y-85259745D01*
X118099999Y-85249467D01*
X118099999Y-84683063D01*
X118099670Y-84677372D01*
X118097947Y-84662520D01*
X118094082Y-84648314D01*
X118055491Y-84560911D01*
X118045302Y-84546037D01*
X117978962Y-84479697D01*
X117964088Y-84469508D01*
X117876687Y-84430917D01*
X117862475Y-84427051D01*
X117847641Y-84425330D01*
X117841928Y-84425000D01*
X117813033Y-84425000D01*
X117802754Y-84427754D01*
X117800000Y-84438033D01*
X117800000Y-85249467D01*
X117600000Y-85249467D01*
X117600000Y-84438034D01*
X117596975Y-84426747D01*
X117580640Y-84410412D01*
X117575118Y-84407157D01*
X117549888Y-84360605D01*
X117552256Y-84307709D01*
X117579890Y-84266093D01*
X117581128Y-84265298D01*
X117675377Y-84156528D01*
X117735165Y-84025612D01*
X117755647Y-83883155D01*
X117735165Y-83740698D01*
X117712296Y-83690623D01*
X117703603Y-83642437D01*
X117719067Y-83595976D01*
X117754905Y-83562610D01*
X117802351Y-83550500D01*
X118334521Y-83550500D01*
X118372407Y-83558036D01*
X118404525Y-83579496D01*
X118420504Y-83595475D01*
X118441964Y-83627593D01*
X118449500Y-83665479D01*
X118449500Y-84706802D01*
X118449134Y-84712074D01*
X118447227Y-84717765D01*
X118447650Y-84726927D01*
X118447650Y-84726932D01*
X118449394Y-84764642D01*
X118449500Y-84769214D01*
X118449500Y-84787844D01*
X118450342Y-84792351D01*
X118450764Y-84796899D01*
X118450566Y-84796917D01*
X118451101Y-84801576D01*
X118451991Y-84820824D01*
X118452415Y-84829992D01*
X118456385Y-84838984D01*
X118463132Y-84860772D01*
X118464939Y-84870433D01*
X118469766Y-84878230D01*
X118469767Y-84878231D01*
X118479911Y-84894615D01*
X118486300Y-84906736D01*
X118497794Y-84932765D01*
X118504278Y-84939249D01*
X118504743Y-84939714D01*
X118518908Y-84957598D01*
X118524081Y-84965952D01*
X118542022Y-84979500D01*
X118546772Y-84983087D01*
X118557116Y-84992087D01*
X118990504Y-85425475D01*
X119011964Y-85457593D01*
X119019500Y-85495479D01*
X119019500Y-85724316D01*
X119019923Y-85727529D01*
X119024942Y-85765660D01*
X119024943Y-85765665D01*
X119025932Y-85773173D01*
X119029132Y-85780037D01*
X119029134Y-85780041D01*
X119050299Y-85825428D01*
X119075935Y-85880404D01*
X119159596Y-85964065D01*
X119266827Y-86014068D01*
X119315684Y-86020500D01*
X119661075Y-86020500D01*
X119664316Y-86020500D01*
X119713173Y-86014068D01*
X119820404Y-85964065D01*
X119904065Y-85880404D01*
X119910276Y-85867083D01*
X119946807Y-85825428D01*
X120000000Y-85809923D01*
X120053193Y-85825428D01*
X120089723Y-85867083D01*
X120095935Y-85880404D01*
X120179596Y-85964065D01*
X120286827Y-86014068D01*
X120335684Y-86020500D01*
X120681075Y-86020500D01*
X120684316Y-86020500D01*
X120733173Y-86014068D01*
X120840404Y-85964065D01*
X120924065Y-85880404D01*
X120934670Y-85857660D01*
X120971201Y-85816004D01*
X121024394Y-85800500D01*
X123334521Y-85800500D01*
X123372407Y-85808036D01*
X123404525Y-85829496D01*
X123920504Y-86345475D01*
X123941964Y-86377593D01*
X123949500Y-86415479D01*
X123949500Y-86931802D01*
X123949134Y-86937074D01*
X123947227Y-86942765D01*
X123947650Y-86951927D01*
X123947650Y-86951932D01*
X123949394Y-86989642D01*
X123949500Y-86994214D01*
X123949500Y-87012844D01*
X123950342Y-87017351D01*
X123950764Y-87021899D01*
X123950566Y-87021917D01*
X123951101Y-87026576D01*
X123952415Y-87054992D01*
X123956385Y-87063984D01*
X123963132Y-87085772D01*
X123964939Y-87095433D01*
X123969766Y-87103230D01*
X123969767Y-87103231D01*
X123979911Y-87119615D01*
X123986300Y-87131736D01*
X123997794Y-87157765D01*
X124004278Y-87164249D01*
X124004743Y-87164714D01*
X124018908Y-87182598D01*
X124024081Y-87190952D01*
X124031403Y-87196481D01*
X124046772Y-87208087D01*
X124057116Y-87217087D01*
X124490504Y-87650475D01*
X124511964Y-87682593D01*
X124519500Y-87720479D01*
X124519500Y-87955528D01*
X124520014Y-87959059D01*
X124520015Y-87959066D01*
X124528246Y-88015564D01*
X124528247Y-88015569D01*
X124529355Y-88023170D01*
X124532728Y-88030071D01*
X124532730Y-88030075D01*
X124576761Y-88120142D01*
X124576762Y-88120144D01*
X124580364Y-88127511D01*
X124662489Y-88209636D01*
X124766830Y-88260645D01*
X124834472Y-88270500D01*
X125191950Y-88270500D01*
X125195528Y-88270500D01*
X125263170Y-88260645D01*
X125367511Y-88209636D01*
X125429996Y-88147150D01*
X125474377Y-88121528D01*
X125525623Y-88121528D01*
X125570003Y-88147150D01*
X125632489Y-88209636D01*
X125736830Y-88260645D01*
X125804472Y-88270500D01*
X126161950Y-88270500D01*
X126165528Y-88270500D01*
X126233170Y-88260645D01*
X126337511Y-88209636D01*
X126419636Y-88127511D01*
X126470645Y-88023170D01*
X126480500Y-87955528D01*
X126480500Y-87544472D01*
X126470645Y-87476830D01*
X126419636Y-87372489D01*
X126337511Y-87290364D01*
X126330141Y-87286761D01*
X126326977Y-87284502D01*
X126296478Y-87249240D01*
X126285500Y-87203929D01*
X126285500Y-86796071D01*
X126296478Y-86750760D01*
X126326977Y-86715498D01*
X126330140Y-86713239D01*
X126337511Y-86709636D01*
X126419636Y-86627511D01*
X126470645Y-86523170D01*
X126480500Y-86455528D01*
X126480500Y-86044472D01*
X126470645Y-85976830D01*
X126419636Y-85872489D01*
X126337511Y-85790364D01*
X126330141Y-85786761D01*
X126326977Y-85784502D01*
X126296478Y-85749240D01*
X126285500Y-85703929D01*
X126285500Y-84930479D01*
X126293036Y-84892593D01*
X126314496Y-84860476D01*
X126924867Y-84250103D01*
X126928855Y-84246632D01*
X126934228Y-84243958D01*
X126965878Y-84209238D01*
X126968996Y-84205973D01*
X126982174Y-84192797D01*
X126984762Y-84189017D01*
X126987688Y-84185495D01*
X126987858Y-84185636D01*
X126990749Y-84181957D01*
X127009916Y-84160933D01*
X127013465Y-84151770D01*
X127024108Y-84131580D01*
X127024472Y-84131048D01*
X127029656Y-84123481D01*
X127036166Y-84095798D01*
X127040222Y-84082701D01*
X127050500Y-84056173D01*
X127050500Y-84046348D01*
X127053130Y-84023682D01*
X127053185Y-84023446D01*
X127055379Y-84014119D01*
X127051448Y-83985946D01*
X127050500Y-83972269D01*
X127050500Y-75546347D01*
X127053130Y-75523681D01*
X127053217Y-75523311D01*
X127055379Y-75514119D01*
X127051448Y-75485946D01*
X127050500Y-75472269D01*
X127050500Y-73068198D01*
X127050865Y-73062925D01*
X127052773Y-73057235D01*
X127050606Y-73010358D01*
X127050500Y-73005786D01*
X127050500Y-72991737D01*
X127050500Y-72987156D01*
X127049657Y-72982651D01*
X127049235Y-72978096D01*
X127049446Y-72978076D01*
X127048898Y-72973431D01*
X127047585Y-72945008D01*
X127043613Y-72936013D01*
X127036865Y-72914219D01*
X127035061Y-72904567D01*
X127026982Y-72891519D01*
X127020091Y-72880389D01*
X127013698Y-72868261D01*
X127005910Y-72850623D01*
X127002206Y-72842234D01*
X126995255Y-72835283D01*
X126981086Y-72817394D01*
X126975919Y-72809048D01*
X126968596Y-72803518D01*
X126968595Y-72803517D01*
X126953227Y-72791912D01*
X126942883Y-72782912D01*
X126509496Y-72349525D01*
X126488036Y-72317407D01*
X126480500Y-72279521D01*
X126480500Y-72048050D01*
X126480500Y-72044472D01*
X126470645Y-71976830D01*
X126419636Y-71872489D01*
X126337511Y-71790364D01*
X126330144Y-71786762D01*
X126330142Y-71786761D01*
X126240075Y-71742730D01*
X126240071Y-71742728D01*
X126233170Y-71739355D01*
X126225569Y-71738247D01*
X126225564Y-71738246D01*
X126169066Y-71730015D01*
X126169059Y-71730014D01*
X126165528Y-71729500D01*
X125804472Y-71729500D01*
X125800941Y-71730014D01*
X125800933Y-71730015D01*
X125744435Y-71738246D01*
X125744428Y-71738247D01*
X125736830Y-71739355D01*
X125729930Y-71742728D01*
X125729924Y-71742730D01*
X125639857Y-71786761D01*
X125639852Y-71786764D01*
X125632489Y-71790364D01*
X125626693Y-71796159D01*
X125626690Y-71796162D01*
X125570004Y-71852849D01*
X125525623Y-71878472D01*
X125474377Y-71878472D01*
X125429996Y-71852849D01*
X125373309Y-71796162D01*
X125367511Y-71790364D01*
X125360144Y-71786762D01*
X125360142Y-71786761D01*
X125270075Y-71742730D01*
X125270071Y-71742728D01*
X125263170Y-71739355D01*
X125255569Y-71738247D01*
X125255564Y-71738246D01*
X125199066Y-71730015D01*
X125199059Y-71730014D01*
X125195528Y-71729500D01*
X124834472Y-71729500D01*
X124830941Y-71730014D01*
X124830933Y-71730015D01*
X124774435Y-71738246D01*
X124774428Y-71738247D01*
X124766830Y-71739355D01*
X124759930Y-71742728D01*
X124759924Y-71742730D01*
X124669857Y-71786761D01*
X124669852Y-71786764D01*
X124662489Y-71790364D01*
X124656693Y-71796159D01*
X124656690Y-71796162D01*
X124586162Y-71866690D01*
X124586159Y-71866693D01*
X124580364Y-71872489D01*
X124576764Y-71879852D01*
X124576761Y-71879857D01*
X124532730Y-71969924D01*
X124532728Y-71969930D01*
X124529355Y-71976830D01*
X124528247Y-71984428D01*
X124528246Y-71984435D01*
X124520015Y-72040933D01*
X124520014Y-72040941D01*
X124519500Y-72044472D01*
X124519500Y-72048050D01*
X124519500Y-72279520D01*
X124511964Y-72317406D01*
X124490503Y-72349524D01*
X124075130Y-72764896D01*
X124071139Y-72768368D01*
X124065772Y-72771042D01*
X124059595Y-72777817D01*
X124059593Y-72777819D01*
X124034141Y-72805737D01*
X124030990Y-72809037D01*
X124021063Y-72818964D01*
X124021054Y-72818974D01*
X124017826Y-72822203D01*
X124015240Y-72825975D01*
X124012321Y-72829492D01*
X124012178Y-72829373D01*
X124009257Y-72833033D01*
X123996261Y-72847290D01*
X123996259Y-72847292D01*
X123990084Y-72854067D01*
X123986772Y-72862613D01*
X123986770Y-72862618D01*
X123986529Y-72863241D01*
X123975898Y-72883409D01*
X123975530Y-72883946D01*
X123975527Y-72883950D01*
X123970344Y-72891519D01*
X123968244Y-72900446D01*
X123968242Y-72900451D01*
X123963830Y-72919207D01*
X123959777Y-72932295D01*
X123952813Y-72950271D01*
X123952811Y-72950278D01*
X123949500Y-72958827D01*
X123949500Y-72967999D01*
X123949500Y-72968652D01*
X123946870Y-72991318D01*
X123946721Y-72991950D01*
X123946720Y-72991953D01*
X123944621Y-73000881D01*
X123945887Y-73009963D01*
X123945888Y-73009963D01*
X123948551Y-73029053D01*
X123949500Y-73042731D01*
X123949500Y-73584521D01*
X123941964Y-73622407D01*
X123920504Y-73654525D01*
X123404525Y-74170504D01*
X123372407Y-74191964D01*
X123334521Y-74199500D01*
X121024394Y-74199500D01*
X120971201Y-74183996D01*
X120934670Y-74142339D01*
X120924065Y-74119596D01*
X120840404Y-74035935D01*
X120815858Y-74024489D01*
X120740041Y-73989134D01*
X120740037Y-73989132D01*
X120733173Y-73985932D01*
X120725665Y-73984943D01*
X120725660Y-73984942D01*
X120687529Y-73979923D01*
X120684316Y-73979500D01*
X120335684Y-73979500D01*
X120332471Y-73979922D01*
X120332470Y-73979923D01*
X120294339Y-73984942D01*
X120294332Y-73984943D01*
X120286827Y-73985932D01*
X120279964Y-73989132D01*
X120279958Y-73989134D01*
X120187446Y-74032274D01*
X120187444Y-74032275D01*
X120179596Y-74035935D01*
X120173476Y-74042054D01*
X120173473Y-74042057D01*
X120102057Y-74113473D01*
X120102054Y-74113476D01*
X120095935Y-74119596D01*
X120092276Y-74127442D01*
X120092275Y-74127444D01*
X120089447Y-74133510D01*
X120052915Y-74175164D01*
X119999723Y-74190667D01*
X119946532Y-74175163D01*
X119910000Y-74133508D01*
X119907308Y-74127736D01*
X119897525Y-74113764D01*
X119826235Y-74042474D01*
X119812262Y-74032690D01*
X119719909Y-73989625D01*
X119705529Y-73985433D01*
X119667468Y-73980423D01*
X119661014Y-73980000D01*
X119603033Y-73980000D01*
X119592754Y-73982754D01*
X119590000Y-73993033D01*
X119590000Y-75006966D01*
X119592754Y-75017244D01*
X119603033Y-75019999D01*
X119661012Y-75019999D01*
X119667470Y-75019575D01*
X119705531Y-75014565D01*
X119719906Y-75010375D01*
X119812262Y-74967309D01*
X119826235Y-74957525D01*
X119897525Y-74886235D01*
X119907307Y-74872264D01*
X119909999Y-74866493D01*
X119946531Y-74824837D01*
X119999723Y-74809332D01*
X120052916Y-74824836D01*
X120089447Y-74866491D01*
X120095935Y-74880404D01*
X120179596Y-74964065D01*
X120286827Y-75014068D01*
X120335684Y-75020500D01*
X120338925Y-75020500D01*
X120575522Y-75020500D01*
X120630523Y-75037185D01*
X120666986Y-75081614D01*
X120672620Y-75138814D01*
X120645527Y-75189501D01*
X120634522Y-75200506D01*
X120602408Y-75221964D01*
X120564522Y-75229500D01*
X120335684Y-75229500D01*
X120332471Y-75229922D01*
X120332470Y-75229923D01*
X120294339Y-75234942D01*
X120294332Y-75234943D01*
X120286827Y-75235932D01*
X120279964Y-75239132D01*
X120279958Y-75239134D01*
X120187446Y-75282274D01*
X120187444Y-75282275D01*
X120179596Y-75285935D01*
X120173476Y-75292054D01*
X120173473Y-75292057D01*
X120102057Y-75363473D01*
X120102054Y-75363476D01*
X120095935Y-75369596D01*
X120092276Y-75377442D01*
X120092275Y-75377444D01*
X120089447Y-75383510D01*
X120052915Y-75425164D01*
X119999723Y-75440667D01*
X119946532Y-75425163D01*
X119910000Y-75383508D01*
X119907308Y-75377736D01*
X119897525Y-75363764D01*
X119826235Y-75292474D01*
X119812262Y-75282690D01*
X119719909Y-75239625D01*
X119705529Y-75235433D01*
X119667468Y-75230423D01*
X119661014Y-75230000D01*
X119603033Y-75230000D01*
X119592754Y-75232754D01*
X119590000Y-75243033D01*
X119590000Y-75751000D01*
X119576737Y-75800500D01*
X119540500Y-75836737D01*
X119491000Y-75850000D01*
X119033034Y-75850000D01*
X119022755Y-75852754D01*
X119020001Y-75863033D01*
X119020001Y-75971012D01*
X119020424Y-75977470D01*
X119025434Y-76015531D01*
X119029624Y-76029906D01*
X119072690Y-76122262D01*
X119082474Y-76136235D01*
X119087981Y-76141742D01*
X119113987Y-76187598D01*
X119112770Y-76240300D01*
X119092315Y-76272775D01*
X119094046Y-76274083D01*
X119076906Y-76296778D01*
X119067909Y-76307117D01*
X118904524Y-76470503D01*
X118872406Y-76491964D01*
X118834520Y-76499500D01*
X118728039Y-76499500D01*
X118721248Y-76501493D01*
X118721247Y-76501494D01*
X118596740Y-76538052D01*
X118596737Y-76538053D01*
X118589947Y-76540047D01*
X118583994Y-76543872D01*
X118583989Y-76543875D01*
X118486196Y-76606723D01*
X118430710Y-76622420D01*
X118375891Y-76604536D01*
X118360174Y-76593531D01*
X118266224Y-76549721D01*
X118251843Y-76545529D01*
X118213053Y-76540423D01*
X118206599Y-76540000D01*
X118113033Y-76540000D01*
X118102754Y-76542754D01*
X118100000Y-76553033D01*
X118100000Y-77021000D01*
X118086737Y-77070500D01*
X118050500Y-77106737D01*
X118001000Y-77120000D01*
X117503033Y-77120000D01*
X117492754Y-77122754D01*
X117490000Y-77133033D01*
X117490000Y-77196599D01*
X117490423Y-77203053D01*
X117495529Y-77241843D01*
X117499721Y-77256224D01*
X117543531Y-77350173D01*
X117553314Y-77364146D01*
X117618810Y-77429642D01*
X117644433Y-77474023D01*
X117644433Y-77525269D01*
X117618810Y-77569650D01*
X117552898Y-77635561D01*
X117552895Y-77635564D01*
X117546776Y-77641684D01*
X117543116Y-77649531D01*
X117543115Y-77649534D01*
X117499230Y-77743644D01*
X117499228Y-77743650D01*
X117496028Y-77750513D01*
X117495039Y-77758018D01*
X117495038Y-77758025D01*
X117489923Y-77796885D01*
X117489500Y-77800099D01*
X117489500Y-77803338D01*
X117489500Y-77803339D01*
X117489500Y-78156657D01*
X117489500Y-78156672D01*
X117489501Y-78159900D01*
X117489923Y-78163110D01*
X117489924Y-78163117D01*
X117494595Y-78198601D01*
X117496028Y-78209487D01*
X117499229Y-78216353D01*
X117499230Y-78216354D01*
X117539006Y-78301653D01*
X117546776Y-78318316D01*
X117552898Y-78324438D01*
X117581740Y-78353280D01*
X117607363Y-78397661D01*
X117607363Y-78448908D01*
X117581739Y-78493288D01*
X117525130Y-78549896D01*
X117521139Y-78553368D01*
X117515772Y-78556042D01*
X117509595Y-78562817D01*
X117509593Y-78562819D01*
X117484141Y-78590737D01*
X117480990Y-78594037D01*
X117471063Y-78603964D01*
X117471054Y-78603974D01*
X117467826Y-78607203D01*
X117465240Y-78610975D01*
X117462321Y-78614492D01*
X117462178Y-78614373D01*
X117459257Y-78618033D01*
X117446261Y-78632290D01*
X117446259Y-78632292D01*
X117440084Y-78639067D01*
X117436772Y-78647613D01*
X117436770Y-78647618D01*
X117436529Y-78648241D01*
X117425898Y-78668409D01*
X117425527Y-78668950D01*
X117425524Y-78668955D01*
X117420344Y-78676519D01*
X117418710Y-78683462D01*
X117387488Y-78722262D01*
X117339703Y-78740773D01*
X117289065Y-78732913D01*
X117226805Y-78705423D01*
X117226801Y-78705421D01*
X117219991Y-78702415D01*
X117212594Y-78701556D01*
X117212591Y-78701556D01*
X117197714Y-78699830D01*
X117197704Y-78699829D01*
X117194865Y-78699500D01*
X117192000Y-78699500D01*
X116907991Y-78699500D01*
X116907973Y-78699500D01*
X116905136Y-78699501D01*
X116902315Y-78699828D01*
X116902300Y-78699829D01*
X116887404Y-78701557D01*
X116887401Y-78701557D01*
X116880009Y-78702415D01*
X116873204Y-78705419D01*
X116873195Y-78705422D01*
X116839489Y-78720306D01*
X116791505Y-78728419D01*
X116745453Y-78712687D01*
X116712461Y-78676914D01*
X116700500Y-78629742D01*
X116700500Y-78626737D01*
X116700500Y-78622156D01*
X116699657Y-78617651D01*
X116699235Y-78613096D01*
X116699446Y-78613076D01*
X116698898Y-78608431D01*
X116697585Y-78580008D01*
X116693615Y-78571017D01*
X116686866Y-78549223D01*
X116685061Y-78539567D01*
X116670088Y-78515384D01*
X116663696Y-78503257D01*
X116657814Y-78489936D01*
X116652206Y-78477235D01*
X116645257Y-78470286D01*
X116631089Y-78452398D01*
X116630748Y-78451848D01*
X116625919Y-78444048D01*
X116618599Y-78438520D01*
X116618598Y-78438519D01*
X116603222Y-78426908D01*
X116592879Y-78417908D01*
X116500102Y-78325131D01*
X116496632Y-78321143D01*
X116493958Y-78315772D01*
X116487178Y-78309591D01*
X116481649Y-78302269D01*
X116482341Y-78301746D01*
X116471831Y-78285173D01*
X116450494Y-78272854D01*
X116449555Y-78273986D01*
X116446029Y-78271058D01*
X116442797Y-78267826D01*
X116439023Y-78265240D01*
X116435505Y-78262319D01*
X116435633Y-78262164D01*
X116431954Y-78259247D01*
X116424465Y-78252420D01*
X116396151Y-78207083D01*
X116395534Y-78153634D01*
X116400000Y-78136968D01*
X116600000Y-78136968D01*
X116602753Y-78147245D01*
X116608370Y-78148750D01*
X116672735Y-78135947D01*
X116690409Y-78128626D01*
X116765154Y-78078682D01*
X116778682Y-78065154D01*
X116828626Y-77990409D01*
X116835947Y-77972735D01*
X116849052Y-77906851D01*
X116850000Y-77897230D01*
X116850000Y-77663033D01*
X116847245Y-77652754D01*
X116836967Y-77650000D01*
X116613033Y-77650000D01*
X116602754Y-77652754D01*
X116600000Y-77663033D01*
X116600000Y-78136968D01*
X116400000Y-78136968D01*
X116400000Y-78136967D01*
X116400000Y-77549000D01*
X116413263Y-77499500D01*
X116449500Y-77463263D01*
X116499000Y-77450000D01*
X116836967Y-77450000D01*
X116847245Y-77447245D01*
X116850000Y-77436967D01*
X116850000Y-77202770D01*
X116849052Y-77193148D01*
X116835947Y-77127264D01*
X116828626Y-77109590D01*
X116778682Y-77034845D01*
X116767420Y-77023583D01*
X116741414Y-76977725D01*
X116742633Y-76925020D01*
X116754005Y-76906967D01*
X117490000Y-76906967D01*
X117492754Y-76917245D01*
X117503033Y-76920000D01*
X117886967Y-76920000D01*
X117897245Y-76917245D01*
X117900000Y-76906967D01*
X117900000Y-76553033D01*
X117897245Y-76542754D01*
X117886967Y-76540000D01*
X117793401Y-76540000D01*
X117786946Y-76540423D01*
X117748156Y-76545529D01*
X117733775Y-76549721D01*
X117639826Y-76593531D01*
X117625853Y-76603314D01*
X117553314Y-76675853D01*
X117543531Y-76689826D01*
X117499721Y-76783775D01*
X117495529Y-76798156D01*
X117490423Y-76836946D01*
X117490000Y-76843401D01*
X117490000Y-76906967D01*
X116754005Y-76906967D01*
X116767891Y-76884922D01*
X116769133Y-76884154D01*
X116786277Y-76861450D01*
X116795263Y-76851122D01*
X117274874Y-76371511D01*
X117278853Y-76368049D01*
X117284228Y-76365374D01*
X117315878Y-76330654D01*
X117318996Y-76327389D01*
X117332174Y-76314213D01*
X117334762Y-76310433D01*
X117337688Y-76306911D01*
X117337858Y-76307052D01*
X117340749Y-76303373D01*
X117359916Y-76282349D01*
X117363463Y-76273190D01*
X117374107Y-76252997D01*
X117379657Y-76244896D01*
X117386171Y-76217198D01*
X117390218Y-76204128D01*
X117400500Y-76177589D01*
X117400500Y-76167763D01*
X117403130Y-76145097D01*
X117405379Y-76135535D01*
X117401448Y-76107362D01*
X117400500Y-76093685D01*
X117400500Y-75965479D01*
X117408036Y-75927593D01*
X117429496Y-75895475D01*
X117440247Y-75884724D01*
X117484628Y-75859101D01*
X117535874Y-75859101D01*
X117580255Y-75884724D01*
X117619596Y-75924065D01*
X117726827Y-75974068D01*
X117775684Y-75980500D01*
X118221075Y-75980500D01*
X118224316Y-75980500D01*
X118273173Y-75974068D01*
X118380404Y-75924065D01*
X118464065Y-75840404D01*
X118514068Y-75733173D01*
X118520500Y-75684316D01*
X118520500Y-75636967D01*
X119020000Y-75636967D01*
X119022754Y-75647245D01*
X119033033Y-75650000D01*
X119376967Y-75650000D01*
X119387245Y-75647245D01*
X119390000Y-75636967D01*
X119390000Y-75243034D01*
X119387245Y-75232755D01*
X119376967Y-75230001D01*
X119318988Y-75230001D01*
X119312529Y-75230424D01*
X119274468Y-75235434D01*
X119260093Y-75239624D01*
X119167737Y-75282690D01*
X119153764Y-75292474D01*
X119082474Y-75363764D01*
X119072690Y-75377737D01*
X119029625Y-75470090D01*
X119025433Y-75484470D01*
X119020423Y-75522531D01*
X119020000Y-75528986D01*
X119020000Y-75636967D01*
X118520500Y-75636967D01*
X118520500Y-75335684D01*
X118514068Y-75286827D01*
X118464065Y-75179596D01*
X118380404Y-75095935D01*
X118367083Y-75089723D01*
X118325428Y-75053193D01*
X118309923Y-75000000D01*
X118325428Y-74946807D01*
X118367083Y-74910276D01*
X118380404Y-74904065D01*
X118464065Y-74820404D01*
X118510413Y-74721012D01*
X119020001Y-74721012D01*
X119020424Y-74727470D01*
X119025434Y-74765531D01*
X119029624Y-74779906D01*
X119072690Y-74872262D01*
X119082474Y-74886235D01*
X119153764Y-74957525D01*
X119167737Y-74967309D01*
X119260090Y-75010374D01*
X119274470Y-75014566D01*
X119312531Y-75019576D01*
X119318986Y-75020000D01*
X119376967Y-75020000D01*
X119387245Y-75017245D01*
X119390000Y-75006967D01*
X119390000Y-74613033D01*
X119387245Y-74602754D01*
X119376967Y-74600000D01*
X119033034Y-74600000D01*
X119022755Y-74602754D01*
X119020001Y-74613033D01*
X119020001Y-74721012D01*
X118510413Y-74721012D01*
X118514068Y-74713173D01*
X118520500Y-74664316D01*
X118520500Y-74386967D01*
X119020000Y-74386967D01*
X119022754Y-74397245D01*
X119033033Y-74400000D01*
X119376967Y-74400000D01*
X119387245Y-74397245D01*
X119390000Y-74386967D01*
X119390000Y-73993034D01*
X119387245Y-73982755D01*
X119376967Y-73980001D01*
X119318988Y-73980001D01*
X119312529Y-73980424D01*
X119274468Y-73985434D01*
X119260093Y-73989624D01*
X119167737Y-74032690D01*
X119153764Y-74042474D01*
X119082474Y-74113764D01*
X119072690Y-74127737D01*
X119029625Y-74220090D01*
X119025433Y-74234470D01*
X119020423Y-74272531D01*
X119020000Y-74278986D01*
X119020000Y-74386967D01*
X118520500Y-74386967D01*
X118520500Y-74315684D01*
X118514068Y-74266827D01*
X118464065Y-74159596D01*
X118380404Y-74075935D01*
X118360006Y-74066423D01*
X118280041Y-74029134D01*
X118280037Y-74029132D01*
X118273173Y-74025932D01*
X118265665Y-74024943D01*
X118265660Y-74024942D01*
X118227529Y-74019923D01*
X118224316Y-74019500D01*
X117775684Y-74019500D01*
X117772471Y-74019922D01*
X117772470Y-74019923D01*
X117734339Y-74024942D01*
X117734332Y-74024943D01*
X117726827Y-74025932D01*
X117719964Y-74029132D01*
X117719958Y-74029134D01*
X117627446Y-74072274D01*
X117627444Y-74072275D01*
X117619596Y-74075935D01*
X117613476Y-74082054D01*
X117613473Y-74082057D01*
X117542057Y-74153473D01*
X117542054Y-74153476D01*
X117535935Y-74159596D01*
X117532275Y-74167444D01*
X117532274Y-74167446D01*
X117489134Y-74259958D01*
X117489132Y-74259964D01*
X117485932Y-74266827D01*
X117484943Y-74274332D01*
X117484942Y-74274339D01*
X117481631Y-74299496D01*
X117479500Y-74315684D01*
X117479500Y-74318925D01*
X117479500Y-74544522D01*
X117471963Y-74582410D01*
X117450499Y-74614530D01*
X117433565Y-74631462D01*
X117395942Y-74655010D01*
X117351811Y-74659754D01*
X117310045Y-74644739D01*
X117261953Y-74613833D01*
X117123861Y-74573286D01*
X116979939Y-74573286D01*
X116973147Y-74575280D01*
X116966137Y-74576288D01*
X116965773Y-74573760D01*
X116917109Y-74572596D01*
X116868853Y-74536465D01*
X116850499Y-74479044D01*
X116850499Y-74102728D01*
X116850499Y-74102725D01*
X116850499Y-74097868D01*
X116834515Y-74017505D01*
X116813418Y-73985932D01*
X116779042Y-73934485D01*
X116773624Y-73926376D01*
X116719967Y-73890523D01*
X116690604Y-73870903D01*
X116690602Y-73870902D01*
X116682495Y-73865485D01*
X116672931Y-73863582D01*
X116672930Y-73863582D01*
X116606896Y-73850447D01*
X116606891Y-73850446D01*
X116602133Y-73849500D01*
X116597274Y-73849500D01*
X116402727Y-73849500D01*
X116402717Y-73849500D01*
X116397868Y-73849501D01*
X116393112Y-73850446D01*
X116393101Y-73850448D01*
X116327066Y-73863583D01*
X116327064Y-73863583D01*
X116317505Y-73865485D01*
X116309404Y-73870897D01*
X116309394Y-73870902D01*
X116304997Y-73873841D01*
X116250000Y-73890523D01*
X116195003Y-73873841D01*
X116190606Y-73870903D01*
X116190599Y-73870900D01*
X116182495Y-73865485D01*
X116172935Y-73863583D01*
X116172932Y-73863582D01*
X116106896Y-73850447D01*
X116106891Y-73850446D01*
X116102133Y-73849500D01*
X116097274Y-73849500D01*
X115902727Y-73849500D01*
X115902717Y-73849500D01*
X115897868Y-73849501D01*
X115893112Y-73850446D01*
X115893101Y-73850448D01*
X115827066Y-73863583D01*
X115827064Y-73863583D01*
X115817505Y-73865485D01*
X115809404Y-73870897D01*
X115809394Y-73870902D01*
X115804997Y-73873841D01*
X115750000Y-73890523D01*
X115695003Y-73873841D01*
X115690606Y-73870903D01*
X115690599Y-73870900D01*
X115682495Y-73865485D01*
X115672935Y-73863583D01*
X115672932Y-73863582D01*
X115606896Y-73850447D01*
X115606891Y-73850446D01*
X115602133Y-73849500D01*
X115597274Y-73849500D01*
X115449225Y-73849500D01*
X115399499Y-73849500D01*
X115350000Y-73836238D01*
X115313764Y-73800001D01*
X115300500Y-73750501D01*
X115300500Y-73522179D01*
X115316859Y-73467668D01*
X115360528Y-73431172D01*
X115483592Y-73378472D01*
X115529813Y-73358679D01*
X115703865Y-73240877D01*
X115852477Y-73092265D01*
X115970279Y-72918213D01*
X116053013Y-72725012D01*
X116097688Y-72519645D01*
X116098744Y-72501911D01*
X116441758Y-72501911D01*
X116442583Y-72515762D01*
X116443624Y-72523324D01*
X116486462Y-72720250D01*
X116489322Y-72729196D01*
X116568306Y-72913642D01*
X116572800Y-72921872D01*
X116685266Y-73088039D01*
X116691242Y-73095277D01*
X116833122Y-73237157D01*
X116840360Y-73243133D01*
X117006527Y-73355599D01*
X117014757Y-73360093D01*
X117199203Y-73439077D01*
X117208149Y-73441937D01*
X117405071Y-73484774D01*
X117412640Y-73485816D01*
X117426491Y-73486642D01*
X117437089Y-73484358D01*
X117440000Y-73473913D01*
X117440000Y-73473912D01*
X117640000Y-73473912D01*
X117642909Y-73484356D01*
X117653511Y-73486641D01*
X117667362Y-73485816D01*
X117674924Y-73484775D01*
X117871850Y-73441937D01*
X117880796Y-73439077D01*
X118065242Y-73360093D01*
X118073472Y-73355599D01*
X118239639Y-73243133D01*
X118246877Y-73237157D01*
X118388757Y-73095277D01*
X118394733Y-73088039D01*
X118507199Y-72921872D01*
X118511693Y-72913642D01*
X118590677Y-72729196D01*
X118593537Y-72720250D01*
X118636374Y-72523328D01*
X118637416Y-72515759D01*
X118638242Y-72501908D01*
X118635958Y-72491310D01*
X118625513Y-72488400D01*
X117653033Y-72488400D01*
X117642754Y-72491154D01*
X117640000Y-72501433D01*
X117640000Y-73473912D01*
X117440000Y-73473912D01*
X117440000Y-72501433D01*
X117437245Y-72491154D01*
X117426967Y-72488400D01*
X116454488Y-72488400D01*
X116444043Y-72491309D01*
X116441758Y-72501911D01*
X116098744Y-72501911D01*
X116100500Y-72472438D01*
X116100500Y-72304362D01*
X116100500Y-72275367D01*
X116440000Y-72275367D01*
X116442754Y-72285645D01*
X116453033Y-72288400D01*
X118626967Y-72288400D01*
X118637245Y-72285645D01*
X118640000Y-72275367D01*
X118640000Y-71873033D01*
X118637245Y-71862754D01*
X118626967Y-71860000D01*
X116453033Y-71860000D01*
X116442754Y-71862754D01*
X116440000Y-71873033D01*
X116440000Y-72275367D01*
X116100500Y-72275367D01*
X116100500Y-71251900D01*
X116113763Y-71202400D01*
X116150000Y-71166163D01*
X116199500Y-71152900D01*
X116341000Y-71152900D01*
X116390500Y-71166163D01*
X116426737Y-71202400D01*
X116440000Y-71251900D01*
X116440000Y-71646967D01*
X116442754Y-71657245D01*
X116453033Y-71660000D01*
X118626967Y-71660000D01*
X118637245Y-71657245D01*
X118640000Y-71646967D01*
X118640000Y-71251900D01*
X118653263Y-71202400D01*
X118689500Y-71166163D01*
X118739000Y-71152900D01*
X118880500Y-71152900D01*
X118930000Y-71166163D01*
X118966237Y-71202400D01*
X118979500Y-71251900D01*
X118979500Y-72304362D01*
X118979500Y-72472438D01*
X118979585Y-72473869D01*
X118979586Y-72473894D01*
X118982081Y-72515762D01*
X118982312Y-72519645D01*
X118983125Y-72523386D01*
X118983126Y-72523387D01*
X119025985Y-72720410D01*
X119025987Y-72720418D01*
X119026987Y-72725012D01*
X119028837Y-72729333D01*
X119028840Y-72729341D01*
X119107865Y-72913881D01*
X119107869Y-72913888D01*
X119109721Y-72918213D01*
X119112361Y-72922114D01*
X119112363Y-72922117D01*
X119224662Y-73088039D01*
X119227523Y-73092265D01*
X119376135Y-73240877D01*
X119550187Y-73358679D01*
X119554515Y-73360532D01*
X119554518Y-73360534D01*
X119739058Y-73439559D01*
X119739060Y-73439559D01*
X119743388Y-73441413D01*
X119747987Y-73442413D01*
X119747989Y-73442414D01*
X119773067Y-73447869D01*
X119948755Y-73486088D01*
X119995962Y-73488900D01*
X120162576Y-73488900D01*
X120164038Y-73488900D01*
X120211245Y-73486088D01*
X120416612Y-73441413D01*
X120609813Y-73358679D01*
X120783865Y-73240877D01*
X120932477Y-73092265D01*
X121050279Y-72918213D01*
X121133013Y-72725012D01*
X121177688Y-72519645D01*
X121180500Y-72472438D01*
X121180500Y-72304362D01*
X121180500Y-71251900D01*
X121193763Y-71202400D01*
X121230000Y-71166163D01*
X121279500Y-71152900D01*
X121420500Y-71152900D01*
X121470000Y-71166163D01*
X121506237Y-71202400D01*
X121519500Y-71251900D01*
X121519500Y-72304362D01*
X121519500Y-72472438D01*
X121519585Y-72473869D01*
X121519586Y-72473894D01*
X121522081Y-72515762D01*
X121522312Y-72519645D01*
X121523125Y-72523386D01*
X121523126Y-72523387D01*
X121565985Y-72720410D01*
X121565987Y-72720418D01*
X121566987Y-72725012D01*
X121568837Y-72729333D01*
X121568840Y-72729341D01*
X121647865Y-72913881D01*
X121647869Y-72913888D01*
X121649721Y-72918213D01*
X121652361Y-72922114D01*
X121652363Y-72922117D01*
X121764662Y-73088039D01*
X121767523Y-73092265D01*
X121916135Y-73240877D01*
X122090187Y-73358679D01*
X122094515Y-73360532D01*
X122094518Y-73360534D01*
X122279058Y-73439559D01*
X122279060Y-73439559D01*
X122283388Y-73441413D01*
X122287987Y-73442413D01*
X122287989Y-73442414D01*
X122313067Y-73447869D01*
X122488755Y-73486088D01*
X122535962Y-73488900D01*
X122702576Y-73488900D01*
X122704038Y-73488900D01*
X122751245Y-73486088D01*
X122956612Y-73441413D01*
X123149813Y-73358679D01*
X123323865Y-73240877D01*
X123472477Y-73092265D01*
X123590279Y-72918213D01*
X123673013Y-72725012D01*
X123717688Y-72519645D01*
X123720500Y-72472438D01*
X123720500Y-72304362D01*
X123720500Y-71251900D01*
X123733763Y-71202400D01*
X123770000Y-71166163D01*
X123819500Y-71152900D01*
X128965102Y-71152900D01*
X128995139Y-71152900D01*
X129004842Y-71153376D01*
X129155557Y-71168221D01*
X129174590Y-71172007D01*
X129314847Y-71214553D01*
X129332764Y-71221975D01*
X129462028Y-71291067D01*
X129478157Y-71301844D01*
X129520017Y-71336198D01*
X129591453Y-71394825D01*
X129605174Y-71408546D01*
X129698152Y-71521838D01*
X129708933Y-71537974D01*
X129774157Y-71660000D01*
X129778021Y-71667228D01*
X129785448Y-71685158D01*
X129827992Y-71825409D01*
X129831778Y-71844443D01*
X129846623Y-71995157D01*
X129847100Y-72004861D01*
X129847100Y-87995139D01*
X129846623Y-88004843D01*
X129831778Y-88155556D01*
X129827992Y-88174590D01*
X129785448Y-88314841D01*
X129778021Y-88332771D01*
X129708935Y-88462023D01*
X129698152Y-88478161D01*
X129605174Y-88591453D01*
X129591453Y-88605174D01*
X129478161Y-88698152D01*
X129462023Y-88708935D01*
X129332771Y-88778021D01*
X129314841Y-88785448D01*
X129174590Y-88827992D01*
X129155556Y-88831778D01*
X129004843Y-88846623D01*
X128995139Y-88847100D01*
X123819500Y-88847100D01*
X123770000Y-88833837D01*
X123733763Y-88797600D01*
X123720500Y-88748100D01*
X123720500Y-87545824D01*
X123720500Y-87544362D01*
X123717688Y-87497155D01*
X123673013Y-87291788D01*
X123671159Y-87287458D01*
X123592134Y-87102918D01*
X123592132Y-87102915D01*
X123590279Y-87098587D01*
X123472477Y-86924535D01*
X123323865Y-86775923D01*
X123315090Y-86769984D01*
X123153717Y-86660763D01*
X123153714Y-86660761D01*
X123149813Y-86658121D01*
X123145488Y-86656269D01*
X123145481Y-86656265D01*
X122960941Y-86577240D01*
X122960933Y-86577237D01*
X122956612Y-86575387D01*
X122952018Y-86574387D01*
X122952010Y-86574385D01*
X122754987Y-86531526D01*
X122754986Y-86531525D01*
X122751245Y-86530712D01*
X122747421Y-86530484D01*
X122747420Y-86530484D01*
X122705494Y-86527986D01*
X122705469Y-86527985D01*
X122704038Y-86527900D01*
X122535962Y-86527900D01*
X122534531Y-86527985D01*
X122534505Y-86527986D01*
X122492579Y-86530484D01*
X122492576Y-86530484D01*
X122488755Y-86530712D01*
X122485015Y-86531525D01*
X122485012Y-86531526D01*
X122287989Y-86574385D01*
X122287978Y-86574388D01*
X122283388Y-86575387D01*
X122279069Y-86577236D01*
X122279058Y-86577240D01*
X122094518Y-86656265D01*
X122094506Y-86656271D01*
X122090187Y-86658121D01*
X122086289Y-86660758D01*
X122086282Y-86660763D01*
X121920040Y-86773279D01*
X121920033Y-86773284D01*
X121916135Y-86775923D01*
X121912807Y-86779250D01*
X121912802Y-86779255D01*
X121770855Y-86921202D01*
X121770850Y-86921207D01*
X121767523Y-86924535D01*
X121764884Y-86928433D01*
X121764879Y-86928440D01*
X121652363Y-87094682D01*
X121652358Y-87094689D01*
X121649721Y-87098587D01*
X121647871Y-87102906D01*
X121647865Y-87102918D01*
X121568840Y-87287458D01*
X121568836Y-87287469D01*
X121566987Y-87291788D01*
X121565988Y-87296378D01*
X121565985Y-87296389D01*
X121526733Y-87476830D01*
X121522312Y-87497155D01*
X121522084Y-87500976D01*
X121522084Y-87500979D01*
X121519586Y-87542905D01*
X121519585Y-87542931D01*
X121519500Y-87544362D01*
X121519500Y-87545824D01*
X121519500Y-88748100D01*
X121506237Y-88797600D01*
X121470000Y-88833837D01*
X121420500Y-88847100D01*
X121279500Y-88847100D01*
X121230000Y-88833837D01*
X121193763Y-88797600D01*
X121180500Y-88748100D01*
X121180500Y-87545824D01*
X121180500Y-87544362D01*
X121177688Y-87497155D01*
X121133013Y-87291788D01*
X121131159Y-87287458D01*
X121052134Y-87102918D01*
X121052132Y-87102915D01*
X121050279Y-87098587D01*
X120932477Y-86924535D01*
X120783865Y-86775923D01*
X120775090Y-86769984D01*
X120613717Y-86660763D01*
X120613714Y-86660761D01*
X120609813Y-86658121D01*
X120605488Y-86656269D01*
X120605481Y-86656265D01*
X120420941Y-86577240D01*
X120420933Y-86577237D01*
X120416612Y-86575387D01*
X120412018Y-86574387D01*
X120412010Y-86574385D01*
X120214987Y-86531526D01*
X120214986Y-86531525D01*
X120211245Y-86530712D01*
X120207421Y-86530484D01*
X120207420Y-86530484D01*
X120165494Y-86527986D01*
X120165469Y-86527985D01*
X120164038Y-86527900D01*
X119995962Y-86527900D01*
X119994531Y-86527985D01*
X119994505Y-86527986D01*
X119952579Y-86530484D01*
X119952576Y-86530484D01*
X119948755Y-86530712D01*
X119945015Y-86531525D01*
X119945012Y-86531526D01*
X119747989Y-86574385D01*
X119747978Y-86574388D01*
X119743388Y-86575387D01*
X119739069Y-86577236D01*
X119739058Y-86577240D01*
X119554518Y-86656265D01*
X119554506Y-86656271D01*
X119550187Y-86658121D01*
X119546289Y-86660758D01*
X119546282Y-86660763D01*
X119380040Y-86773279D01*
X119380033Y-86773284D01*
X119376135Y-86775923D01*
X119372807Y-86779250D01*
X119372802Y-86779255D01*
X119230855Y-86921202D01*
X119230850Y-86921207D01*
X119227523Y-86924535D01*
X119224884Y-86928433D01*
X119224879Y-86928440D01*
X119112363Y-87094682D01*
X119112358Y-87094689D01*
X119109721Y-87098587D01*
X119107871Y-87102906D01*
X119107865Y-87102918D01*
X119028840Y-87287458D01*
X119028836Y-87287469D01*
X119026987Y-87291788D01*
X119025988Y-87296378D01*
X119025985Y-87296389D01*
X118986733Y-87476830D01*
X118982312Y-87497155D01*
X118982084Y-87500976D01*
X118982084Y-87500979D01*
X118979586Y-87542905D01*
X118979585Y-87542931D01*
X118979500Y-87544362D01*
X118979500Y-87545824D01*
X118979500Y-88748100D01*
X118966237Y-88797600D01*
X118930000Y-88833837D01*
X118880500Y-88847100D01*
X118739500Y-88847100D01*
X118690000Y-88833837D01*
X118653763Y-88797600D01*
X118640500Y-88748100D01*
X118640500Y-87545824D01*
X118640500Y-87544362D01*
X118637688Y-87497155D01*
X118593013Y-87291788D01*
X118591159Y-87287458D01*
X118512134Y-87102918D01*
X118512132Y-87102915D01*
X118510279Y-87098587D01*
X118392477Y-86924535D01*
X118243865Y-86775923D01*
X118235090Y-86769984D01*
X118073717Y-86660763D01*
X118073714Y-86660761D01*
X118069813Y-86658121D01*
X118065488Y-86656269D01*
X118065481Y-86656265D01*
X117880941Y-86577240D01*
X117880933Y-86577237D01*
X117876612Y-86575387D01*
X117872018Y-86574387D01*
X117872010Y-86574385D01*
X117674987Y-86531526D01*
X117674986Y-86531525D01*
X117671245Y-86530712D01*
X117667421Y-86530484D01*
X117667420Y-86530484D01*
X117625494Y-86527986D01*
X117625469Y-86527985D01*
X117624038Y-86527900D01*
X117455962Y-86527900D01*
X117454531Y-86527985D01*
X117454505Y-86527986D01*
X117412579Y-86530484D01*
X117412576Y-86530484D01*
X117408755Y-86530712D01*
X117405015Y-86531525D01*
X117405012Y-86531526D01*
X117207989Y-86574385D01*
X117207978Y-86574388D01*
X117203388Y-86575387D01*
X117199069Y-86577236D01*
X117199058Y-86577240D01*
X117014518Y-86656265D01*
X117014506Y-86656271D01*
X117010187Y-86658121D01*
X117006289Y-86660758D01*
X117006282Y-86660763D01*
X116840040Y-86773279D01*
X116840033Y-86773284D01*
X116836135Y-86775923D01*
X116832807Y-86779250D01*
X116832802Y-86779255D01*
X116690855Y-86921202D01*
X116690850Y-86921207D01*
X116687523Y-86924535D01*
X116684884Y-86928433D01*
X116684879Y-86928440D01*
X116572363Y-87094682D01*
X116572358Y-87094689D01*
X116569721Y-87098587D01*
X116567871Y-87102906D01*
X116567865Y-87102918D01*
X116488840Y-87287458D01*
X116488836Y-87287469D01*
X116486987Y-87291788D01*
X116485988Y-87296378D01*
X116485985Y-87296389D01*
X116446733Y-87476830D01*
X116442312Y-87497155D01*
X116442084Y-87500976D01*
X116442084Y-87500979D01*
X116439586Y-87542905D01*
X116439585Y-87542931D01*
X116439500Y-87544362D01*
X116439500Y-87545824D01*
X116439500Y-88748100D01*
X116426237Y-88797600D01*
X116390000Y-88833837D01*
X116340500Y-88847100D01*
X116199500Y-88847100D01*
X116150000Y-88833837D01*
X116113763Y-88797600D01*
X116100500Y-88748100D01*
X116100500Y-87545824D01*
X116100500Y-87544362D01*
X116097688Y-87497155D01*
X116053013Y-87291788D01*
X116051159Y-87287458D01*
X115972134Y-87102918D01*
X115972132Y-87102915D01*
X115970279Y-87098587D01*
X115852477Y-86924535D01*
X115703865Y-86775923D01*
X115695090Y-86769984D01*
X115533717Y-86660763D01*
X115533714Y-86660761D01*
X115529813Y-86658121D01*
X115525488Y-86656269D01*
X115525481Y-86656265D01*
X115340941Y-86577240D01*
X115340933Y-86577237D01*
X115336612Y-86575387D01*
X115332018Y-86574387D01*
X115332010Y-86574385D01*
X115134987Y-86531526D01*
X115134986Y-86531525D01*
X115131245Y-86530712D01*
X115127421Y-86530484D01*
X115127420Y-86530484D01*
X115085494Y-86527986D01*
X115085469Y-86527985D01*
X115084038Y-86527900D01*
X114915962Y-86527900D01*
X114914531Y-86527985D01*
X114914505Y-86527986D01*
X114872579Y-86530484D01*
X114872576Y-86530484D01*
X114868755Y-86530712D01*
X114865015Y-86531525D01*
X114865012Y-86531526D01*
X114667989Y-86574385D01*
X114667978Y-86574388D01*
X114663388Y-86575387D01*
X114659069Y-86577236D01*
X114659058Y-86577240D01*
X114474518Y-86656265D01*
X114474506Y-86656271D01*
X114470187Y-86658121D01*
X114466289Y-86660758D01*
X114466282Y-86660763D01*
X114300040Y-86773279D01*
X114300033Y-86773284D01*
X114296135Y-86775923D01*
X114292807Y-86779250D01*
X114292802Y-86779255D01*
X114150855Y-86921202D01*
X114150850Y-86921207D01*
X114147523Y-86924535D01*
X114144884Y-86928433D01*
X114144879Y-86928440D01*
X114032363Y-87094682D01*
X114032358Y-87094689D01*
X114029721Y-87098587D01*
X114027871Y-87102906D01*
X114027865Y-87102918D01*
X113948840Y-87287458D01*
X113948836Y-87287469D01*
X113946987Y-87291788D01*
X113945988Y-87296378D01*
X113945985Y-87296389D01*
X113906733Y-87476830D01*
X113902312Y-87497155D01*
X113902084Y-87500976D01*
X113902084Y-87500979D01*
X113899586Y-87542905D01*
X113899585Y-87542931D01*
X113899500Y-87544362D01*
X113899500Y-87545824D01*
X113899500Y-88748100D01*
X113886237Y-88797600D01*
X113850000Y-88833837D01*
X113800500Y-88847100D01*
X113004861Y-88847100D01*
X112995157Y-88846623D01*
X112844443Y-88831778D01*
X112825409Y-88827992D01*
X112685158Y-88785448D01*
X112667230Y-88778021D01*
X112537974Y-88708933D01*
X112521838Y-88698152D01*
X112408546Y-88605174D01*
X112394825Y-88591453D01*
X112301847Y-88478161D01*
X112291067Y-88462028D01*
X112221975Y-88332764D01*
X112214553Y-88314847D01*
X112172007Y-88174590D01*
X112168221Y-88155556D01*
X112162834Y-88100866D01*
X112153376Y-88004842D01*
X112152900Y-87995139D01*
X112152900Y-76906967D01*
X112890000Y-76906967D01*
X112892754Y-76917245D01*
X112903033Y-76920000D01*
X113286967Y-76920000D01*
X113297245Y-76917245D01*
X113300000Y-76906967D01*
X113500000Y-76906967D01*
X113502754Y-76917245D01*
X113513033Y-76920000D01*
X113896967Y-76920000D01*
X113907245Y-76917245D01*
X113910000Y-76906967D01*
X113910000Y-76843401D01*
X113909576Y-76836946D01*
X113904470Y-76798156D01*
X113900278Y-76783775D01*
X113856468Y-76689826D01*
X113846685Y-76675853D01*
X113774146Y-76603314D01*
X113760173Y-76593531D01*
X113666224Y-76549721D01*
X113651843Y-76545529D01*
X113613053Y-76540423D01*
X113606599Y-76540000D01*
X113513033Y-76540000D01*
X113502754Y-76542754D01*
X113500000Y-76553033D01*
X113500000Y-76906967D01*
X113300000Y-76906967D01*
X113300000Y-76553033D01*
X113297245Y-76542754D01*
X113286967Y-76540000D01*
X113193401Y-76540000D01*
X113186946Y-76540423D01*
X113148156Y-76545529D01*
X113133775Y-76549721D01*
X113039826Y-76593531D01*
X113025853Y-76603314D01*
X112953314Y-76675853D01*
X112943531Y-76689826D01*
X112899721Y-76783775D01*
X112895529Y-76798156D01*
X112890423Y-76836946D01*
X112890000Y-76843401D01*
X112890000Y-76906967D01*
X112152900Y-76906967D01*
X112152900Y-75656599D01*
X112890000Y-75656599D01*
X112890423Y-75663053D01*
X112895529Y-75701843D01*
X112899721Y-75716224D01*
X112943531Y-75810173D01*
X112953314Y-75824146D01*
X113025853Y-75896685D01*
X113039826Y-75906468D01*
X113133775Y-75950278D01*
X113148156Y-75954470D01*
X113186946Y-75959576D01*
X113193401Y-75960000D01*
X113286967Y-75960000D01*
X113297245Y-75957245D01*
X113300000Y-75946967D01*
X113500000Y-75946967D01*
X113502754Y-75957245D01*
X113513033Y-75960000D01*
X113606599Y-75960000D01*
X113613053Y-75959576D01*
X113651843Y-75954470D01*
X113666224Y-75950278D01*
X113760173Y-75906468D01*
X113774146Y-75896685D01*
X113846685Y-75824146D01*
X113856468Y-75810173D01*
X113900278Y-75716224D01*
X113904470Y-75701843D01*
X113909576Y-75663053D01*
X113910000Y-75656599D01*
X113910000Y-75593033D01*
X113907245Y-75582754D01*
X113896967Y-75580000D01*
X113513033Y-75580000D01*
X113502754Y-75582754D01*
X113500000Y-75593033D01*
X113500000Y-75946967D01*
X113300000Y-75946967D01*
X113300000Y-75593033D01*
X113297245Y-75582754D01*
X113286967Y-75580000D01*
X112903033Y-75580000D01*
X112892754Y-75582754D01*
X112890000Y-75593033D01*
X112890000Y-75656599D01*
X112152900Y-75656599D01*
X112152900Y-72004861D01*
X112153377Y-71995157D01*
X112155862Y-71969924D01*
X112168221Y-71844440D01*
X112172007Y-71825409D01*
X112183731Y-71786761D01*
X112214554Y-71685148D01*
X112221973Y-71667238D01*
X112291070Y-71537966D01*
X112301841Y-71521846D01*
X112394826Y-71408544D01*
X112408546Y-71394825D01*
X112521846Y-71301841D01*
X112537966Y-71291070D01*
X112667238Y-71221973D01*
X112685148Y-71214554D01*
X112825411Y-71172006D01*
X112844440Y-71168221D01*
X112995157Y-71153376D01*
X113004861Y-71152900D01*
X113034898Y-71152900D01*
X113800500Y-71152900D01*
X113850000Y-71166163D01*
G37*
%TD.AperFunction*%
%TA.AperFunction,Conductor*%
G36*
X123372407Y-75808036D02*
G01*
X123404525Y-75829496D01*
X123749896Y-76174867D01*
X123753367Y-76178856D01*
X123756042Y-76184228D01*
X123789730Y-76214939D01*
X123790724Y-76215845D01*
X123794032Y-76219003D01*
X123807203Y-76232174D01*
X123810973Y-76234757D01*
X123814496Y-76237682D01*
X123814362Y-76237843D01*
X123818039Y-76240746D01*
X123839067Y-76259916D01*
X123848229Y-76263465D01*
X123868415Y-76274105D01*
X123876520Y-76279657D01*
X123904219Y-76286172D01*
X123917296Y-76290222D01*
X123943827Y-76300500D01*
X123953653Y-76300500D01*
X123976318Y-76303129D01*
X123985881Y-76305379D01*
X124014053Y-76301448D01*
X124027731Y-76300500D01*
X126196802Y-76300500D01*
X126202074Y-76300865D01*
X126207765Y-76302773D01*
X126254641Y-76300606D01*
X126259214Y-76300500D01*
X126273265Y-76300500D01*
X126277844Y-76300500D01*
X126282344Y-76299658D01*
X126286907Y-76299235D01*
X126286926Y-76299446D01*
X126291572Y-76298898D01*
X126319992Y-76297585D01*
X126328057Y-76294023D01*
X126386262Y-76298063D01*
X126432175Y-76334429D01*
X126449500Y-76390378D01*
X126449500Y-83834520D01*
X126441964Y-83872406D01*
X126420504Y-83904524D01*
X125810131Y-84514896D01*
X125806141Y-84518367D01*
X125800772Y-84521042D01*
X125794595Y-84527817D01*
X125794593Y-84527819D01*
X125769141Y-84555737D01*
X125765990Y-84559037D01*
X125756063Y-84568964D01*
X125756054Y-84568974D01*
X125752826Y-84572203D01*
X125750240Y-84575975D01*
X125747321Y-84579492D01*
X125747178Y-84579373D01*
X125744257Y-84583033D01*
X125731261Y-84597290D01*
X125731259Y-84597292D01*
X125725084Y-84604067D01*
X125721772Y-84612613D01*
X125721770Y-84612618D01*
X125721529Y-84613241D01*
X125710898Y-84633409D01*
X125710530Y-84633946D01*
X125710527Y-84633950D01*
X125705344Y-84641519D01*
X125703244Y-84650446D01*
X125703242Y-84650451D01*
X125698830Y-84669207D01*
X125694777Y-84682295D01*
X125687813Y-84700271D01*
X125687811Y-84700278D01*
X125684500Y-84708827D01*
X125684500Y-84717999D01*
X125684500Y-84718652D01*
X125681870Y-84741318D01*
X125681721Y-84741950D01*
X125681720Y-84741953D01*
X125679621Y-84750881D01*
X125680887Y-84759963D01*
X125680888Y-84759963D01*
X125683551Y-84779053D01*
X125684500Y-84792731D01*
X125684500Y-85703929D01*
X125673522Y-85749240D01*
X125643023Y-85784502D01*
X125639857Y-85786761D01*
X125632489Y-85790364D01*
X125626694Y-85796158D01*
X125626691Y-85796161D01*
X125570004Y-85852849D01*
X125525623Y-85878472D01*
X125474377Y-85878472D01*
X125429996Y-85852849D01*
X125373309Y-85796162D01*
X125373308Y-85796161D01*
X125367511Y-85790364D01*
X125360144Y-85786762D01*
X125360142Y-85786761D01*
X125270075Y-85742730D01*
X125270071Y-85742728D01*
X125263170Y-85739355D01*
X125255569Y-85738247D01*
X125255564Y-85738246D01*
X125199066Y-85730015D01*
X125199059Y-85730014D01*
X125195528Y-85729500D01*
X125191950Y-85729500D01*
X124960479Y-85729500D01*
X124922593Y-85721964D01*
X124890475Y-85700504D01*
X124015102Y-84825131D01*
X124011632Y-84821143D01*
X124008958Y-84815772D01*
X123983683Y-84792731D01*
X123974274Y-84784153D01*
X123970966Y-84780995D01*
X123961029Y-84771058D01*
X123957797Y-84767826D01*
X123954023Y-84765240D01*
X123950505Y-84762319D01*
X123950633Y-84762164D01*
X123946961Y-84759253D01*
X123925933Y-84740084D01*
X123917380Y-84736770D01*
X123917378Y-84736769D01*
X123916765Y-84736532D01*
X123896586Y-84725895D01*
X123896052Y-84725529D01*
X123896047Y-84725527D01*
X123888481Y-84720344D01*
X123879553Y-84718244D01*
X123879551Y-84718243D01*
X123860796Y-84713832D01*
X123847703Y-84709777D01*
X123829726Y-84702813D01*
X123829723Y-84702812D01*
X123821173Y-84699500D01*
X123812002Y-84699500D01*
X123811348Y-84699500D01*
X123788682Y-84696870D01*
X123788049Y-84696721D01*
X123788046Y-84696720D01*
X123779119Y-84694621D01*
X123770036Y-84695888D01*
X123750947Y-84698551D01*
X123737269Y-84699500D01*
X121425479Y-84699500D01*
X121387593Y-84691964D01*
X121355475Y-84670504D01*
X121009496Y-84324525D01*
X120988036Y-84292407D01*
X120980500Y-84254521D01*
X120980500Y-84028925D01*
X120980500Y-84025684D01*
X120974068Y-83976827D01*
X120957518Y-83941337D01*
X120948456Y-83893025D01*
X120963748Y-83846307D01*
X120999626Y-83812704D01*
X121047244Y-83800500D01*
X121846802Y-83800500D01*
X121852074Y-83800865D01*
X121857765Y-83802773D01*
X121904641Y-83800606D01*
X121909214Y-83800500D01*
X121923265Y-83800500D01*
X121927844Y-83800500D01*
X121932344Y-83799658D01*
X121936907Y-83799235D01*
X121936926Y-83799446D01*
X121941572Y-83798898D01*
X121969992Y-83797585D01*
X121978980Y-83793615D01*
X122000778Y-83786865D01*
X122010433Y-83785061D01*
X122034617Y-83770086D01*
X122046738Y-83763698D01*
X122055303Y-83759916D01*
X122072765Y-83752206D01*
X122079713Y-83745257D01*
X122097596Y-83731092D01*
X122105952Y-83725919D01*
X122123096Y-83703215D01*
X122132082Y-83692887D01*
X122310041Y-83514928D01*
X122359609Y-83488066D01*
X122415806Y-83492619D01*
X122593274Y-83561370D01*
X122593275Y-83561370D01*
X122597544Y-83563024D01*
X122798024Y-83600500D01*
X122997393Y-83600500D01*
X123001976Y-83600500D01*
X123202456Y-83563024D01*
X123392637Y-83489348D01*
X123566041Y-83381981D01*
X123716764Y-83244579D01*
X123839673Y-83081821D01*
X123930582Y-82899250D01*
X123986397Y-82703083D01*
X124005215Y-82500000D01*
X123986397Y-82296917D01*
X123930582Y-82100750D01*
X123839673Y-81918179D01*
X123833564Y-81910090D01*
X123778490Y-81837160D01*
X123716764Y-81755421D01*
X123589652Y-81639543D01*
X123569422Y-81621101D01*
X123569420Y-81621100D01*
X123566041Y-81618019D01*
X123392637Y-81510652D01*
X123388374Y-81509000D01*
X123388369Y-81508998D01*
X123206725Y-81438629D01*
X123206717Y-81438626D01*
X123202456Y-81436976D01*
X123197952Y-81436134D01*
X123006482Y-81400342D01*
X123006478Y-81400341D01*
X123001976Y-81399500D01*
X122798024Y-81399500D01*
X122793522Y-81400341D01*
X122793517Y-81400342D01*
X122602047Y-81436134D01*
X122602044Y-81436134D01*
X122597544Y-81436976D01*
X122593285Y-81438625D01*
X122593274Y-81438629D01*
X122411630Y-81508998D01*
X122411621Y-81509002D01*
X122407363Y-81510652D01*
X122403477Y-81513057D01*
X122403473Y-81513060D01*
X122237847Y-81615611D01*
X122237842Y-81615614D01*
X122233959Y-81618019D01*
X122230584Y-81621095D01*
X122230577Y-81621101D01*
X122091772Y-81747639D01*
X122083236Y-81755421D01*
X122080485Y-81759063D01*
X122080483Y-81759066D01*
X121963082Y-81914529D01*
X121963075Y-81914538D01*
X121960327Y-81918179D01*
X121958291Y-81922266D01*
X121958287Y-81922274D01*
X121871460Y-82096648D01*
X121871458Y-82096652D01*
X121869418Y-82100750D01*
X121868167Y-82105144D01*
X121868164Y-82105154D01*
X121814853Y-82292521D01*
X121814851Y-82292529D01*
X121813603Y-82296917D01*
X121813181Y-82301462D01*
X121813181Y-82301467D01*
X121805160Y-82388033D01*
X121794785Y-82500000D01*
X121813603Y-82703083D01*
X121814852Y-82707472D01*
X121814853Y-82707478D01*
X121868164Y-82894845D01*
X121868166Y-82894851D01*
X121869418Y-82899250D01*
X121871457Y-82903346D01*
X121871458Y-82903347D01*
X121906265Y-82973250D01*
X121915352Y-83033316D01*
X121887647Y-83087380D01*
X121804526Y-83170503D01*
X121772408Y-83191964D01*
X121734522Y-83199500D01*
X120133821Y-83199500D01*
X120095935Y-83191964D01*
X120063817Y-83170504D01*
X119987317Y-83094004D01*
X119960223Y-83043314D01*
X119965857Y-82986114D01*
X120002320Y-82941685D01*
X120057321Y-82925000D01*
X120136967Y-82925000D01*
X120147245Y-82922245D01*
X120150000Y-82911967D01*
X120150000Y-82911966D01*
X120350000Y-82911966D01*
X120352754Y-82922244D01*
X120363033Y-82924999D01*
X120529556Y-82924999D01*
X120537298Y-82924389D01*
X120625275Y-82910456D01*
X120639907Y-82905702D01*
X120745983Y-82851653D01*
X120758429Y-82842611D01*
X120842611Y-82758429D01*
X120851653Y-82745983D01*
X120905701Y-82639909D01*
X120910456Y-82625274D01*
X120924390Y-82537297D01*
X120925000Y-82529558D01*
X120925000Y-82388033D01*
X120922245Y-82377754D01*
X120911967Y-82375000D01*
X120363033Y-82375000D01*
X120352754Y-82377754D01*
X120350000Y-82388033D01*
X120350000Y-82911966D01*
X120150000Y-82911966D01*
X120150000Y-82388033D01*
X120147245Y-82377754D01*
X120136967Y-82375000D01*
X119588034Y-82375000D01*
X119577755Y-82377754D01*
X119575001Y-82388033D01*
X119575001Y-82442680D01*
X119558316Y-82497681D01*
X119513887Y-82534144D01*
X119456687Y-82539778D01*
X119405997Y-82512684D01*
X119055280Y-82161967D01*
X119575000Y-82161967D01*
X119577754Y-82172245D01*
X119588033Y-82175000D01*
X120136967Y-82175000D01*
X120147245Y-82172245D01*
X120150000Y-82161967D01*
X120350000Y-82161967D01*
X120352754Y-82172245D01*
X120363033Y-82175000D01*
X120911966Y-82175000D01*
X120922244Y-82172245D01*
X120924999Y-82161967D01*
X120924999Y-82020444D01*
X120924389Y-82012701D01*
X120910456Y-81924724D01*
X120905702Y-81910092D01*
X120851653Y-81804016D01*
X120842611Y-81791570D01*
X120758429Y-81707388D01*
X120745983Y-81698346D01*
X120639909Y-81644298D01*
X120625274Y-81639543D01*
X120537297Y-81625609D01*
X120529558Y-81625000D01*
X120363033Y-81625000D01*
X120352754Y-81627754D01*
X120350000Y-81638033D01*
X120350000Y-82161967D01*
X120150000Y-82161967D01*
X120150000Y-81638034D01*
X120147245Y-81627755D01*
X120136967Y-81625001D01*
X119970444Y-81625001D01*
X119962701Y-81625610D01*
X119874724Y-81639543D01*
X119860092Y-81644297D01*
X119754016Y-81698346D01*
X119741570Y-81707388D01*
X119657388Y-81791570D01*
X119648346Y-81804016D01*
X119594298Y-81910090D01*
X119589543Y-81924725D01*
X119575609Y-82012702D01*
X119575000Y-82020442D01*
X119575000Y-82161967D01*
X119055280Y-82161967D01*
X118729496Y-81836183D01*
X118708036Y-81804065D01*
X118700500Y-81766179D01*
X118700500Y-81052561D01*
X118709445Y-81011437D01*
X118730365Y-80983488D01*
X119574500Y-80983488D01*
X119575108Y-80987332D01*
X119575109Y-80987334D01*
X119583522Y-81040455D01*
X119590281Y-81083126D01*
X119593816Y-81090065D01*
X119593817Y-81090066D01*
X119606503Y-81114963D01*
X119651472Y-81203220D01*
X119746780Y-81298528D01*
X119866874Y-81359719D01*
X119966512Y-81375500D01*
X120529595Y-81375500D01*
X120533488Y-81375500D01*
X120633126Y-81359719D01*
X120753220Y-81298528D01*
X120797251Y-81254496D01*
X120829370Y-81233036D01*
X120867256Y-81225500D01*
X120960546Y-81225500D01*
X120981589Y-81227762D01*
X120988927Y-81229359D01*
X121039355Y-81225752D01*
X121046419Y-81225500D01*
X121057259Y-81225500D01*
X121060799Y-81225500D01*
X121075049Y-81223450D01*
X121082043Y-81222698D01*
X121132483Y-81219091D01*
X121139511Y-81216469D01*
X121160024Y-81211233D01*
X121167457Y-81210165D01*
X121213437Y-81189165D01*
X121219962Y-81186462D01*
X121267331Y-81168796D01*
X121273342Y-81164295D01*
X121291546Y-81153494D01*
X121298373Y-81150377D01*
X121336599Y-81117252D01*
X121342042Y-81112866D01*
X121353593Y-81104221D01*
X121363767Y-81094045D01*
X121368923Y-81089243D01*
X121407143Y-81056128D01*
X121411198Y-81049817D01*
X121424478Y-81033334D01*
X121843596Y-80614216D01*
X121892419Y-80587514D01*
X121947935Y-80591367D01*
X121992602Y-80624561D01*
X122023691Y-80665729D01*
X122083236Y-80744579D01*
X122199706Y-80850755D01*
X122217309Y-80866803D01*
X122233959Y-80881981D01*
X122407363Y-80989348D01*
X122411630Y-80991001D01*
X122593274Y-81061370D01*
X122593275Y-81061370D01*
X122597544Y-81063024D01*
X122798024Y-81100500D01*
X122997393Y-81100500D01*
X123001976Y-81100500D01*
X123202456Y-81063024D01*
X123392637Y-80989348D01*
X123566041Y-80881981D01*
X123716764Y-80744579D01*
X123839673Y-80581821D01*
X123930582Y-80399250D01*
X123986397Y-80203083D01*
X124005215Y-80000000D01*
X123986397Y-79796917D01*
X123930582Y-79600750D01*
X123839673Y-79418179D01*
X123716764Y-79255421D01*
X123566041Y-79118019D01*
X123392637Y-79010652D01*
X123388374Y-79009000D01*
X123388369Y-79008998D01*
X123206725Y-78938629D01*
X123206717Y-78938626D01*
X123202456Y-78936976D01*
X123128761Y-78923200D01*
X123006482Y-78900342D01*
X123006478Y-78900341D01*
X123001976Y-78899500D01*
X122798024Y-78899500D01*
X122793522Y-78900341D01*
X122793517Y-78900342D01*
X122602047Y-78936134D01*
X122602044Y-78936134D01*
X122597544Y-78936976D01*
X122593285Y-78938625D01*
X122593274Y-78938629D01*
X122411630Y-79008998D01*
X122411621Y-79009002D01*
X122407363Y-79010652D01*
X122403477Y-79013057D01*
X122403473Y-79013060D01*
X122237847Y-79115611D01*
X122237842Y-79115614D01*
X122233959Y-79118019D01*
X122230584Y-79121095D01*
X122230577Y-79121101D01*
X122086612Y-79252343D01*
X122083236Y-79255421D01*
X122080485Y-79259063D01*
X122080483Y-79259066D01*
X121963082Y-79414529D01*
X121963075Y-79414538D01*
X121960327Y-79418179D01*
X121958291Y-79422266D01*
X121958287Y-79422274D01*
X121947157Y-79444628D01*
X121910653Y-79484671D01*
X121858536Y-79499500D01*
X121814454Y-79499500D01*
X121793410Y-79497237D01*
X121793266Y-79497205D01*
X121792994Y-79497146D01*
X121792989Y-79497145D01*
X121786073Y-79495641D01*
X121779010Y-79496146D01*
X121779008Y-79496146D01*
X121735644Y-79499248D01*
X121728581Y-79499500D01*
X121714201Y-79499500D01*
X121710715Y-79500001D01*
X121710702Y-79500002D01*
X121699959Y-79501547D01*
X121692938Y-79502302D01*
X121649575Y-79505404D01*
X121649574Y-79505404D01*
X121642517Y-79505909D01*
X121635891Y-79508379D01*
X121635877Y-79508383D01*
X121635466Y-79508537D01*
X121614989Y-79513763D01*
X121614555Y-79513825D01*
X121614544Y-79513828D01*
X121607543Y-79514835D01*
X121601110Y-79517772D01*
X121601102Y-79517775D01*
X121561565Y-79535831D01*
X121555040Y-79538534D01*
X121514304Y-79553728D01*
X121514296Y-79553731D01*
X121507669Y-79556204D01*
X121502004Y-79560444D01*
X121501999Y-79560447D01*
X121501646Y-79560712D01*
X121483461Y-79571501D01*
X121483070Y-79571679D01*
X121483063Y-79571683D01*
X121476627Y-79574623D01*
X121471278Y-79579257D01*
X121471276Y-79579259D01*
X121438432Y-79607718D01*
X121432934Y-79612149D01*
X121424239Y-79618657D01*
X121424223Y-79618670D01*
X121421407Y-79620779D01*
X121418915Y-79623270D01*
X121418902Y-79623282D01*
X121411231Y-79630953D01*
X121406067Y-79635761D01*
X121373208Y-79664234D01*
X121373203Y-79664239D01*
X121367857Y-79668872D01*
X121364030Y-79674825D01*
X121364024Y-79674833D01*
X121363790Y-79675198D01*
X121350518Y-79691665D01*
X120919504Y-80122681D01*
X120868814Y-80149776D01*
X120811614Y-80144142D01*
X120767185Y-80107680D01*
X120750500Y-80052678D01*
X120750500Y-79892256D01*
X120758036Y-79854370D01*
X120779496Y-79822252D01*
X120809227Y-79792521D01*
X120848528Y-79753220D01*
X120909719Y-79633126D01*
X120925500Y-79533488D01*
X120925500Y-79016512D01*
X120909719Y-78916874D01*
X120848528Y-78796780D01*
X120753220Y-78701472D01*
X120659368Y-78653652D01*
X120640066Y-78643817D01*
X120640065Y-78643816D01*
X120633126Y-78640281D01*
X120625432Y-78639062D01*
X120625431Y-78639062D01*
X120537334Y-78625109D01*
X120537332Y-78625108D01*
X120533488Y-78624500D01*
X119966512Y-78624500D01*
X119962668Y-78625108D01*
X119962665Y-78625109D01*
X119874568Y-78639062D01*
X119874565Y-78639062D01*
X119866874Y-78640281D01*
X119859936Y-78643815D01*
X119859933Y-78643817D01*
X119753719Y-78697936D01*
X119753717Y-78697937D01*
X119746780Y-78701472D01*
X119741276Y-78706975D01*
X119741273Y-78706978D01*
X119656978Y-78791273D01*
X119656975Y-78791276D01*
X119651472Y-78796780D01*
X119647937Y-78803717D01*
X119647936Y-78803719D01*
X119593817Y-78909933D01*
X119593815Y-78909936D01*
X119590281Y-78916874D01*
X119589062Y-78924565D01*
X119589062Y-78924568D01*
X119575690Y-79008998D01*
X119574500Y-79016512D01*
X119574500Y-79533488D01*
X119575108Y-79537332D01*
X119575109Y-79537334D01*
X119586958Y-79612149D01*
X119590281Y-79633126D01*
X119593816Y-79640065D01*
X119593817Y-79640066D01*
X119611532Y-79674833D01*
X119651472Y-79753220D01*
X119656977Y-79758725D01*
X119656978Y-79758726D01*
X119720504Y-79822252D01*
X119741964Y-79854370D01*
X119749500Y-79892256D01*
X119749500Y-80107744D01*
X119741964Y-80145630D01*
X119720504Y-80177748D01*
X119656978Y-80241273D01*
X119656975Y-80241276D01*
X119651472Y-80246780D01*
X119647937Y-80253717D01*
X119647936Y-80253719D01*
X119593817Y-80359933D01*
X119593815Y-80359936D01*
X119590281Y-80366874D01*
X119589062Y-80374565D01*
X119589062Y-80374568D01*
X119575109Y-80462665D01*
X119574500Y-80466512D01*
X119574500Y-80983488D01*
X118730365Y-80983488D01*
X118731276Y-80982271D01*
X118731128Y-80982143D01*
X118731128Y-80982142D01*
X118825377Y-80873373D01*
X118885165Y-80742457D01*
X118905647Y-80600000D01*
X118885165Y-80457543D01*
X118825377Y-80326627D01*
X118731128Y-80217857D01*
X118725174Y-80214030D01*
X118725171Y-80214028D01*
X118616010Y-80143875D01*
X118616008Y-80143874D01*
X118610053Y-80140047D01*
X118572610Y-80129053D01*
X118478752Y-80101494D01*
X118471961Y-80099500D01*
X118328039Y-80099500D01*
X118321254Y-80101492D01*
X118321248Y-80101493D01*
X118227390Y-80129053D01*
X118167119Y-80127618D01*
X118118856Y-80091489D01*
X118100499Y-80034063D01*
X118100499Y-78957991D01*
X118100499Y-78955136D01*
X118097585Y-78930009D01*
X118093544Y-78920858D01*
X118093250Y-78918319D01*
X118092622Y-78916011D01*
X118092971Y-78915916D01*
X118086793Y-78862680D01*
X118114102Y-78810867D01*
X118174874Y-78750095D01*
X118178853Y-78746633D01*
X118184228Y-78743958D01*
X118215878Y-78709238D01*
X118218996Y-78705973D01*
X118232174Y-78692797D01*
X118234762Y-78689017D01*
X118237688Y-78685495D01*
X118237858Y-78685636D01*
X118240749Y-78681957D01*
X118259916Y-78660933D01*
X118263465Y-78651770D01*
X118274108Y-78631580D01*
X118274472Y-78631048D01*
X118279656Y-78623481D01*
X118286166Y-78595798D01*
X118290222Y-78582701D01*
X118300500Y-78556173D01*
X118300500Y-78546348D01*
X118303130Y-78523682D01*
X118303185Y-78523446D01*
X118305379Y-78514119D01*
X118304111Y-78505034D01*
X118304536Y-78495867D01*
X118305848Y-78495927D01*
X118307873Y-78468445D01*
X118327792Y-78431806D01*
X118353633Y-78412225D01*
X118353372Y-78411852D01*
X118360465Y-78406884D01*
X118368316Y-78403224D01*
X118453224Y-78318316D01*
X118453271Y-78318363D01*
X118483687Y-78291687D01*
X118529403Y-78280500D01*
X118543265Y-78280500D01*
X118547844Y-78280500D01*
X118552344Y-78279658D01*
X118556907Y-78279235D01*
X118556926Y-78279446D01*
X118561572Y-78278898D01*
X118589992Y-78277585D01*
X118598980Y-78273615D01*
X118620778Y-78266865D01*
X118630433Y-78265061D01*
X118654617Y-78250086D01*
X118666738Y-78243698D01*
X118674923Y-78240084D01*
X118692765Y-78232206D01*
X118699713Y-78225257D01*
X118717596Y-78211092D01*
X118725952Y-78205919D01*
X118743096Y-78183215D01*
X118752082Y-78172887D01*
X118945413Y-77979556D01*
X119575001Y-77979556D01*
X119575610Y-77987298D01*
X119589543Y-78075275D01*
X119594297Y-78089907D01*
X119648346Y-78195983D01*
X119657388Y-78208429D01*
X119741570Y-78292611D01*
X119754016Y-78301653D01*
X119860090Y-78355701D01*
X119874725Y-78360456D01*
X119962702Y-78374390D01*
X119970442Y-78375000D01*
X120136967Y-78375000D01*
X120147245Y-78372245D01*
X120150000Y-78361967D01*
X120150000Y-78361966D01*
X120350000Y-78361966D01*
X120352754Y-78372244D01*
X120363033Y-78374999D01*
X120529556Y-78374999D01*
X120537298Y-78374389D01*
X120625275Y-78360456D01*
X120639907Y-78355702D01*
X120745983Y-78301653D01*
X120758429Y-78292611D01*
X120842611Y-78208429D01*
X120851653Y-78195983D01*
X120855234Y-78188954D01*
X121800001Y-78188954D01*
X121800216Y-78193570D01*
X121802382Y-78216669D01*
X121804933Y-78228349D01*
X121846761Y-78347885D01*
X121853617Y-78360858D01*
X121927988Y-78461627D01*
X121938372Y-78472011D01*
X122039141Y-78546382D01*
X122052114Y-78553238D01*
X122171648Y-78595065D01*
X122183331Y-78597618D01*
X122206434Y-78599784D01*
X122211042Y-78600000D01*
X122786967Y-78600000D01*
X122797245Y-78597245D01*
X122800000Y-78586967D01*
X122800000Y-78586966D01*
X123000000Y-78586966D01*
X123002754Y-78597244D01*
X123013033Y-78599999D01*
X123588954Y-78599999D01*
X123593570Y-78599783D01*
X123616669Y-78597617D01*
X123628349Y-78595066D01*
X123747885Y-78553238D01*
X123760858Y-78546382D01*
X123861627Y-78472011D01*
X123872011Y-78461627D01*
X123946382Y-78360858D01*
X123953238Y-78347885D01*
X123995065Y-78228351D01*
X123997618Y-78216668D01*
X123999784Y-78193565D01*
X124000000Y-78188958D01*
X124000000Y-77613033D01*
X123997245Y-77602754D01*
X123986967Y-77600000D01*
X123013033Y-77600000D01*
X123002754Y-77602754D01*
X123000000Y-77613033D01*
X123000000Y-78586966D01*
X122800000Y-78586966D01*
X122800000Y-77613033D01*
X122797245Y-77602754D01*
X122786967Y-77600000D01*
X121813034Y-77600000D01*
X121802755Y-77602754D01*
X121800001Y-77613033D01*
X121800001Y-78188954D01*
X120855234Y-78188954D01*
X120905701Y-78089909D01*
X120910456Y-78075274D01*
X120924390Y-77987297D01*
X120925000Y-77979558D01*
X120925000Y-77838033D01*
X120922245Y-77827754D01*
X120911967Y-77825000D01*
X120363033Y-77825000D01*
X120352754Y-77827754D01*
X120350000Y-77838033D01*
X120350000Y-78361966D01*
X120150000Y-78361966D01*
X120150000Y-77838033D01*
X120147245Y-77827754D01*
X120136967Y-77825000D01*
X119588034Y-77825000D01*
X119577755Y-77827754D01*
X119575001Y-77838033D01*
X119575001Y-77979556D01*
X118945413Y-77979556D01*
X118974874Y-77950095D01*
X118978853Y-77946633D01*
X118984228Y-77943958D01*
X119015878Y-77909238D01*
X119018996Y-77905973D01*
X119032174Y-77892797D01*
X119034762Y-77889017D01*
X119037688Y-77885495D01*
X119037858Y-77885636D01*
X119040749Y-77881957D01*
X119059916Y-77860933D01*
X119063463Y-77851774D01*
X119074107Y-77831581D01*
X119079657Y-77823480D01*
X119086171Y-77795782D01*
X119090218Y-77782712D01*
X119100500Y-77756173D01*
X119100500Y-77746347D01*
X119103130Y-77723681D01*
X119105379Y-77714119D01*
X119101448Y-77685946D01*
X119100500Y-77672269D01*
X119100500Y-77611967D01*
X119575000Y-77611967D01*
X119577754Y-77622245D01*
X119588033Y-77625000D01*
X120136967Y-77625000D01*
X120147245Y-77622245D01*
X120150000Y-77611967D01*
X120350000Y-77611967D01*
X120352754Y-77622245D01*
X120363033Y-77625000D01*
X120911966Y-77625000D01*
X120922244Y-77622245D01*
X120924999Y-77611967D01*
X120924999Y-77470444D01*
X120924389Y-77462701D01*
X120912395Y-77386967D01*
X121800000Y-77386967D01*
X121802754Y-77397245D01*
X121813033Y-77400000D01*
X122786967Y-77400000D01*
X122797245Y-77397245D01*
X122800000Y-77386967D01*
X123000000Y-77386967D01*
X123002754Y-77397245D01*
X123013033Y-77400000D01*
X123986966Y-77400000D01*
X123997244Y-77397245D01*
X123999999Y-77386967D01*
X123999999Y-76811046D01*
X123999783Y-76806429D01*
X123997617Y-76783330D01*
X123995066Y-76771650D01*
X123953238Y-76652114D01*
X123946382Y-76639141D01*
X123872011Y-76538372D01*
X123861627Y-76527988D01*
X123760858Y-76453617D01*
X123747885Y-76446761D01*
X123628351Y-76404934D01*
X123616668Y-76402381D01*
X123593565Y-76400215D01*
X123588958Y-76400000D01*
X123013033Y-76400000D01*
X123002754Y-76402754D01*
X123000000Y-76413033D01*
X123000000Y-77386967D01*
X122800000Y-77386967D01*
X122800000Y-76413034D01*
X122797245Y-76402755D01*
X122786967Y-76400001D01*
X122211046Y-76400001D01*
X122206429Y-76400216D01*
X122183330Y-76402382D01*
X122171650Y-76404933D01*
X122052114Y-76446761D01*
X122039141Y-76453617D01*
X121938372Y-76527988D01*
X121927988Y-76538372D01*
X121853617Y-76639141D01*
X121846761Y-76652114D01*
X121804934Y-76771648D01*
X121802381Y-76783331D01*
X121800215Y-76806434D01*
X121800000Y-76811042D01*
X121800000Y-77386967D01*
X120912395Y-77386967D01*
X120910456Y-77374724D01*
X120905702Y-77360092D01*
X120851653Y-77254016D01*
X120842611Y-77241570D01*
X120758429Y-77157388D01*
X120745983Y-77148346D01*
X120639909Y-77094298D01*
X120625274Y-77089543D01*
X120537297Y-77075609D01*
X120529558Y-77075000D01*
X120363033Y-77075000D01*
X120352754Y-77077754D01*
X120350000Y-77088033D01*
X120350000Y-77611967D01*
X120150000Y-77611967D01*
X120150000Y-77088034D01*
X120147245Y-77077755D01*
X120136967Y-77075001D01*
X119970444Y-77075001D01*
X119962701Y-77075610D01*
X119874724Y-77089543D01*
X119860092Y-77094297D01*
X119754016Y-77148346D01*
X119741570Y-77157388D01*
X119657388Y-77241570D01*
X119648346Y-77254016D01*
X119594298Y-77360090D01*
X119589543Y-77374725D01*
X119575609Y-77462702D01*
X119575000Y-77470442D01*
X119575000Y-77611967D01*
X119100500Y-77611967D01*
X119100500Y-77452561D01*
X119109445Y-77411437D01*
X119131276Y-77382271D01*
X119131128Y-77382143D01*
X119131128Y-77382142D01*
X119225377Y-77273373D01*
X119285165Y-77142457D01*
X119305647Y-77000000D01*
X119302558Y-76978516D01*
X119306616Y-76933163D01*
X119330547Y-76894423D01*
X119395475Y-76829496D01*
X119427593Y-76808036D01*
X119465478Y-76800500D01*
X120696802Y-76800500D01*
X120702074Y-76800865D01*
X120707765Y-76802773D01*
X120754641Y-76800606D01*
X120759214Y-76800500D01*
X120773265Y-76800500D01*
X120777844Y-76800500D01*
X120782344Y-76799658D01*
X120786907Y-76799235D01*
X120786926Y-76799446D01*
X120791572Y-76798898D01*
X120819992Y-76797585D01*
X120828980Y-76793615D01*
X120850778Y-76786865D01*
X120860433Y-76785061D01*
X120884617Y-76770086D01*
X120896738Y-76763698D01*
X120903824Y-76760568D01*
X120922765Y-76752206D01*
X120929713Y-76745257D01*
X120947596Y-76731092D01*
X120955952Y-76725919D01*
X120973099Y-76703211D01*
X120982086Y-76692883D01*
X121845475Y-75829496D01*
X121877593Y-75808036D01*
X121915479Y-75800500D01*
X123334521Y-75800500D01*
X123372407Y-75808036D01*
G37*
%TD.AperFunction*%
%TA.AperFunction,Conductor*%
G36*
X125570004Y-74147151D02*
G01*
X125632489Y-74209636D01*
X125639858Y-74213238D01*
X125643023Y-74215498D01*
X125673522Y-74250760D01*
X125684500Y-74296071D01*
X125684500Y-74880148D01*
X125672390Y-74927594D01*
X125639024Y-74963432D01*
X125622929Y-74973775D01*
X125622926Y-74973777D01*
X125616972Y-74977604D01*
X125612335Y-74982954D01*
X125612333Y-74982957D01*
X125527363Y-75081018D01*
X125527360Y-75081022D01*
X125522723Y-75086374D01*
X125519780Y-75092817D01*
X125519778Y-75092821D01*
X125465878Y-75210844D01*
X125465876Y-75210849D01*
X125462935Y-75217290D01*
X125461927Y-75224298D01*
X125461926Y-75224303D01*
X125447855Y-75322175D01*
X125442453Y-75359747D01*
X125443461Y-75366758D01*
X125461926Y-75495190D01*
X125461927Y-75495193D01*
X125462935Y-75502204D01*
X125489044Y-75559374D01*
X125497739Y-75607562D01*
X125482275Y-75654023D01*
X125446437Y-75687390D01*
X125398991Y-75699500D01*
X124165479Y-75699500D01*
X124127593Y-75691964D01*
X124095475Y-75670504D01*
X123861659Y-75436688D01*
X123834348Y-75384874D01*
X123841099Y-75326694D01*
X123879546Y-75282514D01*
X123899616Y-75270087D01*
X123911738Y-75263698D01*
X123924289Y-75258156D01*
X123937765Y-75252206D01*
X123944713Y-75245257D01*
X123962596Y-75231092D01*
X123970952Y-75225919D01*
X123988096Y-75203215D01*
X123997090Y-75192880D01*
X124890476Y-74299496D01*
X124922593Y-74278036D01*
X124960479Y-74270500D01*
X125191950Y-74270500D01*
X125195528Y-74270500D01*
X125263170Y-74260645D01*
X125367511Y-74209636D01*
X125429995Y-74147151D01*
X125474377Y-74121528D01*
X125525623Y-74121528D01*
X125570004Y-74147151D01*
G37*
%TD.AperFunction*%
%TD*%
D28*
X118800000Y-77000000D03*
X118500000Y-86250000D03*
X125500000Y-83750000D03*
X119000000Y-78700000D03*
X117150000Y-77000000D03*
X113000000Y-83100000D03*
X125750000Y-77250000D03*
X127500000Y-84250000D03*
X125750000Y-78250000D03*
X121250000Y-86250000D03*
X119000000Y-81250000D03*
X124692721Y-75388444D03*
X119000000Y-80000000D03*
X117150000Y-78200000D03*
X127500000Y-75500000D03*
X113000000Y-73000000D03*
X124750000Y-84500000D03*
X113000000Y-71750000D03*
X118079264Y-83883155D03*
X125750000Y-79250000D03*
X113000000Y-81800000D03*
X117051900Y-75073786D03*
X125948100Y-75359747D03*
X117750000Y-82198100D03*
X115000000Y-84000000D03*
X116145700Y-83301900D03*
X117250000Y-83883155D03*
X118400000Y-80600000D03*
X116268904Y-80999655D03*
X116345455Y-76095455D03*
X115517127Y-81013378D03*
X114750000Y-81000000D03*
X115571567Y-76088838D03*
D29*
X115000000Y-87628400D03*
X115000000Y-89000000D03*
X117540000Y-87628400D03*
X117540000Y-89000000D03*
X120080000Y-87628400D03*
X120080000Y-89000000D03*
X122620000Y-87628400D03*
X122620000Y-89000000D03*
X122620000Y-71000000D03*
X122620000Y-72388400D03*
X120080000Y-71000000D03*
X120080000Y-72388400D03*
X117540000Y-71000000D03*
X117540000Y-72388400D03*
X115000000Y-71000000D03*
X115000000Y-72388400D03*
X122900000Y-77500000D03*
X122900000Y-80000000D03*
X122900000Y-82500000D03*
M02*
