%TF.GenerationSoftware,KiCad,Pcbnew,8.0.0*%
%TF.CreationDate,2024-03-16T22:16:42+01:00*%
%TF.ProjectId,Dynamixel Interface Pro,44796e61-6d69-4786-956c-20496e746572,rev?*%
%TF.SameCoordinates,Original*%
%TF.FileFunction,Copper,L2,Bot*%
%TF.FilePolarity,Positive*%
%FSLAX46Y46*%
G04 Gerber Fmt 4.6, Leading zero omitted, Abs format (unit mm)*
G04 Created by KiCad (PCBNEW 8.0.0) date 2024-03-16 22:16:42*
%MOMM*%
%LPD*%
G01*
G04 APERTURE LIST*
G04 Aperture macros list*
%AMRoundRect*
0 Rectangle with rounded corners*
0 $1 Rounding radius*
0 $2 $3 $4 $5 $6 $7 $8 $9 X,Y pos of 4 corners*
0 Add a 4 corners polygon primitive as box body*
4,1,4,$2,$3,$4,$5,$6,$7,$8,$9,$2,$3,0*
0 Add four circle primitives for the rounded corners*
1,1,$1+$1,$2,$3*
1,1,$1+$1,$4,$5*
1,1,$1+$1,$6,$7*
1,1,$1+$1,$8,$9*
0 Add four rect primitives between the rounded corners*
20,1,$1+$1,$2,$3,$4,$5,0*
20,1,$1+$1,$4,$5,$6,$7,0*
20,1,$1+$1,$6,$7,$8,$9,0*
20,1,$1+$1,$8,$9,$2,$3,0*%
%AMFreePoly0*
4,1,13,-0.762000,0.747600,-0.750399,0.805921,-0.717363,0.855363,-0.667921,0.888399,-0.609600,0.900000,0.762000,0.900000,0.762000,-0.900000,-0.609600,-0.900000,-0.667921,-0.888399,-0.717363,-0.855363,-0.750399,-0.805921,-0.762000,-0.747600,-0.762000,0.747600,-0.762000,0.747600,$1*%
G04 Aperture macros list end*
%TA.AperFunction,ComponentPad*%
%ADD10RoundRect,0.900000X0.000000X0.000000X0.000000X0.000000X0.000000X0.000000X0.000000X0.000000X0*%
%TD*%
%TA.AperFunction,CastellatedPad*%
%ADD11FreePoly0,270.000000*%
%TD*%
%TA.AperFunction,CastellatedPad*%
%ADD12FreePoly0,90.000000*%
%TD*%
%TA.AperFunction,ComponentPad*%
%ADD13RoundRect,0.900000X0.000000X0.000000X0.000000X0.000000X0.000000X0.000000X0.000000X0.000000X0*%
%TD*%
%TA.AperFunction,ComponentPad*%
%ADD14RoundRect,0.264706X-0.635294X0.635294X-0.635294X-0.635294X0.635294X-0.635294X0.635294X0.635294X0*%
%TD*%
%TA.AperFunction,ComponentPad*%
%ADD15O,1.800000X1.800000*%
%TD*%
%TA.AperFunction,ViaPad*%
%ADD16C,0.600000*%
%TD*%
%TA.AperFunction,Conductor*%
%ADD17C,0.250000*%
%TD*%
%TA.AperFunction,Conductor*%
%ADD18C,0.200000*%
%TD*%
%TA.AperFunction,Conductor*%
%ADD19C,0.600000*%
%TD*%
%ADD20C,0.300000*%
%ADD21C,0.350000*%
G04 APERTURE END LIST*
D10*
%TO.P,FP0,1,RXD*%
%TO.N,RXDL*%
X115000000Y-87628400D03*
D11*
X115000000Y-88240000D03*
D10*
%TO.P,FP0,2,TXD*%
%TO.N,TXDL*%
X117540000Y-87628400D03*
D11*
X117540000Y-88240000D03*
D10*
%TO.P,FP0,3,CTRL*%
%TO.N,CTRLL*%
X120080000Y-87628400D03*
D11*
X120080000Y-88240000D03*
D10*
%TO.P,FP0,4,DATAL*%
%TO.N,DATAL*%
X122620000Y-87628400D03*
D11*
X122620000Y-88240000D03*
D12*
%TO.P,FP0,5,DATA*%
%TO.N,VDC*%
X122620000Y-71760000D03*
D13*
X122620000Y-72388400D03*
D12*
%TO.P,FP0,6,VMOT*%
%TO.N,VDD*%
X120080000Y-71760000D03*
D13*
X120080000Y-72388400D03*
D12*
%TO.P,FP0,7,GND*%
%TO.N,GND*%
X117540000Y-71760000D03*
D13*
X117540000Y-72388400D03*
D12*
%TO.P,FP0,8,VDD*%
%TO.N,VCC*%
X115000000Y-71760000D03*
D13*
X115000000Y-72388400D03*
%TD*%
D14*
%TO.P,J1,1,Pin_1*%
%TO.N,GND*%
X122900000Y-77500000D03*
D15*
%TO.P,J1,2,Pin_2*%
%TO.N,VDC*%
X122900000Y-80000000D03*
%TO.P,J1,3,Pin_3*%
%TO.N,DATA*%
X122900000Y-82500000D03*
%TD*%
D16*
%TO.N,VDD*%
X118800000Y-77000000D03*
%TO.N,GND*%
X118500000Y-86250000D03*
X125500000Y-83750000D03*
X119000000Y-78700000D03*
X117150000Y-77000000D03*
X113000000Y-83100000D03*
X125750000Y-77250000D03*
X127500000Y-84250000D03*
X125750000Y-78250000D03*
X121250000Y-86250000D03*
X119000000Y-81250000D03*
X124692721Y-75388444D03*
X119000000Y-80000000D03*
X117150000Y-78200000D03*
X127500000Y-75500000D03*
X113000000Y-73000000D03*
X124750000Y-84500000D03*
X113000000Y-71750000D03*
X118079264Y-83883155D03*
X125750000Y-79250000D03*
X113000000Y-81800000D03*
%TO.N,VCC*%
X117051900Y-75073786D03*
%TO.N,CTRLL*%
X125948100Y-75359747D03*
X117750000Y-82198100D03*
%TO.N,RXDL*%
X115000000Y-84000000D03*
%TO.N,TXDL*%
X116145700Y-83301900D03*
%TO.N,DATAL*%
X117250000Y-83883155D03*
%TO.N,DATA*%
X118400000Y-80600000D03*
X116268904Y-80999655D03*
%TO.N,TXD*%
X116345455Y-76095455D03*
X115517127Y-81013378D03*
%TO.N,RXD*%
X114750000Y-81000000D03*
X115571567Y-76088838D03*
%TD*%
D17*
%TO.N,VDD*%
X120080000Y-74170000D02*
X120080000Y-72388400D01*
X118800000Y-77000000D02*
X118800000Y-75450000D01*
X118800000Y-75450000D02*
X120080000Y-74170000D01*
D18*
%TO.N,VCC*%
X117051900Y-75073786D02*
X115673786Y-75073786D01*
X115673786Y-75073786D02*
X115000000Y-74400000D01*
X115000000Y-74400000D02*
X115000000Y-72388400D01*
%TO.N,CTRLL*%
X119602400Y-85602400D02*
X117478216Y-85602400D01*
X119448100Y-82198100D02*
X117750000Y-82198100D01*
X117478216Y-85602400D02*
X116697600Y-84821784D01*
X121500000Y-84250000D02*
X119448100Y-82198100D01*
X125000000Y-83250000D02*
X124000000Y-84250000D01*
X116697600Y-84821784D02*
X116697600Y-83250500D01*
X125000000Y-76307847D02*
X125000000Y-83250000D01*
X116697600Y-83250500D02*
X117750000Y-82198100D01*
X120080000Y-86080000D02*
X119602400Y-85602400D01*
X125948100Y-75359747D02*
X125000000Y-76307847D01*
X124000000Y-84250000D02*
X121500000Y-84250000D01*
X120080000Y-87628400D02*
X120080000Y-86080000D01*
%TO.N,RXDL*%
X115000000Y-87628400D02*
X115000000Y-84000000D01*
%TO.N,TXDL*%
X116250000Y-83406200D02*
X116250000Y-85000000D01*
X117540000Y-86290000D02*
X117540000Y-87628400D01*
X116145700Y-83301900D02*
X116250000Y-83406200D01*
X116250000Y-85000000D02*
X117540000Y-86290000D01*
%TO.N,DATAL*%
X117250000Y-83801900D02*
X117250000Y-84750000D01*
X121750000Y-85250000D02*
X122620000Y-86120000D01*
X122620000Y-86120000D02*
X122620000Y-87628400D01*
X117750000Y-85250000D02*
X121750000Y-85250000D01*
X117250000Y-84750000D02*
X117750000Y-85250000D01*
%TO.N,DATA*%
X118000345Y-80999655D02*
X116268904Y-80999655D01*
X118400000Y-80600000D02*
X118000345Y-80999655D01*
%TO.N,TXD*%
X115750000Y-80780505D02*
X115517127Y-81013378D01*
X115750000Y-76690910D02*
X115750000Y-80780505D01*
X116345455Y-76095455D02*
X115750000Y-76690910D01*
%TO.N,RXD*%
X115250000Y-76410405D02*
X115250000Y-80500000D01*
X115571567Y-76088838D02*
X115250000Y-76410405D01*
X115250000Y-80500000D02*
X114750000Y-81000000D01*
D19*
%TO.N,VDC*%
X121750000Y-80000000D02*
X121000000Y-79250000D01*
X122900000Y-80000000D02*
X121750000Y-80000000D01*
X122620000Y-74630000D02*
X122620000Y-72388400D01*
X121000000Y-76250000D02*
X122620000Y-74630000D01*
X121000000Y-79250000D02*
X121000000Y-76250000D01*
%TD*%
%TA.AperFunction,Conductor*%
%TO.N,GND*%
G36*
X113850000Y-71166163D02*
G01*
X113886237Y-71202400D01*
X113899500Y-71251900D01*
X113899500Y-72304362D01*
X113899500Y-72472438D01*
X113899585Y-72473869D01*
X113899586Y-72473894D01*
X113902081Y-72515762D01*
X113902312Y-72519645D01*
X113903125Y-72523386D01*
X113903126Y-72523387D01*
X113945985Y-72720410D01*
X113945987Y-72720418D01*
X113946987Y-72725012D01*
X113948837Y-72729333D01*
X113948840Y-72729341D01*
X114027865Y-72913881D01*
X114027869Y-72913888D01*
X114029721Y-72918213D01*
X114032361Y-72922114D01*
X114032363Y-72922117D01*
X114144662Y-73088039D01*
X114147523Y-73092265D01*
X114296135Y-73240877D01*
X114470187Y-73358679D01*
X114474519Y-73360534D01*
X114639472Y-73431172D01*
X114683141Y-73467668D01*
X114699500Y-73522179D01*
X114699500Y-74346802D01*
X114699134Y-74352074D01*
X114697227Y-74357765D01*
X114697650Y-74366927D01*
X114697650Y-74366932D01*
X114699394Y-74404642D01*
X114699500Y-74409214D01*
X114699500Y-74427844D01*
X114700342Y-74432351D01*
X114700764Y-74436899D01*
X114700566Y-74436917D01*
X114701101Y-74441576D01*
X114701991Y-74460824D01*
X114702415Y-74469992D01*
X114706385Y-74478984D01*
X114713132Y-74500772D01*
X114714939Y-74510433D01*
X114719766Y-74518230D01*
X114719767Y-74518231D01*
X114729911Y-74534615D01*
X114736300Y-74546736D01*
X114747794Y-74572765D01*
X114754277Y-74579248D01*
X114754278Y-74579249D01*
X114754743Y-74579714D01*
X114768908Y-74597598D01*
X114774081Y-74605952D01*
X114796772Y-74623087D01*
X114807116Y-74632087D01*
X115423682Y-75248653D01*
X115427153Y-75252642D01*
X115429828Y-75258014D01*
X115436604Y-75264191D01*
X115464510Y-75289631D01*
X115467818Y-75292789D01*
X115480989Y-75305960D01*
X115484759Y-75308543D01*
X115488282Y-75311468D01*
X115488148Y-75311629D01*
X115491825Y-75314532D01*
X115512853Y-75333702D01*
X115522012Y-75337250D01*
X115542202Y-75347891D01*
X115550305Y-75353442D01*
X115559233Y-75355541D01*
X115559236Y-75355543D01*
X115577993Y-75359955D01*
X115591092Y-75364011D01*
X115617613Y-75374286D01*
X115627438Y-75374286D01*
X115650104Y-75376916D01*
X115650424Y-75376990D01*
X115659667Y-75379165D01*
X115687839Y-75375234D01*
X115701517Y-75374286D01*
X116604817Y-75374286D01*
X116645943Y-75383233D01*
X116679632Y-75408451D01*
X116720772Y-75455929D01*
X116726726Y-75459755D01*
X116726728Y-75459757D01*
X116781863Y-75495190D01*
X116841847Y-75533739D01*
X116979939Y-75574286D01*
X117116783Y-75574286D01*
X117123861Y-75574286D01*
X117261953Y-75533739D01*
X117383028Y-75455929D01*
X117477277Y-75347159D01*
X117537065Y-75216243D01*
X117557547Y-75073786D01*
X117537065Y-74931329D01*
X117477277Y-74800413D01*
X117383028Y-74691643D01*
X117377074Y-74687816D01*
X117377071Y-74687814D01*
X117267910Y-74617661D01*
X117267908Y-74617660D01*
X117261953Y-74613833D01*
X117235112Y-74605952D01*
X117130652Y-74575280D01*
X117123861Y-74573286D01*
X116979939Y-74573286D01*
X116973148Y-74575279D01*
X116973147Y-74575280D01*
X116848640Y-74611838D01*
X116848637Y-74611839D01*
X116841847Y-74613833D01*
X116835894Y-74617658D01*
X116835889Y-74617661D01*
X116726728Y-74687814D01*
X116726722Y-74687819D01*
X116720772Y-74691643D01*
X116679632Y-74739120D01*
X116645943Y-74764339D01*
X116604817Y-74773286D01*
X115839265Y-74773286D01*
X115801379Y-74765750D01*
X115769261Y-74744290D01*
X115329496Y-74304525D01*
X115308036Y-74272407D01*
X115300500Y-74234521D01*
X115300500Y-73522179D01*
X115316859Y-73467668D01*
X115360528Y-73431172D01*
X115441442Y-73396521D01*
X115529813Y-73358679D01*
X115703865Y-73240877D01*
X115852477Y-73092265D01*
X115970279Y-72918213D01*
X116053013Y-72725012D01*
X116097688Y-72519645D01*
X116098744Y-72501911D01*
X116441758Y-72501911D01*
X116442583Y-72515762D01*
X116443624Y-72523324D01*
X116486462Y-72720250D01*
X116489322Y-72729196D01*
X116568306Y-72913642D01*
X116572800Y-72921872D01*
X116685266Y-73088039D01*
X116691242Y-73095277D01*
X116833122Y-73237157D01*
X116840360Y-73243133D01*
X117006527Y-73355599D01*
X117014757Y-73360093D01*
X117199203Y-73439077D01*
X117208149Y-73441937D01*
X117405071Y-73484774D01*
X117412640Y-73485816D01*
X117426491Y-73486642D01*
X117437089Y-73484358D01*
X117440000Y-73473913D01*
X117440000Y-73473912D01*
X117640000Y-73473912D01*
X117642909Y-73484356D01*
X117653511Y-73486641D01*
X117667362Y-73485816D01*
X117674924Y-73484775D01*
X117871850Y-73441937D01*
X117880796Y-73439077D01*
X118065242Y-73360093D01*
X118073472Y-73355599D01*
X118239639Y-73243133D01*
X118246877Y-73237157D01*
X118388757Y-73095277D01*
X118394733Y-73088039D01*
X118507199Y-72921872D01*
X118511693Y-72913642D01*
X118590677Y-72729196D01*
X118593537Y-72720250D01*
X118636374Y-72523328D01*
X118637416Y-72515759D01*
X118638242Y-72501908D01*
X118635958Y-72491310D01*
X118625513Y-72488400D01*
X117653033Y-72488400D01*
X117642754Y-72491154D01*
X117640000Y-72501433D01*
X117640000Y-73473912D01*
X117440000Y-73473912D01*
X117440000Y-72501433D01*
X117437245Y-72491154D01*
X117426967Y-72488400D01*
X116454488Y-72488400D01*
X116444043Y-72491309D01*
X116441758Y-72501911D01*
X116098744Y-72501911D01*
X116100500Y-72472438D01*
X116100500Y-72304362D01*
X116100500Y-72275367D01*
X116440000Y-72275367D01*
X116442754Y-72285645D01*
X116453033Y-72288400D01*
X118626967Y-72288400D01*
X118637245Y-72285645D01*
X118640000Y-72275367D01*
X118640000Y-71873033D01*
X118637245Y-71862754D01*
X118626967Y-71860000D01*
X116453033Y-71860000D01*
X116442754Y-71862754D01*
X116440000Y-71873033D01*
X116440000Y-72275367D01*
X116100500Y-72275367D01*
X116100500Y-71251900D01*
X116113763Y-71202400D01*
X116150000Y-71166163D01*
X116199500Y-71152900D01*
X116341000Y-71152900D01*
X116390500Y-71166163D01*
X116426737Y-71202400D01*
X116440000Y-71251900D01*
X116440000Y-71646967D01*
X116442754Y-71657245D01*
X116453033Y-71660000D01*
X118626967Y-71660000D01*
X118637245Y-71657245D01*
X118640000Y-71646967D01*
X118640000Y-71251900D01*
X118653263Y-71202400D01*
X118689500Y-71166163D01*
X118739000Y-71152900D01*
X118880500Y-71152900D01*
X118930000Y-71166163D01*
X118966237Y-71202400D01*
X118979500Y-71251900D01*
X118979500Y-72304362D01*
X118979500Y-72472438D01*
X118979585Y-72473869D01*
X118979586Y-72473894D01*
X118982081Y-72515762D01*
X118982312Y-72519645D01*
X118983125Y-72523386D01*
X118983126Y-72523387D01*
X119025985Y-72720410D01*
X119025987Y-72720418D01*
X119026987Y-72725012D01*
X119028837Y-72729333D01*
X119028840Y-72729341D01*
X119107865Y-72913881D01*
X119107869Y-72913888D01*
X119109721Y-72918213D01*
X119112361Y-72922114D01*
X119112363Y-72922117D01*
X119224662Y-73088039D01*
X119227523Y-73092265D01*
X119376135Y-73240877D01*
X119550187Y-73358679D01*
X119554519Y-73360534D01*
X119694472Y-73420466D01*
X119738141Y-73456962D01*
X119754500Y-73511473D01*
X119754500Y-73994165D01*
X119746964Y-74032051D01*
X119725504Y-74064169D01*
X118582940Y-75206732D01*
X118576574Y-75212564D01*
X118553442Y-75231974D01*
X118553434Y-75231982D01*
X118546806Y-75237545D01*
X118542477Y-75245042D01*
X118542475Y-75245045D01*
X118527370Y-75271206D01*
X118522734Y-75278483D01*
X118505414Y-75303219D01*
X118505411Y-75303223D01*
X118500446Y-75310316D01*
X118498205Y-75318678D01*
X118495737Y-75323971D01*
X118493739Y-75329459D01*
X118489412Y-75336955D01*
X118487909Y-75345475D01*
X118487906Y-75345485D01*
X118482662Y-75375224D01*
X118480795Y-75383649D01*
X118472976Y-75412830D01*
X118472975Y-75412834D01*
X118470736Y-75421193D01*
X118471490Y-75429814D01*
X118471490Y-75429819D01*
X118474123Y-75459905D01*
X118474500Y-75468534D01*
X118474500Y-76574437D01*
X118468258Y-76609034D01*
X118450321Y-76639265D01*
X118374623Y-76726627D01*
X118371680Y-76733070D01*
X118371678Y-76733074D01*
X118317778Y-76851097D01*
X118317776Y-76851102D01*
X118314835Y-76857543D01*
X118313827Y-76864551D01*
X118313826Y-76864556D01*
X118295361Y-76992989D01*
X118294353Y-77000000D01*
X118295361Y-77007011D01*
X118313826Y-77135443D01*
X118313827Y-77135446D01*
X118314835Y-77142457D01*
X118374623Y-77273373D01*
X118468872Y-77382143D01*
X118589947Y-77459953D01*
X118728039Y-77500500D01*
X118864883Y-77500500D01*
X118871961Y-77500500D01*
X119010053Y-77459953D01*
X119131128Y-77382143D01*
X119225377Y-77273373D01*
X119285165Y-77142457D01*
X119305647Y-77000000D01*
X119285165Y-76857543D01*
X119225377Y-76726627D01*
X119149678Y-76639265D01*
X119131742Y-76609034D01*
X119125500Y-76574437D01*
X119125500Y-75625834D01*
X119133036Y-75587948D01*
X119154496Y-75555830D01*
X119703534Y-75006792D01*
X120297071Y-74413254D01*
X120303431Y-74407428D01*
X120304019Y-74406935D01*
X120333194Y-74382455D01*
X120352637Y-74348776D01*
X120357249Y-74341536D01*
X120379554Y-74309684D01*
X120381796Y-74301312D01*
X120384261Y-74296027D01*
X120386254Y-74290549D01*
X120390588Y-74283045D01*
X120397341Y-74244743D01*
X120399198Y-74236366D01*
X120409263Y-74198807D01*
X120405877Y-74160103D01*
X120405500Y-74151475D01*
X120405500Y-73511473D01*
X120421859Y-73456962D01*
X120465528Y-73420466D01*
X120502198Y-73404762D01*
X120609813Y-73358679D01*
X120783865Y-73240877D01*
X120932477Y-73092265D01*
X121050279Y-72918213D01*
X121133013Y-72725012D01*
X121177688Y-72519645D01*
X121180500Y-72472438D01*
X121180500Y-72304362D01*
X121180500Y-71251900D01*
X121193763Y-71202400D01*
X121230000Y-71166163D01*
X121279500Y-71152900D01*
X121420500Y-71152900D01*
X121470000Y-71166163D01*
X121506237Y-71202400D01*
X121519500Y-71251900D01*
X121519500Y-72304362D01*
X121519500Y-72472438D01*
X121519585Y-72473869D01*
X121519586Y-72473894D01*
X121522081Y-72515762D01*
X121522312Y-72519645D01*
X121523125Y-72523386D01*
X121523126Y-72523387D01*
X121565985Y-72720410D01*
X121565987Y-72720418D01*
X121566987Y-72725012D01*
X121568837Y-72729333D01*
X121568840Y-72729341D01*
X121647865Y-72913881D01*
X121647869Y-72913888D01*
X121649721Y-72918213D01*
X121652361Y-72922114D01*
X121652363Y-72922117D01*
X121764662Y-73088039D01*
X121767523Y-73092265D01*
X121916135Y-73240877D01*
X121920039Y-73243519D01*
X121920040Y-73243520D01*
X122075990Y-73349070D01*
X122107949Y-73384649D01*
X122119500Y-73431057D01*
X122119500Y-74381678D01*
X122111964Y-74419564D01*
X122090504Y-74451682D01*
X120691666Y-75850518D01*
X120675198Y-75863790D01*
X120674833Y-75864024D01*
X120674825Y-75864030D01*
X120668872Y-75867857D01*
X120664239Y-75873203D01*
X120664234Y-75873208D01*
X120635761Y-75906067D01*
X120630953Y-75911231D01*
X120623282Y-75918902D01*
X120623270Y-75918915D01*
X120620779Y-75921407D01*
X120618670Y-75924223D01*
X120618657Y-75924239D01*
X120612149Y-75932934D01*
X120607718Y-75938432D01*
X120579259Y-75971276D01*
X120579257Y-75971278D01*
X120574623Y-75976627D01*
X120571683Y-75983063D01*
X120571679Y-75983070D01*
X120571501Y-75983461D01*
X120560712Y-76001646D01*
X120560447Y-76001999D01*
X120560444Y-76002004D01*
X120556204Y-76007669D01*
X120553731Y-76014296D01*
X120553728Y-76014304D01*
X120538534Y-76055040D01*
X120535831Y-76061565D01*
X120517775Y-76101102D01*
X120517772Y-76101110D01*
X120514835Y-76107543D01*
X120513828Y-76114544D01*
X120513825Y-76114555D01*
X120513763Y-76114989D01*
X120508537Y-76135466D01*
X120508383Y-76135877D01*
X120508379Y-76135891D01*
X120505909Y-76142517D01*
X120505404Y-76149574D01*
X120505404Y-76149575D01*
X120502302Y-76192938D01*
X120501547Y-76199959D01*
X120500002Y-76210702D01*
X120500001Y-76210715D01*
X120499500Y-76214201D01*
X120499500Y-76217735D01*
X120499500Y-76228581D01*
X120499248Y-76235644D01*
X120497399Y-76261499D01*
X120495641Y-76286073D01*
X120497145Y-76292989D01*
X120497146Y-76292994D01*
X120497237Y-76293408D01*
X120499500Y-76314454D01*
X120499500Y-79185546D01*
X120497237Y-79206592D01*
X120497146Y-79207005D01*
X120497145Y-79207010D01*
X120495641Y-79213927D01*
X120496146Y-79220988D01*
X120496146Y-79220990D01*
X120499248Y-79264356D01*
X120499500Y-79271419D01*
X120499500Y-79285799D01*
X120500000Y-79289283D01*
X120500002Y-79289299D01*
X120501547Y-79300042D01*
X120502302Y-79307063D01*
X120505909Y-79357483D01*
X120508380Y-79364111D01*
X120508382Y-79364116D01*
X120508533Y-79364520D01*
X120513764Y-79385014D01*
X120513825Y-79385443D01*
X120513827Y-79385452D01*
X120514835Y-79392457D01*
X120517775Y-79398896D01*
X120517776Y-79398897D01*
X120535835Y-79438441D01*
X120538539Y-79444970D01*
X120553730Y-79485700D01*
X120553732Y-79485704D01*
X120556204Y-79492331D01*
X120560442Y-79497992D01*
X120560444Y-79497996D01*
X120560706Y-79498345D01*
X120571504Y-79516544D01*
X120574623Y-79523373D01*
X120607728Y-79561578D01*
X120612147Y-79567062D01*
X120620779Y-79578593D01*
X120623273Y-79581087D01*
X120623274Y-79581088D01*
X120630961Y-79588775D01*
X120635776Y-79593948D01*
X120668872Y-79632143D01*
X120675186Y-79636201D01*
X120691666Y-79649480D01*
X121350518Y-80308332D01*
X121363796Y-80324810D01*
X121364025Y-80325167D01*
X121364028Y-80325171D01*
X121367857Y-80331128D01*
X121373206Y-80335763D01*
X121373208Y-80335765D01*
X121406057Y-80364228D01*
X121411230Y-80369044D01*
X121421407Y-80379221D01*
X121432939Y-80387854D01*
X121438407Y-80392259D01*
X121476627Y-80425377D01*
X121483454Y-80428494D01*
X121501650Y-80439291D01*
X121501997Y-80439551D01*
X121502001Y-80439553D01*
X121507669Y-80443796D01*
X121544527Y-80457543D01*
X121555029Y-80461460D01*
X121561560Y-80464165D01*
X121601103Y-80482224D01*
X121607543Y-80485165D01*
X121614749Y-80486200D01*
X121614970Y-80486233D01*
X121635487Y-80491469D01*
X121642517Y-80494091D01*
X121692957Y-80497698D01*
X121699950Y-80498450D01*
X121714201Y-80500500D01*
X121728581Y-80500500D01*
X121735644Y-80500752D01*
X121786073Y-80504359D01*
X121793410Y-80502762D01*
X121814454Y-80500500D01*
X121858536Y-80500500D01*
X121910653Y-80515329D01*
X121947156Y-80555371D01*
X121960327Y-80581821D01*
X121963079Y-80585465D01*
X121963082Y-80585470D01*
X121987540Y-80617857D01*
X122083236Y-80744579D01*
X122233959Y-80881981D01*
X122407363Y-80989348D01*
X122411630Y-80991001D01*
X122593274Y-81061370D01*
X122593275Y-81061370D01*
X122597544Y-81063024D01*
X122798024Y-81100500D01*
X122997393Y-81100500D01*
X123001976Y-81100500D01*
X123202456Y-81063024D01*
X123392637Y-80989348D01*
X123566041Y-80881981D01*
X123716764Y-80744579D01*
X123839673Y-80581821D01*
X123930582Y-80399250D01*
X123986397Y-80203083D01*
X124005215Y-80000000D01*
X123986397Y-79796917D01*
X123930582Y-79600750D01*
X123839673Y-79418179D01*
X123832463Y-79408632D01*
X123739704Y-79285799D01*
X123716764Y-79255421D01*
X123566041Y-79118019D01*
X123392637Y-79010652D01*
X123388374Y-79009000D01*
X123388369Y-79008998D01*
X123206725Y-78938629D01*
X123206717Y-78938626D01*
X123202456Y-78936976D01*
X123197952Y-78936134D01*
X123006482Y-78900342D01*
X123006478Y-78900341D01*
X123001976Y-78899500D01*
X122798024Y-78899500D01*
X122793522Y-78900341D01*
X122793517Y-78900342D01*
X122602047Y-78936134D01*
X122602044Y-78936134D01*
X122597544Y-78936976D01*
X122593285Y-78938625D01*
X122593274Y-78938629D01*
X122411630Y-79008998D01*
X122411621Y-79009002D01*
X122407363Y-79010652D01*
X122403477Y-79013057D01*
X122403473Y-79013060D01*
X122237847Y-79115611D01*
X122237842Y-79115614D01*
X122233959Y-79118019D01*
X122230584Y-79121095D01*
X122230577Y-79121101D01*
X122086612Y-79252343D01*
X122083236Y-79255421D01*
X122080485Y-79259063D01*
X122080483Y-79259066D01*
X121992603Y-79375438D01*
X121947936Y-79408632D01*
X121892420Y-79412485D01*
X121843595Y-79385781D01*
X121529496Y-79071682D01*
X121508036Y-79039564D01*
X121500500Y-79001678D01*
X121500500Y-78188954D01*
X121800001Y-78188954D01*
X121800216Y-78193570D01*
X121802382Y-78216669D01*
X121804933Y-78228349D01*
X121846761Y-78347885D01*
X121853617Y-78360858D01*
X121927988Y-78461627D01*
X121938372Y-78472011D01*
X122039141Y-78546382D01*
X122052114Y-78553238D01*
X122171648Y-78595065D01*
X122183331Y-78597618D01*
X122206434Y-78599784D01*
X122211042Y-78600000D01*
X122786967Y-78600000D01*
X122797245Y-78597245D01*
X122800000Y-78586967D01*
X122800000Y-78586966D01*
X123000000Y-78586966D01*
X123002754Y-78597244D01*
X123013033Y-78599999D01*
X123588954Y-78599999D01*
X123593570Y-78599783D01*
X123616669Y-78597617D01*
X123628349Y-78595066D01*
X123747885Y-78553238D01*
X123760858Y-78546382D01*
X123861627Y-78472011D01*
X123872011Y-78461627D01*
X123946382Y-78360858D01*
X123953238Y-78347885D01*
X123995065Y-78228351D01*
X123997618Y-78216668D01*
X123999784Y-78193565D01*
X124000000Y-78188958D01*
X124000000Y-77613033D01*
X123997245Y-77602754D01*
X123986967Y-77600000D01*
X123013033Y-77600000D01*
X123002754Y-77602754D01*
X123000000Y-77613033D01*
X123000000Y-78586966D01*
X122800000Y-78586966D01*
X122800000Y-77613033D01*
X122797245Y-77602754D01*
X122786967Y-77600000D01*
X121813034Y-77600000D01*
X121802755Y-77602754D01*
X121800001Y-77613033D01*
X121800001Y-78188954D01*
X121500500Y-78188954D01*
X121500500Y-77386967D01*
X121800000Y-77386967D01*
X121802754Y-77397245D01*
X121813033Y-77400000D01*
X122786967Y-77400000D01*
X122797245Y-77397245D01*
X122800000Y-77386967D01*
X123000000Y-77386967D01*
X123002754Y-77397245D01*
X123013033Y-77400000D01*
X123986966Y-77400000D01*
X123997244Y-77397245D01*
X123999999Y-77386967D01*
X123999999Y-76811046D01*
X123999783Y-76806429D01*
X123997617Y-76783330D01*
X123995066Y-76771650D01*
X123953238Y-76652114D01*
X123946382Y-76639141D01*
X123872011Y-76538372D01*
X123861627Y-76527988D01*
X123760858Y-76453617D01*
X123747885Y-76446761D01*
X123628351Y-76404934D01*
X123616668Y-76402381D01*
X123593565Y-76400215D01*
X123588958Y-76400000D01*
X123013033Y-76400000D01*
X123002754Y-76402754D01*
X123000000Y-76413033D01*
X123000000Y-77386967D01*
X122800000Y-77386967D01*
X122800000Y-76413034D01*
X122797245Y-76402755D01*
X122786967Y-76400001D01*
X122211046Y-76400001D01*
X122206429Y-76400216D01*
X122183330Y-76402382D01*
X122171650Y-76404933D01*
X122052114Y-76446761D01*
X122039141Y-76453617D01*
X121938372Y-76527988D01*
X121927988Y-76538372D01*
X121853617Y-76639141D01*
X121846761Y-76652114D01*
X121804934Y-76771648D01*
X121802381Y-76783331D01*
X121800215Y-76806434D01*
X121800000Y-76811042D01*
X121800000Y-77386967D01*
X121500500Y-77386967D01*
X121500500Y-76498322D01*
X121508036Y-76460436D01*
X121529496Y-76428318D01*
X121875987Y-76081827D01*
X122928334Y-75029478D01*
X122944819Y-75016197D01*
X122951128Y-75012143D01*
X122984243Y-74973923D01*
X122989048Y-74968765D01*
X122999221Y-74958593D01*
X123007866Y-74947042D01*
X123012252Y-74941599D01*
X123045377Y-74903373D01*
X123048494Y-74896546D01*
X123059297Y-74878340D01*
X123063796Y-74872331D01*
X123081462Y-74824962D01*
X123084167Y-74818434D01*
X123102222Y-74778900D01*
X123105165Y-74772457D01*
X123106233Y-74765024D01*
X123111469Y-74744511D01*
X123114091Y-74737483D01*
X123117698Y-74687043D01*
X123118450Y-74680049D01*
X123120500Y-74665799D01*
X123120500Y-74651419D01*
X123120752Y-74644356D01*
X123123854Y-74600990D01*
X123123853Y-74600988D01*
X123124359Y-74593927D01*
X123122762Y-74586589D01*
X123120500Y-74565546D01*
X123120500Y-73431057D01*
X123132051Y-73384649D01*
X123164010Y-73349070D01*
X123323865Y-73240877D01*
X123472477Y-73092265D01*
X123590279Y-72918213D01*
X123673013Y-72725012D01*
X123717688Y-72519645D01*
X123720500Y-72472438D01*
X123720500Y-72304362D01*
X123720500Y-71251900D01*
X123733763Y-71202400D01*
X123770000Y-71166163D01*
X123819500Y-71152900D01*
X128965102Y-71152900D01*
X128995139Y-71152900D01*
X129004842Y-71153376D01*
X129155557Y-71168221D01*
X129174590Y-71172007D01*
X129314847Y-71214553D01*
X129332764Y-71221975D01*
X129462028Y-71291067D01*
X129478157Y-71301844D01*
X129520017Y-71336198D01*
X129591453Y-71394825D01*
X129605174Y-71408546D01*
X129698152Y-71521838D01*
X129708933Y-71537974D01*
X129774157Y-71660000D01*
X129778021Y-71667228D01*
X129785448Y-71685158D01*
X129827992Y-71825409D01*
X129831778Y-71844443D01*
X129846623Y-71995157D01*
X129847100Y-72004861D01*
X129847100Y-87995139D01*
X129846623Y-88004843D01*
X129831778Y-88155556D01*
X129827992Y-88174590D01*
X129785448Y-88314841D01*
X129778021Y-88332771D01*
X129708935Y-88462023D01*
X129698152Y-88478161D01*
X129605174Y-88591453D01*
X129591453Y-88605174D01*
X129478161Y-88698152D01*
X129462023Y-88708935D01*
X129332771Y-88778021D01*
X129314841Y-88785448D01*
X129174590Y-88827992D01*
X129155556Y-88831778D01*
X129004843Y-88846623D01*
X128995139Y-88847100D01*
X123819500Y-88847100D01*
X123770000Y-88833837D01*
X123733763Y-88797600D01*
X123720500Y-88748100D01*
X123720500Y-87545824D01*
X123720500Y-87544362D01*
X123717688Y-87497155D01*
X123673013Y-87291788D01*
X123590279Y-87098587D01*
X123472477Y-86924535D01*
X123323865Y-86775923D01*
X123149813Y-86658121D01*
X123145484Y-86656267D01*
X123145480Y-86656265D01*
X122980528Y-86585628D01*
X122936859Y-86549132D01*
X122920500Y-86494621D01*
X122920500Y-86173199D01*
X122920865Y-86167926D01*
X122922773Y-86162236D01*
X122920606Y-86115359D01*
X122920500Y-86110787D01*
X122920500Y-86096737D01*
X122920500Y-86092156D01*
X122919657Y-86087651D01*
X122919235Y-86083096D01*
X122919446Y-86083076D01*
X122918898Y-86078431D01*
X122917585Y-86050009D01*
X122913618Y-86041025D01*
X122906864Y-86019214D01*
X122905061Y-86009567D01*
X122900233Y-86001770D01*
X122900232Y-86001766D01*
X122890086Y-85985380D01*
X122883693Y-85973252D01*
X122878622Y-85961767D01*
X122872206Y-85947235D01*
X122865257Y-85940286D01*
X122851089Y-85922398D01*
X122850748Y-85921848D01*
X122845919Y-85914048D01*
X122838599Y-85908520D01*
X122838598Y-85908519D01*
X122823222Y-85896908D01*
X122812879Y-85887908D01*
X122000102Y-85075131D01*
X121996632Y-85071143D01*
X121993958Y-85065772D01*
X121959274Y-85034153D01*
X121955966Y-85030995D01*
X121946029Y-85021058D01*
X121946028Y-85021057D01*
X121942797Y-85017826D01*
X121939023Y-85015240D01*
X121935505Y-85012319D01*
X121935633Y-85012164D01*
X121931961Y-85009253D01*
X121910933Y-84990084D01*
X121902380Y-84986770D01*
X121902378Y-84986769D01*
X121901765Y-84986532D01*
X121881586Y-84975895D01*
X121881052Y-84975529D01*
X121881047Y-84975527D01*
X121873481Y-84970344D01*
X121864553Y-84968244D01*
X121864551Y-84968243D01*
X121845796Y-84963832D01*
X121832703Y-84959777D01*
X121814726Y-84952813D01*
X121814723Y-84952812D01*
X121806173Y-84949500D01*
X121797002Y-84949500D01*
X121796348Y-84949500D01*
X121773682Y-84946870D01*
X121773049Y-84946721D01*
X121773046Y-84946720D01*
X121764119Y-84944621D01*
X121755036Y-84945888D01*
X121735947Y-84948551D01*
X121722269Y-84949500D01*
X117915479Y-84949500D01*
X117877593Y-84941964D01*
X117845475Y-84920504D01*
X117579496Y-84654525D01*
X117558036Y-84622407D01*
X117550500Y-84584521D01*
X117550500Y-84335716D01*
X117559445Y-84294592D01*
X117581276Y-84265426D01*
X117581128Y-84265298D01*
X117581127Y-84265298D01*
X117675377Y-84156528D01*
X117735165Y-84025612D01*
X117755647Y-83883155D01*
X117735165Y-83740698D01*
X117675377Y-83609782D01*
X117581128Y-83501012D01*
X117575174Y-83497185D01*
X117575171Y-83497183D01*
X117466010Y-83427030D01*
X117466008Y-83427029D01*
X117460053Y-83423202D01*
X117321961Y-83382655D01*
X117229424Y-83382655D01*
X117174423Y-83365971D01*
X117137960Y-83321541D01*
X117132326Y-83264341D01*
X117159420Y-83213652D01*
X117645474Y-82727597D01*
X117677592Y-82706136D01*
X117715478Y-82698600D01*
X117814883Y-82698600D01*
X117821961Y-82698600D01*
X117960053Y-82658053D01*
X118081128Y-82580243D01*
X118122267Y-82532765D01*
X118155957Y-82507547D01*
X118197083Y-82498600D01*
X119282621Y-82498600D01*
X119320507Y-82506136D01*
X119352625Y-82527596D01*
X121249896Y-84424867D01*
X121253367Y-84428856D01*
X121256042Y-84434228D01*
X121262818Y-84440405D01*
X121290724Y-84465845D01*
X121294031Y-84469002D01*
X121307203Y-84482174D01*
X121310973Y-84484757D01*
X121314496Y-84487682D01*
X121314362Y-84487843D01*
X121318039Y-84490746D01*
X121339067Y-84509916D01*
X121348225Y-84513463D01*
X121368412Y-84524103D01*
X121376519Y-84529657D01*
X121404214Y-84536170D01*
X121417295Y-84540221D01*
X121443827Y-84550500D01*
X121453653Y-84550500D01*
X121476318Y-84553129D01*
X121485881Y-84555379D01*
X121514053Y-84551448D01*
X121527731Y-84550500D01*
X123946802Y-84550500D01*
X123952074Y-84550865D01*
X123957765Y-84552773D01*
X124004641Y-84550606D01*
X124009214Y-84550500D01*
X124023265Y-84550500D01*
X124027844Y-84550500D01*
X124032344Y-84549658D01*
X124036907Y-84549235D01*
X124036926Y-84549446D01*
X124041572Y-84548898D01*
X124069992Y-84547585D01*
X124078980Y-84543615D01*
X124100778Y-84536865D01*
X124110433Y-84535061D01*
X124134617Y-84520086D01*
X124146738Y-84513698D01*
X124155303Y-84509916D01*
X124172765Y-84502206D01*
X124179713Y-84495257D01*
X124197596Y-84481092D01*
X124205952Y-84475919D01*
X124223096Y-84453215D01*
X124232082Y-84442887D01*
X125174878Y-83500092D01*
X125178854Y-83496632D01*
X125184228Y-83493958D01*
X125215868Y-83459249D01*
X125218986Y-83455984D01*
X125232175Y-83442797D01*
X125234768Y-83439009D01*
X125237688Y-83435494D01*
X125237858Y-83435635D01*
X125240753Y-83431952D01*
X125259916Y-83410933D01*
X125263462Y-83401777D01*
X125274109Y-83381577D01*
X125279657Y-83373480D01*
X125286169Y-83345787D01*
X125290225Y-83332693D01*
X125297185Y-83314728D01*
X125300500Y-83306173D01*
X125300500Y-83296346D01*
X125303130Y-83273680D01*
X125305379Y-83264118D01*
X125301449Y-83235944D01*
X125300500Y-83222267D01*
X125300500Y-76473326D01*
X125308036Y-76435440D01*
X125329496Y-76403322D01*
X125843574Y-75889243D01*
X125875692Y-75867783D01*
X125913578Y-75860247D01*
X126012983Y-75860247D01*
X126020061Y-75860247D01*
X126158153Y-75819700D01*
X126279228Y-75741890D01*
X126373477Y-75633120D01*
X126433265Y-75502204D01*
X126453747Y-75359747D01*
X126433265Y-75217290D01*
X126373477Y-75086374D01*
X126279228Y-74977604D01*
X126273274Y-74973777D01*
X126273271Y-74973775D01*
X126164110Y-74903622D01*
X126164108Y-74903621D01*
X126158153Y-74899794D01*
X126147118Y-74896554D01*
X126026852Y-74861241D01*
X126020061Y-74859247D01*
X125876139Y-74859247D01*
X125869348Y-74861240D01*
X125869347Y-74861241D01*
X125744840Y-74897799D01*
X125744837Y-74897800D01*
X125738047Y-74899794D01*
X125732094Y-74903619D01*
X125732089Y-74903622D01*
X125622928Y-74973775D01*
X125622922Y-74973780D01*
X125616972Y-74977604D01*
X125612336Y-74982953D01*
X125612335Y-74982955D01*
X125527363Y-75081018D01*
X125527360Y-75081022D01*
X125522723Y-75086374D01*
X125519780Y-75092817D01*
X125519778Y-75092821D01*
X125465878Y-75210844D01*
X125465876Y-75210849D01*
X125462935Y-75217290D01*
X125461927Y-75224298D01*
X125461926Y-75224303D01*
X125444263Y-75347159D01*
X125442453Y-75359747D01*
X125445542Y-75381230D01*
X125441482Y-75426582D01*
X125417553Y-75465321D01*
X124825131Y-76057743D01*
X124821141Y-76061214D01*
X124815772Y-76063889D01*
X124809595Y-76070664D01*
X124809593Y-76070666D01*
X124784141Y-76098584D01*
X124780990Y-76101884D01*
X124771063Y-76111811D01*
X124771054Y-76111821D01*
X124767826Y-76115050D01*
X124765240Y-76118822D01*
X124762321Y-76122339D01*
X124762178Y-76122220D01*
X124759257Y-76125880D01*
X124746261Y-76140137D01*
X124746259Y-76140139D01*
X124740084Y-76146914D01*
X124736772Y-76155460D01*
X124736770Y-76155465D01*
X124736529Y-76156088D01*
X124725898Y-76176256D01*
X124725530Y-76176793D01*
X124725527Y-76176797D01*
X124720344Y-76184366D01*
X124718244Y-76193293D01*
X124718242Y-76193298D01*
X124713830Y-76212054D01*
X124709777Y-76225142D01*
X124702813Y-76243118D01*
X124702811Y-76243125D01*
X124699500Y-76251674D01*
X124699500Y-76260846D01*
X124699500Y-76261499D01*
X124696870Y-76284165D01*
X124696721Y-76284797D01*
X124696720Y-76284800D01*
X124694621Y-76293728D01*
X124695887Y-76302810D01*
X124695888Y-76302810D01*
X124698551Y-76321900D01*
X124699500Y-76335578D01*
X124699500Y-83084521D01*
X124691964Y-83122407D01*
X124670504Y-83154525D01*
X123904525Y-83920504D01*
X123872407Y-83941964D01*
X123834521Y-83949500D01*
X121665479Y-83949500D01*
X121627593Y-83941964D01*
X121595475Y-83920504D01*
X120174971Y-82500000D01*
X121794785Y-82500000D01*
X121795207Y-82504554D01*
X121813112Y-82697790D01*
X121813603Y-82703083D01*
X121814852Y-82707472D01*
X121814853Y-82707478D01*
X121868164Y-82894845D01*
X121868166Y-82894851D01*
X121869418Y-82899250D01*
X121960327Y-83081821D01*
X121963079Y-83085465D01*
X121963082Y-83085470D01*
X122015230Y-83154525D01*
X122083236Y-83244579D01*
X122233959Y-83381981D01*
X122407363Y-83489348D01*
X122411630Y-83491001D01*
X122593274Y-83561370D01*
X122593275Y-83561370D01*
X122597544Y-83563024D01*
X122798024Y-83600500D01*
X122997393Y-83600500D01*
X123001976Y-83600500D01*
X123202456Y-83563024D01*
X123392637Y-83489348D01*
X123566041Y-83381981D01*
X123716764Y-83244579D01*
X123839673Y-83081821D01*
X123930582Y-82899250D01*
X123986397Y-82703083D01*
X124005215Y-82500000D01*
X123986397Y-82296917D01*
X123930582Y-82100750D01*
X123839673Y-81918179D01*
X123834955Y-81911932D01*
X123766516Y-81821304D01*
X123716764Y-81755421D01*
X123566041Y-81618019D01*
X123392637Y-81510652D01*
X123388374Y-81509000D01*
X123388369Y-81508998D01*
X123206725Y-81438629D01*
X123206717Y-81438626D01*
X123202456Y-81436976D01*
X123197952Y-81436134D01*
X123006482Y-81400342D01*
X123006478Y-81400341D01*
X123001976Y-81399500D01*
X122798024Y-81399500D01*
X122793522Y-81400341D01*
X122793517Y-81400342D01*
X122602047Y-81436134D01*
X122602044Y-81436134D01*
X122597544Y-81436976D01*
X122593285Y-81438625D01*
X122593274Y-81438629D01*
X122411630Y-81508998D01*
X122411621Y-81509002D01*
X122407363Y-81510652D01*
X122403477Y-81513057D01*
X122403473Y-81513060D01*
X122237847Y-81615611D01*
X122237842Y-81615614D01*
X122233959Y-81618019D01*
X122230584Y-81621095D01*
X122230577Y-81621101D01*
X122086612Y-81752343D01*
X122083236Y-81755421D01*
X122080485Y-81759063D01*
X122080483Y-81759066D01*
X121963082Y-81914529D01*
X121963075Y-81914538D01*
X121960327Y-81918179D01*
X121958291Y-81922266D01*
X121958287Y-81922274D01*
X121871460Y-82096648D01*
X121871458Y-82096652D01*
X121869418Y-82100750D01*
X121868167Y-82105144D01*
X121868164Y-82105154D01*
X121814853Y-82292521D01*
X121814851Y-82292529D01*
X121813603Y-82296917D01*
X121794785Y-82500000D01*
X120174971Y-82500000D01*
X119698202Y-82023231D01*
X119694732Y-82019243D01*
X119692058Y-82013872D01*
X119657374Y-81982253D01*
X119654066Y-81979095D01*
X119644129Y-81969158D01*
X119640897Y-81965926D01*
X119637123Y-81963340D01*
X119633605Y-81960419D01*
X119633733Y-81960264D01*
X119630061Y-81957353D01*
X119609033Y-81938184D01*
X119600480Y-81934870D01*
X119600478Y-81934869D01*
X119599865Y-81934632D01*
X119579686Y-81923995D01*
X119579152Y-81923629D01*
X119579147Y-81923627D01*
X119571581Y-81918444D01*
X119562653Y-81916344D01*
X119562651Y-81916343D01*
X119543896Y-81911932D01*
X119530803Y-81907877D01*
X119512826Y-81900913D01*
X119512823Y-81900912D01*
X119504273Y-81897600D01*
X119495102Y-81897600D01*
X119494448Y-81897600D01*
X119471782Y-81894970D01*
X119471149Y-81894821D01*
X119471146Y-81894820D01*
X119462219Y-81892721D01*
X119453136Y-81893988D01*
X119434047Y-81896651D01*
X119420369Y-81897600D01*
X118197083Y-81897600D01*
X118155957Y-81888653D01*
X118122267Y-81863434D01*
X118081128Y-81815957D01*
X118075174Y-81812130D01*
X118075171Y-81812128D01*
X117966010Y-81741975D01*
X117966008Y-81741974D01*
X117960053Y-81738147D01*
X117821961Y-81697600D01*
X117678039Y-81697600D01*
X117671248Y-81699593D01*
X117671247Y-81699594D01*
X117546740Y-81736152D01*
X117546737Y-81736153D01*
X117539947Y-81738147D01*
X117533994Y-81741972D01*
X117533989Y-81741975D01*
X117424828Y-81812128D01*
X117424822Y-81812133D01*
X117418872Y-81815957D01*
X117414236Y-81821306D01*
X117414235Y-81821308D01*
X117329263Y-81919371D01*
X117329260Y-81919375D01*
X117324623Y-81924727D01*
X117321680Y-81931170D01*
X117321678Y-81931174D01*
X117267778Y-82049197D01*
X117267776Y-82049202D01*
X117264835Y-82055643D01*
X117263827Y-82062651D01*
X117263826Y-82062656D01*
X117257716Y-82105154D01*
X117244353Y-82198100D01*
X117247442Y-82219583D01*
X117243382Y-82264935D01*
X117219453Y-82303674D01*
X116609085Y-82914042D01*
X116566972Y-82939028D01*
X116518035Y-82940775D01*
X116477424Y-82920444D01*
X116476828Y-82919757D01*
X116470874Y-82915930D01*
X116470871Y-82915928D01*
X116361710Y-82845775D01*
X116361708Y-82845774D01*
X116355753Y-82841947D01*
X116217661Y-82801400D01*
X116073739Y-82801400D01*
X116066948Y-82803393D01*
X116066947Y-82803394D01*
X115942440Y-82839952D01*
X115942437Y-82839953D01*
X115935647Y-82841947D01*
X115929694Y-82845772D01*
X115929689Y-82845775D01*
X115820528Y-82915928D01*
X115820522Y-82915933D01*
X115814572Y-82919757D01*
X115809936Y-82925106D01*
X115809935Y-82925108D01*
X115724963Y-83023171D01*
X115724960Y-83023175D01*
X115720323Y-83028527D01*
X115717380Y-83034970D01*
X115717378Y-83034974D01*
X115663478Y-83152997D01*
X115663476Y-83153002D01*
X115660535Y-83159443D01*
X115659527Y-83166451D01*
X115659526Y-83166456D01*
X115648294Y-83244579D01*
X115640053Y-83301900D01*
X115641061Y-83308911D01*
X115659526Y-83437343D01*
X115659527Y-83437346D01*
X115660535Y-83444357D01*
X115663477Y-83450799D01*
X115663478Y-83450802D01*
X115714729Y-83563024D01*
X115720323Y-83575273D01*
X115814572Y-83684043D01*
X115890866Y-83733074D01*
X115904024Y-83741530D01*
X115937390Y-83777368D01*
X115949500Y-83824814D01*
X115949500Y-84946802D01*
X115949134Y-84952074D01*
X115947227Y-84957765D01*
X115947650Y-84966927D01*
X115947650Y-84966932D01*
X115949394Y-85004642D01*
X115949500Y-85009214D01*
X115949500Y-85027844D01*
X115950342Y-85032351D01*
X115950764Y-85036899D01*
X115950566Y-85036917D01*
X115951101Y-85041576D01*
X115952415Y-85069992D01*
X115956385Y-85078984D01*
X115963132Y-85100772D01*
X115964939Y-85110433D01*
X115969766Y-85118230D01*
X115969767Y-85118231D01*
X115979911Y-85134615D01*
X115986300Y-85146736D01*
X115997794Y-85172765D01*
X116004278Y-85179249D01*
X116004743Y-85179714D01*
X116018908Y-85197598D01*
X116024081Y-85205952D01*
X116031403Y-85211481D01*
X116046772Y-85223087D01*
X116057116Y-85232087D01*
X117210504Y-86385475D01*
X117231964Y-86417593D01*
X117239500Y-86455479D01*
X117239500Y-86494621D01*
X117223141Y-86549132D01*
X117179472Y-86585628D01*
X117014519Y-86656265D01*
X117014511Y-86656269D01*
X117010187Y-86658121D01*
X117006289Y-86660758D01*
X117006282Y-86660763D01*
X116840040Y-86773279D01*
X116840033Y-86773284D01*
X116836135Y-86775923D01*
X116832807Y-86779250D01*
X116832802Y-86779255D01*
X116690855Y-86921202D01*
X116690850Y-86921207D01*
X116687523Y-86924535D01*
X116684884Y-86928433D01*
X116684879Y-86928440D01*
X116572363Y-87094682D01*
X116572358Y-87094689D01*
X116569721Y-87098587D01*
X116567871Y-87102906D01*
X116567865Y-87102918D01*
X116488840Y-87287458D01*
X116488836Y-87287469D01*
X116486987Y-87291788D01*
X116485988Y-87296378D01*
X116485985Y-87296389D01*
X116443126Y-87493412D01*
X116442312Y-87497155D01*
X116442084Y-87500976D01*
X116442084Y-87500979D01*
X116439586Y-87542905D01*
X116439585Y-87542931D01*
X116439500Y-87544362D01*
X116439500Y-87545824D01*
X116439500Y-88748100D01*
X116426237Y-88797600D01*
X116390000Y-88833837D01*
X116340500Y-88847100D01*
X116199500Y-88847100D01*
X116150000Y-88833837D01*
X116113763Y-88797600D01*
X116100500Y-88748100D01*
X116100500Y-87545824D01*
X116100500Y-87544362D01*
X116097688Y-87497155D01*
X116053013Y-87291788D01*
X115970279Y-87098587D01*
X115852477Y-86924535D01*
X115703865Y-86775923D01*
X115529813Y-86658121D01*
X115525484Y-86656267D01*
X115525480Y-86656265D01*
X115360528Y-86585628D01*
X115316859Y-86549132D01*
X115300500Y-86494621D01*
X115300500Y-84452561D01*
X115309445Y-84411437D01*
X115331276Y-84382271D01*
X115331128Y-84382143D01*
X115331128Y-84382142D01*
X115425377Y-84273373D01*
X115485165Y-84142457D01*
X115505647Y-84000000D01*
X115485165Y-83857543D01*
X115425377Y-83726627D01*
X115331128Y-83617857D01*
X115325174Y-83614030D01*
X115325171Y-83614028D01*
X115216010Y-83543875D01*
X115216008Y-83543874D01*
X115210053Y-83540047D01*
X115071961Y-83499500D01*
X114928039Y-83499500D01*
X114921248Y-83501493D01*
X114921247Y-83501494D01*
X114796740Y-83538052D01*
X114796737Y-83538053D01*
X114789947Y-83540047D01*
X114783994Y-83543872D01*
X114783989Y-83543875D01*
X114674828Y-83614028D01*
X114674822Y-83614033D01*
X114668872Y-83617857D01*
X114664236Y-83623206D01*
X114664235Y-83623208D01*
X114579263Y-83721271D01*
X114579260Y-83721275D01*
X114574623Y-83726627D01*
X114571680Y-83733070D01*
X114571678Y-83733074D01*
X114517778Y-83851097D01*
X114517776Y-83851102D01*
X114514835Y-83857543D01*
X114513827Y-83864551D01*
X114513826Y-83864556D01*
X114495361Y-83992989D01*
X114494353Y-84000000D01*
X114495361Y-84007011D01*
X114513826Y-84135443D01*
X114513827Y-84135446D01*
X114514835Y-84142457D01*
X114517777Y-84148899D01*
X114517778Y-84148902D01*
X114571678Y-84266925D01*
X114574623Y-84273373D01*
X114667070Y-84380063D01*
X114667072Y-84380066D01*
X114668872Y-84382143D01*
X114668723Y-84382271D01*
X114690555Y-84411437D01*
X114699500Y-84452561D01*
X114699500Y-86494621D01*
X114683141Y-86549132D01*
X114639472Y-86585628D01*
X114474519Y-86656265D01*
X114474511Y-86656269D01*
X114470187Y-86658121D01*
X114466289Y-86660758D01*
X114466282Y-86660763D01*
X114300040Y-86773279D01*
X114300033Y-86773284D01*
X114296135Y-86775923D01*
X114292807Y-86779250D01*
X114292802Y-86779255D01*
X114150855Y-86921202D01*
X114150850Y-86921207D01*
X114147523Y-86924535D01*
X114144884Y-86928433D01*
X114144879Y-86928440D01*
X114032363Y-87094682D01*
X114032358Y-87094689D01*
X114029721Y-87098587D01*
X114027871Y-87102906D01*
X114027865Y-87102918D01*
X113948840Y-87287458D01*
X113948836Y-87287469D01*
X113946987Y-87291788D01*
X113945988Y-87296378D01*
X113945985Y-87296389D01*
X113903126Y-87493412D01*
X113902312Y-87497155D01*
X113902084Y-87500976D01*
X113902084Y-87500979D01*
X113899586Y-87542905D01*
X113899585Y-87542931D01*
X113899500Y-87544362D01*
X113899500Y-87545824D01*
X113899500Y-88748100D01*
X113886237Y-88797600D01*
X113850000Y-88833837D01*
X113800500Y-88847100D01*
X113004861Y-88847100D01*
X112995157Y-88846623D01*
X112844443Y-88831778D01*
X112825409Y-88827992D01*
X112685158Y-88785448D01*
X112667230Y-88778021D01*
X112537974Y-88708933D01*
X112521838Y-88698152D01*
X112408546Y-88605174D01*
X112394825Y-88591453D01*
X112301847Y-88478161D01*
X112291067Y-88462028D01*
X112221975Y-88332764D01*
X112214553Y-88314847D01*
X112172007Y-88174590D01*
X112168221Y-88155556D01*
X112162834Y-88100866D01*
X112153376Y-88004842D01*
X112152900Y-87995139D01*
X112152900Y-81000000D01*
X114244353Y-81000000D01*
X114245361Y-81007011D01*
X114263826Y-81135443D01*
X114263827Y-81135446D01*
X114264835Y-81142457D01*
X114267777Y-81148899D01*
X114267778Y-81148902D01*
X114320047Y-81263353D01*
X114324623Y-81273373D01*
X114418872Y-81382143D01*
X114424826Y-81385969D01*
X114424828Y-81385971D01*
X114441725Y-81396830D01*
X114539947Y-81459953D01*
X114678039Y-81500500D01*
X114814883Y-81500500D01*
X114821961Y-81500500D01*
X114960053Y-81459953D01*
X115071018Y-81388639D01*
X115110447Y-81373934D01*
X115152428Y-81376936D01*
X115185581Y-81395038D01*
X115185999Y-81395521D01*
X115307074Y-81473331D01*
X115445166Y-81513878D01*
X115582010Y-81513878D01*
X115589088Y-81513878D01*
X115727180Y-81473331D01*
X115848255Y-81395521D01*
X115849096Y-81396830D01*
X115875503Y-81382406D01*
X115917490Y-81379399D01*
X115956930Y-81394107D01*
X116058851Y-81459608D01*
X116196943Y-81500155D01*
X116333787Y-81500155D01*
X116340865Y-81500155D01*
X116478957Y-81459608D01*
X116600032Y-81381798D01*
X116641171Y-81334320D01*
X116674861Y-81309102D01*
X116715987Y-81300155D01*
X117947147Y-81300155D01*
X117952419Y-81300520D01*
X117958110Y-81302428D01*
X118004986Y-81300261D01*
X118009559Y-81300155D01*
X118023610Y-81300155D01*
X118028189Y-81300155D01*
X118032689Y-81299313D01*
X118037252Y-81298890D01*
X118037271Y-81299101D01*
X118041917Y-81298553D01*
X118070337Y-81297240D01*
X118079325Y-81293270D01*
X118101123Y-81286520D01*
X118110778Y-81284716D01*
X118134962Y-81269741D01*
X118147083Y-81263353D01*
X118152600Y-81260916D01*
X118173110Y-81251861D01*
X118180057Y-81244913D01*
X118197943Y-81230746D01*
X118206297Y-81225574D01*
X118223444Y-81202866D01*
X118232431Y-81192538D01*
X118295475Y-81129495D01*
X118327593Y-81108036D01*
X118365478Y-81100500D01*
X118464883Y-81100500D01*
X118471961Y-81100500D01*
X118610053Y-81059953D01*
X118731128Y-80982143D01*
X118825377Y-80873373D01*
X118885165Y-80742457D01*
X118905647Y-80600000D01*
X118885165Y-80457543D01*
X118825377Y-80326627D01*
X118731128Y-80217857D01*
X118725174Y-80214030D01*
X118725171Y-80214028D01*
X118616010Y-80143875D01*
X118616008Y-80143874D01*
X118610053Y-80140047D01*
X118471961Y-80099500D01*
X118328039Y-80099500D01*
X118321248Y-80101493D01*
X118321247Y-80101494D01*
X118196740Y-80138052D01*
X118196737Y-80138053D01*
X118189947Y-80140047D01*
X118183994Y-80143872D01*
X118183989Y-80143875D01*
X118074828Y-80214028D01*
X118074822Y-80214033D01*
X118068872Y-80217857D01*
X118064236Y-80223206D01*
X118064235Y-80223208D01*
X117979263Y-80321271D01*
X117979260Y-80321275D01*
X117974623Y-80326627D01*
X117971680Y-80333070D01*
X117971678Y-80333074D01*
X117917778Y-80451097D01*
X117917776Y-80451102D01*
X117914835Y-80457543D01*
X117913827Y-80464551D01*
X117913826Y-80464556D01*
X117903022Y-80539702D01*
X117894353Y-80600000D01*
X117894719Y-80602549D01*
X117882098Y-80649655D01*
X117845861Y-80685892D01*
X117796361Y-80699155D01*
X116715987Y-80699155D01*
X116674861Y-80690208D01*
X116641171Y-80664989D01*
X116600032Y-80617512D01*
X116594078Y-80613685D01*
X116594075Y-80613683D01*
X116484914Y-80543530D01*
X116484912Y-80543529D01*
X116478957Y-80539702D01*
X116340865Y-80499155D01*
X116196943Y-80499155D01*
X116190156Y-80501147D01*
X116190154Y-80501148D01*
X116183509Y-80503099D01*
X116177390Y-80504895D01*
X116117120Y-80503461D01*
X116068857Y-80467332D01*
X116050500Y-80409906D01*
X116050500Y-76856389D01*
X116058036Y-76818503D01*
X116079496Y-76786385D01*
X116240930Y-76624951D01*
X116273048Y-76603491D01*
X116310934Y-76595955D01*
X116410338Y-76595955D01*
X116417416Y-76595955D01*
X116555508Y-76555408D01*
X116676583Y-76477598D01*
X116770832Y-76368828D01*
X116830620Y-76237912D01*
X116851102Y-76095455D01*
X116830620Y-75952998D01*
X116770832Y-75822082D01*
X116676583Y-75713312D01*
X116670629Y-75709485D01*
X116670626Y-75709483D01*
X116561465Y-75639330D01*
X116561463Y-75639329D01*
X116555508Y-75635502D01*
X116546009Y-75632713D01*
X116424207Y-75596949D01*
X116417416Y-75594955D01*
X116273494Y-75594955D01*
X116266703Y-75596948D01*
X116266702Y-75596949D01*
X116142195Y-75633507D01*
X116142192Y-75633508D01*
X116135402Y-75635502D01*
X116129449Y-75639327D01*
X116129444Y-75639330D01*
X116016078Y-75712186D01*
X115976644Y-75726894D01*
X115934664Y-75723892D01*
X115902818Y-75706502D01*
X115902695Y-75706695D01*
X115896741Y-75702868D01*
X115896738Y-75702866D01*
X115787577Y-75632713D01*
X115787575Y-75632712D01*
X115781620Y-75628885D01*
X115774083Y-75626672D01*
X115650319Y-75590332D01*
X115643528Y-75588338D01*
X115499606Y-75588338D01*
X115492815Y-75590331D01*
X115492814Y-75590332D01*
X115368307Y-75626890D01*
X115368304Y-75626891D01*
X115361514Y-75628885D01*
X115355561Y-75632710D01*
X115355556Y-75632713D01*
X115246395Y-75702866D01*
X115246389Y-75702871D01*
X115240439Y-75706695D01*
X115235803Y-75712044D01*
X115235802Y-75712046D01*
X115150830Y-75810109D01*
X115150827Y-75810113D01*
X115146190Y-75815465D01*
X115143247Y-75821908D01*
X115143245Y-75821912D01*
X115089345Y-75939935D01*
X115089343Y-75939940D01*
X115086402Y-75946381D01*
X115085394Y-75953389D01*
X115085393Y-75953394D01*
X115069841Y-76061565D01*
X115065920Y-76088838D01*
X115066928Y-76095848D01*
X115068888Y-76109484D01*
X115065525Y-76152657D01*
X115044056Y-76190265D01*
X115034142Y-76201140D01*
X115030990Y-76204442D01*
X115021063Y-76214369D01*
X115021054Y-76214379D01*
X115017826Y-76217608D01*
X115015240Y-76221380D01*
X115012321Y-76224897D01*
X115012178Y-76224778D01*
X115009257Y-76228438D01*
X114996261Y-76242695D01*
X114996259Y-76242697D01*
X114990084Y-76249472D01*
X114986772Y-76258018D01*
X114986770Y-76258023D01*
X114986529Y-76258646D01*
X114975898Y-76278814D01*
X114975530Y-76279351D01*
X114975527Y-76279355D01*
X114970344Y-76286924D01*
X114968244Y-76295851D01*
X114968242Y-76295856D01*
X114963830Y-76314612D01*
X114959777Y-76327700D01*
X114952813Y-76345676D01*
X114952811Y-76345683D01*
X114949500Y-76354232D01*
X114949500Y-76363404D01*
X114949500Y-76364057D01*
X114946870Y-76386723D01*
X114946721Y-76387355D01*
X114946720Y-76387358D01*
X114944621Y-76396286D01*
X114945887Y-76405368D01*
X114945888Y-76405368D01*
X114948551Y-76424458D01*
X114949500Y-76438136D01*
X114949500Y-80334522D01*
X114941964Y-80372408D01*
X114920503Y-80404526D01*
X114854524Y-80470504D01*
X114822406Y-80491964D01*
X114784521Y-80499500D01*
X114678039Y-80499500D01*
X114671248Y-80501493D01*
X114671247Y-80501494D01*
X114546740Y-80538052D01*
X114546737Y-80538053D01*
X114539947Y-80540047D01*
X114533994Y-80543872D01*
X114533989Y-80543875D01*
X114424828Y-80614028D01*
X114424822Y-80614033D01*
X114418872Y-80617857D01*
X114414236Y-80623206D01*
X114414235Y-80623208D01*
X114329263Y-80721271D01*
X114329260Y-80721275D01*
X114324623Y-80726627D01*
X114321680Y-80733070D01*
X114321678Y-80733074D01*
X114267778Y-80851097D01*
X114267776Y-80851102D01*
X114264835Y-80857543D01*
X114263827Y-80864551D01*
X114263826Y-80864556D01*
X114245647Y-80991001D01*
X114244353Y-81000000D01*
X112152900Y-81000000D01*
X112152900Y-72004861D01*
X112153377Y-71995157D01*
X112154883Y-71979869D01*
X112168221Y-71844440D01*
X112172007Y-71825409D01*
X112214554Y-71685148D01*
X112221973Y-71667238D01*
X112291070Y-71537966D01*
X112301841Y-71521846D01*
X112394826Y-71408544D01*
X112408546Y-71394825D01*
X112521846Y-71301841D01*
X112537966Y-71291070D01*
X112667238Y-71221973D01*
X112685148Y-71214554D01*
X112825411Y-71172006D01*
X112844440Y-71168221D01*
X112995157Y-71153376D01*
X113004861Y-71152900D01*
X113034898Y-71152900D01*
X113800500Y-71152900D01*
X113850000Y-71166163D01*
G37*
%TD.AperFunction*%
%TA.AperFunction,Conductor*%
G36*
X121622407Y-85558036D02*
G01*
X121654525Y-85579496D01*
X122290504Y-86215475D01*
X122311964Y-86247593D01*
X122319500Y-86285479D01*
X122319500Y-86494621D01*
X122303141Y-86549132D01*
X122259472Y-86585628D01*
X122094519Y-86656265D01*
X122094511Y-86656269D01*
X122090187Y-86658121D01*
X122086289Y-86660758D01*
X122086282Y-86660763D01*
X121920040Y-86773279D01*
X121920033Y-86773284D01*
X121916135Y-86775923D01*
X121912807Y-86779250D01*
X121912802Y-86779255D01*
X121770855Y-86921202D01*
X121770850Y-86921207D01*
X121767523Y-86924535D01*
X121764884Y-86928433D01*
X121764879Y-86928440D01*
X121652363Y-87094682D01*
X121652358Y-87094689D01*
X121649721Y-87098587D01*
X121647871Y-87102906D01*
X121647865Y-87102918D01*
X121568840Y-87287458D01*
X121568836Y-87287469D01*
X121566987Y-87291788D01*
X121565988Y-87296378D01*
X121565985Y-87296389D01*
X121523126Y-87493412D01*
X121522312Y-87497155D01*
X121522084Y-87500976D01*
X121522084Y-87500979D01*
X121519586Y-87542905D01*
X121519585Y-87542931D01*
X121519500Y-87544362D01*
X121519500Y-87545824D01*
X121519500Y-88748100D01*
X121506237Y-88797600D01*
X121470000Y-88833837D01*
X121420500Y-88847100D01*
X121279500Y-88847100D01*
X121230000Y-88833837D01*
X121193763Y-88797600D01*
X121180500Y-88748100D01*
X121180500Y-87545824D01*
X121180500Y-87544362D01*
X121177688Y-87497155D01*
X121133013Y-87291788D01*
X121050279Y-87098587D01*
X120932477Y-86924535D01*
X120783865Y-86775923D01*
X120609813Y-86658121D01*
X120605484Y-86656267D01*
X120605480Y-86656265D01*
X120440528Y-86585628D01*
X120396859Y-86549132D01*
X120380500Y-86494621D01*
X120380500Y-86133198D01*
X120380865Y-86127925D01*
X120382773Y-86122235D01*
X120380606Y-86075358D01*
X120380500Y-86070786D01*
X120380500Y-86056737D01*
X120380500Y-86052156D01*
X120379657Y-86047651D01*
X120379235Y-86043096D01*
X120379446Y-86043076D01*
X120378898Y-86038431D01*
X120377585Y-86010008D01*
X120373613Y-86001013D01*
X120366865Y-85979219D01*
X120365061Y-85969567D01*
X120356427Y-85955623D01*
X120350091Y-85945389D01*
X120343698Y-85933261D01*
X120335910Y-85915623D01*
X120332206Y-85907234D01*
X120325255Y-85900283D01*
X120311086Y-85882394D01*
X120305919Y-85874048D01*
X120283226Y-85856910D01*
X120272889Y-85847917D01*
X120144474Y-85719502D01*
X120117381Y-85668814D01*
X120123015Y-85611614D01*
X120159478Y-85567185D01*
X120214479Y-85550500D01*
X121584521Y-85550500D01*
X121622407Y-85558036D01*
G37*
%TD.AperFunction*%
%TA.AperFunction,Conductor*%
G36*
X119474807Y-85910436D02*
G01*
X119506925Y-85931896D01*
X119750504Y-86175475D01*
X119771964Y-86207593D01*
X119779500Y-86245479D01*
X119779500Y-86494621D01*
X119763141Y-86549132D01*
X119719472Y-86585628D01*
X119554519Y-86656265D01*
X119554511Y-86656269D01*
X119550187Y-86658121D01*
X119546289Y-86660758D01*
X119546282Y-86660763D01*
X119380040Y-86773279D01*
X119380033Y-86773284D01*
X119376135Y-86775923D01*
X119372807Y-86779250D01*
X119372802Y-86779255D01*
X119230855Y-86921202D01*
X119230850Y-86921207D01*
X119227523Y-86924535D01*
X119224884Y-86928433D01*
X119224879Y-86928440D01*
X119112363Y-87094682D01*
X119112358Y-87094689D01*
X119109721Y-87098587D01*
X119107871Y-87102906D01*
X119107865Y-87102918D01*
X119028840Y-87287458D01*
X119028836Y-87287469D01*
X119026987Y-87291788D01*
X119025988Y-87296378D01*
X119025985Y-87296389D01*
X118983126Y-87493412D01*
X118982312Y-87497155D01*
X118982084Y-87500976D01*
X118982084Y-87500979D01*
X118979586Y-87542905D01*
X118979585Y-87542931D01*
X118979500Y-87544362D01*
X118979500Y-87545824D01*
X118979500Y-88748100D01*
X118966237Y-88797600D01*
X118930000Y-88833837D01*
X118880500Y-88847100D01*
X118739500Y-88847100D01*
X118690000Y-88833837D01*
X118653763Y-88797600D01*
X118640500Y-88748100D01*
X118640500Y-87545824D01*
X118640500Y-87544362D01*
X118637688Y-87497155D01*
X118593013Y-87291788D01*
X118510279Y-87098587D01*
X118392477Y-86924535D01*
X118243865Y-86775923D01*
X118069813Y-86658121D01*
X118065484Y-86656267D01*
X118065480Y-86656265D01*
X117900528Y-86585628D01*
X117856859Y-86549132D01*
X117840500Y-86494621D01*
X117840500Y-86343198D01*
X117840865Y-86337925D01*
X117842773Y-86332235D01*
X117840606Y-86285358D01*
X117840500Y-86280786D01*
X117840500Y-86266737D01*
X117840500Y-86262156D01*
X117839657Y-86257651D01*
X117839235Y-86253096D01*
X117839446Y-86253076D01*
X117838898Y-86248431D01*
X117837585Y-86220008D01*
X117833613Y-86211013D01*
X117826865Y-86189219D01*
X117825061Y-86179567D01*
X117818529Y-86169018D01*
X117810091Y-86155389D01*
X117803698Y-86143261D01*
X117795910Y-86125623D01*
X117792206Y-86117234D01*
X117785255Y-86110283D01*
X117771086Y-86092394D01*
X117770747Y-86091846D01*
X117765919Y-86084048D01*
X117758598Y-86078519D01*
X117752417Y-86071739D01*
X117754187Y-86070124D01*
X117726847Y-86031182D01*
X117727550Y-85970437D01*
X117763598Y-85921539D01*
X117821417Y-85902900D01*
X119436921Y-85902900D01*
X119474807Y-85910436D01*
G37*
%TD.AperFunction*%
%TD*%
D20*
X118800000Y-77000000D03*
X118500000Y-86250000D03*
X125500000Y-83750000D03*
X119000000Y-78700000D03*
X117150000Y-77000000D03*
X113000000Y-83100000D03*
X125750000Y-77250000D03*
X127500000Y-84250000D03*
X125750000Y-78250000D03*
X121250000Y-86250000D03*
X119000000Y-81250000D03*
X124692721Y-75388444D03*
X119000000Y-80000000D03*
X117150000Y-78200000D03*
X127500000Y-75500000D03*
X113000000Y-73000000D03*
X124750000Y-84500000D03*
X113000000Y-71750000D03*
X118079264Y-83883155D03*
X125750000Y-79250000D03*
X113000000Y-81800000D03*
X117051900Y-75073786D03*
X125948100Y-75359747D03*
X117750000Y-82198100D03*
X115000000Y-84000000D03*
X116145700Y-83301900D03*
X117250000Y-83883155D03*
X118400000Y-80600000D03*
X116268904Y-80999655D03*
X116345455Y-76095455D03*
X115517127Y-81013378D03*
X114750000Y-81000000D03*
X115571567Y-76088838D03*
D21*
X115000000Y-87628400D03*
X115000000Y-89000000D03*
X117540000Y-87628400D03*
X117540000Y-89000000D03*
X120080000Y-87628400D03*
X120080000Y-89000000D03*
X122620000Y-87628400D03*
X122620000Y-89000000D03*
X122620000Y-71000000D03*
X122620000Y-72388400D03*
X120080000Y-71000000D03*
X120080000Y-72388400D03*
X117540000Y-71000000D03*
X117540000Y-72388400D03*
X115000000Y-71000000D03*
X115000000Y-72388400D03*
X122900000Y-77500000D03*
X122900000Y-80000000D03*
X122900000Y-82500000D03*
M02*
